if (_typeface_js && _typeface_js.loadFace) _typeface_js.loadFace({"glyphs":{"S":{"x_min":18.75,"x_max":902,"ha":925,"o":"m 89 87 q 78 52 89 69 q 66 18 66 34 q 191 -35 127 -8 q 321 -77 256 -62 q 450 -90 385 -93 q 575 -52 514 -87 q 441 -50 506 -61 q 315 -17 375 -38 q 198 32 255 4 q 89 87 141 61 m 89 805 q 69 753 81 779 q 48 701 57 727 q 37 649 39 675 q 42 597 34 623 q 109 531 71 556 q 189 489 146 506 q 275 460 231 472 q 360 433 319 448 q 439 397 402 418 q 506 341 477 376 q 544 303 532 325 q 559 258 555 281 q 565 209 563 234 q 575 156 567 183 q 629 229 612 191 q 646 319 646 266 q 551 404 602 370 q 443 461 499 437 q 326 504 387 484 q 205 550 266 523 q 150 593 178 568 q 103 652 123 619 q 78 723 84 684 q 89 805 71 762 m 484 875 q 461 861 476 866 q 432 848 445 855 q 412 832 419 841 q 414 805 405 822 l 461 805 q 561 817 512 823 q 646 759 611 811 q 649 775 646 768 q 657 790 652 783 q 669 805 662 797 q 631 845 652 832 q 586 866 609 859 q 536 873 562 872 q 484 875 511 875 m 623 1013 q 382 1008 501 1032 q 159 898 263 984 q 120 782 123 845 q 136 666 117 719 q 192 597 162 622 q 258 558 223 573 q 331 531 292 543 q 413 504 370 520 q 496 468 448 487 q 588 422 544 448 q 662 360 631 397 q 693 272 693 323 q 663 210 684 237 q 617 161 643 183 q 562 122 591 140 q 506 87 533 104 q 486 96 498 95 q 458 95 473 97 q 425 90 442 93 q 391 87 408 87 q 336 105 365 95 q 281 130 306 115 q 234 168 255 145 q 205 226 213 191 q 184 198 197 208 q 158 182 172 188 q 133 170 145 176 q 112 156 120 165 q 111 129 104 138 q 131 113 117 119 q 159 101 144 106 q 183 87 174 95 q 298 25 234 52 q 429 -11 362 -2 q 564 -4 497 -19 q 693 63 631 11 q 696 53 693 54 q 704 55 699 52 q 715 63 709 58 q 770 120 741 90 q 820 186 798 151 q 852 259 841 220 q 855 341 863 298 q 801 433 837 393 q 721 504 765 473 q 633 556 677 534 q 554 597 588 579 q 502 628 527 613 q 454 658 476 643 q 416 691 433 673 q 391 736 399 709 q 352 743 356 736 q 353 764 347 751 q 367 794 359 777 q 367 829 376 811 q 379 855 367 845 q 405 872 390 865 q 436 884 420 879 q 461 898 452 890 q 586 902 531 916 q 693 851 640 887 q 715 901 709 869 q 738 968 720 933 q 708 982 722 976 q 681 991 694 987 q 654 1000 668 995 q 623 1013 640 1005 m 762 968 q 762 977 762 976 q 765 977 763 979 q 772 971 767 975 q 785 968 777 968 q 765 919 777 941 q 741 875 752 897 q 722 830 730 852 q 715 782 715 808 q 684 774 698 782 q 660 756 670 766 q 640 733 649 745 q 623 712 631 720 q 615 743 623 730 q 596 765 608 757 q 574 777 585 773 q 553 782 562 782 q 483 788 517 800 q 413 759 449 776 q 453 687 421 715 q 527 637 485 659 q 613 595 569 615 q 693 550 658 576 q 764 504 727 533 q 832 438 801 475 q 882 358 862 401 q 902 272 902 315 q 862 186 885 229 q 812 107 840 144 q 748 40 783 70 q 669 -5 712 11 q 587 -68 634 -40 q 489 -112 541 -97 q 381 -126 436 -127 q 274 -98 325 -125 q 167 -43 221 -63 q 42 -5 113 -23 q 54 43 42 12 q 66 109 66 75 l 42 109 q 81 154 60 136 q 124 190 102 173 q 167 227 146 208 q 204 272 188 245 q 240 222 223 254 q 274 156 257 191 q 326 136 300 148 q 378 118 352 125 q 431 114 405 112 q 484 133 457 116 q 520 144 510 133 q 533 170 531 155 q 532 202 535 186 q 530 226 530 218 q 514 288 530 261 q 474 336 498 315 q 422 376 450 358 q 367 411 393 394 q 300 431 338 422 q 220 452 261 441 q 141 478 179 462 q 74 518 103 494 q 29 578 45 543 q 20 666 14 613 q 51 795 20 736 q 129 903 82 855 q 234 986 177 951 q 343 1037 291 1020 q 452 1052 396 1045 q 562 1054 507 1059 q 667 1030 616 1050 q 762 968 717 1011 "},"/":{"x_min":-1.390625,"x_max":905.625,"ha":874,"o":"m 177 -54 q 120 -94 154 -77 q 63 -134 87 -111 l 80 -134 q 131 -115 104 -119 q 187 -113 159 -112 q 242 -114 215 -113 q 291 -108 269 -115 q 330 -81 313 -101 q 355 -20 347 -61 q 309 -19 330 -15 q 266 -31 287 -23 q 224 -46 245 -38 q 177 -54 202 -54 m 613 982 l 501 869 q 402 684 452 770 q 290 512 351 598 q 162 198 216 352 q 48 -102 108 44 l 112 -70 q 154 34 130 -15 q 203 131 177 83 q 255 230 229 180 q 305 334 281 280 q 461 658 380 493 q 613 982 541 823 m 679 1032 q 534 754 607 897 q 387 463 461 611 q 334 342 363 402 q 275 221 305 281 q 215 100 244 161 q 161 -20 186 38 q 173 -14 168 -15 q 183 -15 179 -13 q 193 -20 188 -16 q 239 -15 218 -20 q 281 -4 261 -11 q 324 6 302 1 q 370 11 345 11 l 370 26 q 426 108 408 63 q 468 188 444 152 q 554 404 504 297 q 658 616 604 511 q 768 824 712 720 q 873 1032 825 927 q 822 1034 848 1032 q 770 1037 795 1036 q 720 1038 744 1038 q 679 1032 697 1037 m 905 1063 q 816 859 863 960 q 719 658 768 758 q 622 458 670 558 q 533 254 575 357 q 477 140 509 193 q 420 26 444 87 l 420 -20 q 393 -36 408 -27 q 367 -57 379 -45 q 347 -85 355 -70 q 338 -117 338 -99 q 316 -134 326 -124 q 297 -150 306 -144 q 279 -154 288 -156 q 258 -134 270 -152 q 197 -130 227 -128 q 136 -136 166 -131 q 76 -146 106 -141 q 15 -150 45 -150 q 6 -163 15 -163 q -1 -150 -1 -163 q 16 -101 -1 -125 q 48 -53 34 -77 q 89 58 72 0 q 125 173 106 115 q 165 288 143 231 q 226 400 188 346 q 279 518 250 460 q 341 634 309 576 q 404 750 372 692 q 468 869 437 808 l 630 1032 l 613 1032 q 610 1045 608 1043 q 618 1046 612 1047 q 632 1043 625 1044 q 645 1047 640 1042 q 776 1055 708 1058 q 905 1063 844 1051 "},"y":{"x_min":-2.78125,"x_max":970.90625,"ha":981,"o":"m 83 -611 q 121 -607 98 -611 q 170 -600 144 -604 q 222 -593 195 -597 q 272 -590 248 -590 q 324 -554 302 -572 q 377 -504 345 -536 q 293 -511 337 -512 q 206 -517 248 -511 q 131 -543 165 -523 q 83 -611 98 -564 m 334 -16 l 230 -80 q 188 -208 213 -144 q 138 -335 163 -272 q 90 -462 112 -398 q 59 -590 68 -526 q 95 -527 77 -557 q 145 -483 113 -498 l 230 -272 q 290 -145 262 -208 q 334 -16 319 -81 m 125 596 q 97 532 100 564 q 102 467 94 500 q 124 397 111 433 q 145 321 137 361 q 179 237 169 280 q 195 148 190 194 q 207 55 201 102 q 230 -38 213 8 l 356 25 l 293 87 q 260 224 284 159 q 209 351 236 289 q 157 473 181 412 q 125 596 133 533 m 695 681 q 621 626 648 657 q 574 561 594 594 q 534 493 554 528 q 483 428 515 458 q 486 408 483 419 q 496 387 490 397 q 510 369 502 376 q 526 362 518 362 q 552 443 534 403 q 595 523 570 483 q 645 602 619 562 q 695 681 672 642 m 780 701 q 705 610 740 654 q 641 519 670 565 q 587 425 611 474 q 547 321 563 376 q 534 306 538 313 q 526 294 530 299 q 518 291 522 290 q 505 300 513 292 q 479 373 497 340 q 441 435 461 406 q 403 494 420 465 q 377 554 386 522 q 338 621 361 601 q 288 649 315 640 q 229 660 261 657 q 166 681 198 664 q 148 648 151 664 q 145 617 145 632 q 170 550 161 585 q 190 480 180 515 q 213 409 200 444 q 252 342 227 374 q 292 256 275 301 q 327 164 309 210 q 366 76 344 118 q 420 4 388 35 q 363 -94 388 -43 q 313 -194 337 -145 q 265 -291 290 -243 q 209 -377 240 -338 q 206 -408 209 -392 q 200 -438 202 -424 q 200 -463 198 -452 q 209 -482 201 -474 l 420 -462 q 439 -416 429 -437 q 459 -376 450 -396 q 476 -336 469 -356 q 483 -292 483 -316 q 575 -55 530 -173 q 668 178 620 62 q 768 403 715 293 q 884 617 820 514 q 871 651 884 640 q 840 667 858 661 q 805 679 822 672 q 780 701 788 685 m 970 681 q 939 620 955 649 q 908 576 923 592 q 775 318 836 449 q 660 56 713 187 q 558 -205 607 -74 q 462 -462 509 -336 q 456 -483 462 -477 q 441 -491 450 -489 q 427 -494 433 -493 q 420 -504 420 -495 q 279 -616 355 -584 q 125 -632 204 -647 q 102 -632 116 -632 q 71 -634 87 -632 q 40 -640 55 -636 q 18 -653 26 -644 l -2 -653 q 38 -510 12 -582 q 92 -367 63 -439 q 146 -224 120 -295 q 187 -80 172 -152 q 182 -49 172 -65 q 209 -16 193 -33 q 178 55 186 14 q 164 139 170 96 q 146 225 158 183 q 104 300 134 268 l 59 533 q 79 569 68 550 q 98 609 90 587 q 109 654 106 630 q 104 701 112 678 q 151 707 127 710 q 198 699 175 704 q 245 687 222 693 q 293 680 269 680 l 334 680 q 372 629 358 657 q 398 572 386 601 q 425 512 411 543 q 462 449 438 480 q 494 493 479 472 q 523 535 509 514 q 549 581 537 557 q 569 638 561 606 l 737 722 q 747 725 741 722 q 758 745 758 731 q 856 697 807 713 q 970 681 905 681 "},"Á":{"x_min":-8.0625,"x_max":1058.703125,"ha":1075,"o":"m 594 1216 q 514 1188 553 1207 q 437 1150 475 1170 q 359 1111 398 1130 q 279 1083 321 1093 q 271 1057 278 1068 q 259 1036 265 1045 q 251 1016 254 1026 q 254 991 248 1005 q 439 1066 348 1030 q 614 1120 530 1101 q 641 1195 629 1159 q 657 1265 654 1232 q 644 1250 653 1255 q 625 1240 636 1244 q 607 1231 615 1236 q 594 1216 598 1226 m 220 1225 q 206 1169 208 1197 q 207 1114 204 1141 q 218 1059 211 1087 q 230 1001 225 1030 l 262 1076 l 236 1087 q 251 1119 252 1101 q 243 1155 250 1137 q 227 1191 236 1173 q 220 1225 219 1209 m 486 1379 q 416 1361 447 1377 q 353 1325 384 1344 q 289 1291 322 1305 q 215 1283 257 1277 l 279 1126 q 298 1132 289 1130 q 314 1132 305 1133 q 325 1125 322 1132 q 399 1173 358 1154 q 481 1210 440 1193 q 559 1245 522 1227 q 625 1290 597 1263 q 643 1325 641 1305 q 638 1364 644 1344 q 620 1406 632 1384 q 601 1447 609 1427 q 549 1415 573 1436 q 486 1379 525 1394 m 634 1461 l 669 1332 q 698 1325 689 1323 q 696 1320 708 1326 q 673 1220 684 1270 q 639 1113 661 1169 q 440 1043 540 1086 q 252 951 340 1001 q 245 938 248 941 q 237 936 241 936 q 228 937 233 936 q 216 936 223 938 l 158 1177 q 191 1215 183 1188 q 205 1261 198 1241 q 181 1278 186 1268 q 190 1294 176 1288 q 252 1309 219 1298 q 318 1333 286 1319 q 382 1364 351 1347 q 436 1398 412 1380 q 494 1405 470 1390 q 539 1439 518 1420 q 582 1468 559 1458 q 634 1461 604 1479 m 200 -6 q 145 -4 166 1 q 110 -26 123 -11 q 87 -65 96 -41 q 71 -116 79 -90 q 171 -87 119 -97 q 272 -63 223 -77 q 360 -22 321 -48 q 423 54 400 2 q 319 24 376 38 q 200 -6 262 9 m 868 54 q 823 59 844 54 q 783 61 801 63 q 755 45 765 59 q 745 -6 745 30 q 804 14 776 9 q 847 33 832 19 q 882 50 861 50 q 921 50 903 50 q 953 57 940 50 q 967 94 967 65 q 908 75 935 80 q 868 54 882 70 m 636 326 q 626 252 619 288 q 648 179 633 215 q 677 106 662 143 q 692 33 692 70 q 699 106 701 70 q 687 179 697 143 q 664 252 678 215 q 636 326 650 288 m 615 347 q 553 344 584 347 q 493 326 522 341 l 493 225 l 514 225 q 559 238 543 225 q 586 270 576 251 q 601 310 596 288 q 615 347 607 331 m 513 516 l 493 558 l 493 516 l 513 516 m 493 680 l 475 619 l 493 619 q 509 586 501 604 q 525 556 516 569 q 546 536 534 543 q 575 537 558 529 q 553 569 566 554 q 526 602 540 584 q 502 638 512 619 q 493 680 493 657 m 554 619 q 575 592 562 604 q 600 566 588 580 q 617 536 611 552 q 615 498 623 520 q 581 467 600 470 q 541 469 562 463 q 497 481 520 475 q 450 481 473 487 q 438 527 440 502 q 440 579 437 552 q 446 631 443 605 q 450 680 450 657 q 454 697 450 687 q 466 718 458 708 q 486 734 475 727 q 513 741 498 741 q 534 720 529 734 q 540 688 538 707 q 544 652 543 670 q 554 619 545 634 m 302 812 l 181 659 q 157 486 173 572 q 122 314 141 401 q 84 138 104 227 q 49 -44 65 50 q 68 -19 58 -30 q 85 1 77 -8 q 95 18 93 11 q 91 33 98 26 q 159 223 125 129 q 223 414 194 318 q 273 610 252 511 q 302 812 294 709 m 343 870 q 318 659 336 762 q 271 455 300 555 q 206 255 243 355 q 126 54 169 155 l 182 76 q 189 72 189 76 q 189 63 190 69 q 184 49 187 56 q 182 33 182 41 q 320 48 257 33 q 450 94 383 63 q 452 125 450 108 q 455 156 455 141 q 449 185 455 172 q 423 206 443 198 q 446 251 443 229 q 448 296 448 273 q 452 341 448 319 q 475 387 455 363 q 514 378 489 379 q 566 384 539 377 q 623 400 594 390 q 673 426 651 411 l 673 408 q 696 325 690 369 q 711 240 703 280 q 735 172 719 201 q 786 133 750 143 l 786 94 q 864 114 832 109 q 925 133 896 119 q 754 543 850 340 q 554 952 658 747 q 441 919 494 936 q 343 870 387 902 m 593 930 q 698 742 650 836 q 792 557 747 648 q 879 377 836 465 q 967 206 922 288 q 972 160 960 179 q 997 125 985 141 q 1012 93 1010 109 q 989 54 1015 76 q 1005 59 996 54 q 1023 69 1014 65 q 1042 71 1033 73 q 1058 54 1051 69 q 1050 33 1058 38 q 1030 23 1042 27 q 1008 13 1019 19 q 989 -6 996 8 q 918 -1 950 1 q 855 -11 886 -4 q 791 -28 823 -18 q 717 -44 758 -38 q 704 -52 710 -49 q 692 -44 692 -58 q 671 17 679 -15 q 651 82 662 50 q 623 147 640 115 q 575 206 605 179 l 493 184 q 501 108 507 144 q 475 38 494 72 q 425 -24 455 5 q 361 -83 394 -54 q 210 -124 286 -108 q 50 -156 133 -141 q 28 -165 33 -156 q 9 -175 23 -175 l -8 -156 q 25 29 5 -62 q 64 213 46 120 q 96 400 83 305 q 110 598 110 495 q 99 605 103 598 q 96 622 96 612 q 99 642 96 632 q 110 659 103 652 q 164 707 136 683 q 215 758 191 732 q 256 812 239 784 q 282 870 273 840 q 346 914 311 893 q 420 953 382 936 q 498 981 458 970 q 575 991 537 991 q 592 977 590 984 q 592 963 594 970 q 588 947 590 955 q 593 930 586 938 "},"g":{"x_min":15.359375,"x_max":756.640625,"ha":774,"o":"m 237 -350 q 211 -378 222 -365 q 201 -405 201 -391 q 338 -444 270 -433 q 475 -443 405 -455 q 518 -429 502 -443 q 547 -387 534 -415 q 466 -402 506 -401 q 386 -395 425 -402 q 309 -376 347 -388 q 237 -350 272 -363 m 218 -222 q 197 -261 211 -243 q 172 -295 183 -279 q 161 -330 162 -312 q 181 -369 161 -348 q 213 -302 209 -341 q 218 -222 218 -263 m 566 -58 l 475 -205 q 515 -177 495 -191 q 548 -145 534 -162 q 568 -106 562 -127 q 566 -58 573 -86 m 584 -4 l 584 15 l 566 -4 l 584 -4 m 127 380 q 77 334 100 352 q 55 288 55 316 q 43 209 41 247 q 57 136 45 172 q 88 65 69 100 q 127 -4 106 30 q 169 -30 148 -18 q 212 -51 190 -43 q 258 -62 234 -59 q 309 -58 281 -65 q 386 -48 344 -51 q 465 -35 427 -45 q 531 -2 502 -25 q 566 69 559 20 q 514 30 538 41 q 475 31 490 19 q 433 10 454 18 q 392 -2 412 2 q 351 -11 372 -6 q 309 -20 330 -15 q 255 4 281 -6 q 205 28 229 15 q 161 59 181 41 q 127 105 141 77 q 99 166 106 133 q 93 236 91 200 q 104 309 95 272 q 127 380 113 345 m 293 325 q 293 216 263 270 q 383 186 333 188 q 475 197 433 183 q 489 238 488 218 q 484 279 490 259 q 465 320 477 300 q 438 361 452 340 q 402 381 425 375 q 358 384 380 387 q 317 367 336 381 q 293 325 298 352 m 530 361 q 500 377 516 368 q 468 394 484 387 q 439 403 452 401 q 419 398 426 405 q 460 364 440 384 q 495 320 480 344 q 520 270 511 297 q 530 216 530 243 q 548 246 544 230 q 552 279 552 262 q 550 313 552 297 q 547 344 547 330 l 530 361 m 566 398 q 574 367 573 384 q 575 331 575 350 q 576 293 575 312 q 584 252 577 273 q 527 200 556 225 q 456 161 497 175 q 349 161 401 147 q 256 216 297 175 q 254 253 256 236 q 251 288 251 270 q 255 322 251 305 q 273 361 259 340 q 307 398 287 381 q 351 425 327 415 q 402 438 375 436 q 456 434 429 441 q 511 409 484 420 q 566 398 538 398 m 511 598 l 494 581 l 530 545 q 520 572 530 558 q 511 598 511 586 m 676 654 q 611 638 648 640 q 547 636 575 636 q 552 606 547 622 q 561 575 558 590 q 563 546 565 559 q 547 526 561 533 q 531 521 540 519 q 510 529 522 523 q 484 540 498 534 q 456 545 470 545 q 434 570 456 558 q 383 581 411 581 q 347 577 369 581 q 309 545 325 573 q 238 513 269 538 q 184 453 206 487 q 148 380 162 419 q 127 306 134 341 q 115 239 113 273 q 129 172 118 205 q 161 109 141 140 q 201 51 180 77 q 239 43 222 51 q 272 26 256 34 q 301 13 287 18 q 329 15 315 8 q 399 34 362 29 q 470 48 436 40 q 534 72 504 56 q 584 123 563 88 q 618 114 612 123 q 623 91 625 105 q 618 61 622 77 q 620 31 613 45 q 611 -45 613 -8 q 600 -115 608 -83 q 572 -174 591 -147 q 511 -222 552 -201 q 450 -243 483 -236 q 384 -250 418 -250 q 316 -243 350 -250 q 256 -222 283 -236 q 254 -277 256 -250 q 237 -333 252 -305 q 386 -375 306 -373 q 547 -350 465 -377 q 596 -322 568 -336 q 652 -289 625 -308 q 702 -245 680 -270 q 732 -186 725 -220 q 723 16 732 -83 q 706 215 715 116 q 692 415 697 315 q 694 618 687 515 l 676 654 m 712 671 q 720 528 719 603 q 724 376 722 453 q 730 221 726 299 q 748 69 734 144 q 747 -21 741 27 q 756 -121 754 -71 q 747 -217 758 -171 q 694 -297 736 -262 q 659 -322 680 -311 q 616 -346 637 -333 q 581 -378 595 -360 q 566 -423 566 -396 q 491 -468 531 -458 q 409 -476 451 -478 q 322 -467 366 -473 q 237 -460 279 -460 q 212 -428 230 -433 q 177 -421 194 -423 q 150 -411 161 -419 q 145 -369 138 -403 q 137 -355 138 -362 q 136 -342 136 -348 q 135 -328 136 -335 q 127 -314 134 -321 q 160 -278 148 -300 q 182 -235 172 -257 q 204 -194 193 -212 q 237 -168 216 -175 q 279 -195 258 -182 q 324 -217 300 -208 q 376 -227 348 -225 q 438 -222 404 -229 q 458 -181 445 -201 q 484 -141 470 -161 q 510 -100 497 -121 q 530 -58 523 -79 q 425 -76 481 -65 q 309 -86 368 -86 q 195 -69 251 -86 q 91 -4 138 -53 q 62 51 77 23 q 34 108 47 78 q 17 168 22 137 q 19 233 12 199 q 40 319 19 280 q 91 392 61 358 q 156 459 122 427 q 218 526 190 491 q 273 558 245 540 q 330 587 301 576 q 391 601 359 599 q 456 581 422 602 q 472 594 463 587 q 490 610 481 602 q 504 629 498 619 q 511 653 511 640 q 602 671 552 667 q 694 690 652 676 l 712 671 "},"–":{"x_min":15.734375,"x_max":1163.984375,"ha":1179,"o":"m 652 302 q 524 294 587 292 q 397 299 461 296 q 271 303 334 303 q 143 288 208 303 q 113 280 127 283 q 87 270 98 276 q 69 253 76 264 q 62 221 62 241 q 241 221 152 226 q 418 212 330 216 q 595 211 506 208 q 775 234 684 214 q 859 230 815 229 q 945 241 902 230 q 1027 272 988 251 q 1097 328 1066 293 q 880 305 995 308 q 652 302 765 302 m 88 396 q 47 325 58 365 q 36 235 36 285 l 62 275 q 93 301 87 285 q 95 335 98 317 q 88 369 93 353 q 88 396 84 385 m 586 435 q 351 422 475 425 q 116 410 227 419 q 114 379 116 394 q 111 351 112 364 q 110 329 109 339 q 116 315 111 319 q 186 319 151 315 q 256 327 222 324 q 322 332 290 331 q 384 328 354 333 q 647 323 516 328 q 909 328 777 318 q 1021 347 969 339 q 1123 356 1073 356 q 1129 395 1123 375 q 1136 435 1136 415 l 586 435 m 1163 449 q 1158 417 1159 434 q 1155 382 1157 399 q 1150 347 1154 365 q 1136 315 1145 330 q 1083 291 1107 315 q 1029 247 1059 268 l 1029 234 q 1011 233 1019 238 q 995 223 1002 229 q 980 218 988 218 q 962 234 972 219 q 777 209 880 215 q 572 193 673 204 q 439 193 506 188 q 302 204 372 198 q 163 208 233 209 q 22 193 93 208 q 15 222 16 208 q 16 249 15 236 q 20 279 18 263 q 22 315 22 294 l 36 368 q 69 397 55 379 q 102 434 83 415 l 116 422 q 275 429 197 422 q 433 445 354 437 q 593 456 512 452 q 761 449 675 459 q 861 461 811 459 q 961 461 911 462 q 1063 458 1012 459 q 1163 462 1113 458 l 1163 449 "},"ë":{"x_min":14.859375,"x_max":771.3125,"ha":793,"o":"m 248 847 q 216 804 228 825 q 193 761 204 783 q 241 764 219 755 q 281 789 262 773 q 316 825 300 805 q 347 861 332 844 q 298 843 326 850 q 248 847 271 836 m 221 987 q 192 943 200 966 q 183 895 184 919 q 182 848 182 872 q 177 804 183 825 q 221 843 209 820 q 232 890 232 865 q 226 941 232 915 q 221 987 221 966 m 249 1001 l 249 875 q 273 857 260 858 q 301 860 287 855 q 331 874 316 865 q 362 887 346 883 q 367 953 373 919 q 362 1029 362 987 q 300 1020 330 1029 q 249 1001 271 1012 m 390 1001 q 384 925 390 958 q 390 861 379 893 q 364 838 379 850 q 336 816 350 827 q 314 791 323 804 q 305 761 305 777 q 272 748 290 750 q 235 747 254 747 q 198 745 216 747 q 163 733 180 743 q 162 722 163 722 q 150 733 161 722 q 168 827 161 776 q 163 930 175 877 l 220 1029 q 305 1038 263 1029 q 390 1058 347 1047 q 394 1038 395 1047 q 390 1024 393 1030 q 386 1012 387 1018 q 390 1001 384 1007 m 531 870 q 497 827 509 848 q 474 786 486 807 q 522 788 501 780 q 563 813 544 797 q 597 848 581 829 q 630 884 613 868 q 581 866 609 873 q 531 870 552 859 m 502 1011 q 474 966 481 990 q 465 919 466 943 q 465 872 465 895 q 461 827 466 848 q 503 866 493 844 q 513 913 513 888 q 508 964 513 938 q 502 1011 502 990 m 532 1025 l 532 898 q 554 881 541 883 q 582 884 568 879 q 612 898 597 890 q 643 912 627 907 q 648 977 654 944 q 643 1054 643 1011 q 582 1045 612 1054 q 532 1025 552 1036 m 672 1025 q 666 948 672 981 q 672 884 661 915 q 646 863 661 873 q 618 841 632 852 q 596 815 605 829 q 587 786 587 801 q 554 772 572 775 q 517 770 536 770 q 480 769 498 770 q 445 756 462 768 q 444 745 445 745 q 431 756 443 745 q 450 850 443 800 q 445 954 456 901 l 502 1054 q 588 1062 545 1054 q 672 1082 630 1070 q 676 1063 677 1070 q 672 1048 675 1055 q 668 1036 669 1041 q 672 1025 666 1030 m 375 333 q 346 331 353 340 q 342 305 340 322 q 350 268 344 289 q 356 234 356 248 q 421 243 385 241 q 494 244 457 244 q 567 246 531 244 q 632 254 603 247 q 662 304 647 284 q 692 353 676 323 q 533 343 617 353 q 375 333 450 333 m 118 452 q 55 365 73 415 q 36 261 37 315 q 43 154 34 208 q 58 56 51 101 q 253 -116 147 -62 q 493 -141 359 -170 q 550 -99 523 -126 q 593 -43 577 -72 q 456 -54 526 -58 q 322 -27 387 -50 q 200 35 258 -5 q 97 136 141 76 q 73 213 75 173 q 77 293 70 252 q 97 375 84 334 q 118 452 109 415 m 355 511 l 374 472 l 413 472 q 384 499 398 487 q 355 511 370 511 m 394 531 l 434 491 q 454 486 448 484 q 461 496 459 488 q 465 513 463 504 q 473 531 466 523 q 461 553 473 545 q 434 561 448 561 q 406 553 419 561 q 394 531 394 545 m 493 551 l 493 452 q 449 447 470 452 q 406 437 427 441 q 368 435 386 433 q 334 452 350 437 q 330 496 327 475 q 342 536 333 518 q 365 569 351 555 q 394 591 379 583 q 427 599 409 598 q 459 594 444 600 q 483 577 473 588 q 493 551 493 566 m 315 670 q 204 576 241 633 q 149 452 166 519 q 129 313 133 384 q 117 174 124 241 q 145 119 124 145 q 191 73 165 94 q 245 37 217 52 q 295 16 273 23 q 383 -8 340 1 q 470 -20 427 -18 q 554 -14 513 -22 q 631 16 594 -5 q 640 43 638 31 q 639 66 641 55 q 634 88 637 77 q 631 114 631 99 q 595 92 616 99 q 550 83 574 85 q 501 85 526 81 q 454 95 476 88 q 370 140 409 110 q 315 215 330 170 q 312 247 315 228 q 307 284 309 265 q 306 320 305 302 q 315 353 308 337 q 418 359 366 353 q 522 373 470 365 q 627 386 574 380 q 730 393 679 393 q 719 424 723 406 q 711 461 715 443 q 702 498 706 480 q 691 531 698 516 q 624 633 669 598 q 525 682 579 669 q 415 690 472 695 q 315 670 359 684 m 632 671 q 690 605 669 641 q 723 529 710 568 q 746 450 736 490 q 771 373 756 411 q 767 362 771 365 q 761 355 764 358 q 751 353 756 353 q 704 311 722 337 q 669 263 686 286 q 631 230 653 241 q 572 234 610 219 q 471 217 528 219 q 356 215 415 215 q 365 179 356 192 q 390 157 375 166 q 421 139 404 148 q 454 114 439 130 q 501 112 476 114 q 551 112 526 110 q 596 124 575 114 q 632 155 617 133 q 652 151 647 155 q 659 142 657 148 q 662 130 661 137 q 672 114 664 123 q 668 68 664 92 q 674 21 672 44 q 669 -17 676 0 q 632 -43 661 -35 q 573 -119 603 -87 q 514 -180 543 -151 q 384 -187 447 -196 q 263 -151 321 -178 q 154 -86 205 -125 q 58 -3 102 -47 q 27 74 36 34 q 15 157 18 114 q 15 244 13 199 q 18 333 18 288 q 102 491 48 408 q 216 650 157 575 q 242 646 230 643 q 263 655 254 648 q 280 673 272 662 q 296 690 289 683 q 376 712 333 704 q 464 717 419 719 q 551 704 508 715 q 632 671 594 693 "},"ƒ":{"x_min":22.21875,"x_max":769.5,"ha":813,"o":"m 551 -191 q 461 -226 506 -213 q 358 -248 415 -238 q 309 -270 336 -266 q 257 -275 283 -273 q 208 -286 231 -277 q 169 -323 184 -295 q 210 -313 190 -313 q 241 -323 230 -313 q 411 -279 329 -313 q 551 -191 493 -245 m 183 -179 l 140 -220 q 140 -311 119 -262 q 163 -279 150 -300 q 197 -248 176 -259 q 195 -213 197 -238 q 183 -179 193 -188 m 433 423 l 390 348 l 405 276 q 401 110 405 188 q 373 -45 397 31 q 357 -72 368 -62 q 337 -90 347 -81 q 320 -112 327 -100 q 313 -147 313 -125 l 373 -118 q 399 -101 386 -112 q 423 -75 412 -90 q 441 -41 434 -61 q 448 0 448 -22 q 441 205 437 98 q 433 423 444 312 m 183 395 q 170 398 177 400 q 154 395 162 397 q 139 395 147 394 q 126 408 131 397 q 113 395 120 404 q 97 379 105 387 q 85 362 90 370 q 80 348 80 354 q 147 355 115 348 q 211 362 179 362 q 265 366 234 368 q 326 369 297 365 q 377 390 355 373 q 405 451 400 406 q 292 418 347 430 q 183 395 237 405 m 551 451 l 565 408 q 611 420 586 419 q 661 422 637 420 q 702 431 684 423 q 726 465 720 438 q 681 468 704 472 q 637 460 659 465 q 593 451 615 455 q 551 451 572 447 m 111 438 l 95 512 q 72 483 79 501 q 64 445 66 465 q 63 408 62 426 q 65 379 65 390 l 111 438 m 416 571 l 405 761 q 384 671 394 716 q 373 571 373 625 l 416 571 m 608 922 q 586 912 597 922 q 568 890 576 902 q 556 865 561 877 q 551 847 551 852 q 580 860 566 852 q 608 875 594 868 q 640 886 623 882 q 681 891 658 891 l 695 922 q 652 938 673 943 q 608 922 630 933 m 711 1083 q 618 1083 668 1093 q 536 1037 568 1072 q 465 957 487 1004 q 437 854 442 910 q 437 740 431 798 q 448 626 442 682 q 453 585 448 605 q 448 542 458 564 q 433 536 437 530 q 416 542 429 542 q 393 544 406 542 q 366 547 380 546 q 338 548 352 548 q 313 542 324 547 q 261 535 286 542 q 214 522 237 528 q 169 516 191 517 q 126 526 147 515 q 127 469 126 494 q 140 423 129 444 q 222 432 183 423 q 299 451 260 442 q 376 467 337 461 q 461 465 416 472 l 461 451 q 465 318 461 385 q 461 175 470 251 q 472 64 470 118 q 473 -45 473 10 q 413 -119 454 -88 q 313 -160 372 -149 q 303 -165 308 -160 q 292 -174 298 -170 q 282 -180 287 -178 q 273 -178 277 -183 q 258 -165 266 -166 q 244 -165 251 -163 q 232 -167 237 -166 q 227 -160 227 -167 l 227 -248 l 286 -248 q 424 -210 352 -227 q 565 -160 495 -194 q 611 -128 598 -151 q 628 -76 625 -105 q 631 -15 631 -46 q 637 43 630 15 q 609 131 620 87 q 586 219 597 175 q 563 307 574 262 q 536 396 552 351 q 542 418 547 405 q 532 443 537 430 q 528 466 527 455 q 551 483 529 476 q 596 480 572 476 q 645 489 620 483 q 693 498 669 494 q 739 496 718 501 l 739 611 l 579 611 q 559 607 568 611 q 543 599 551 603 q 526 594 534 596 q 507 598 518 593 l 507 789 l 493 805 q 511 839 502 821 q 530 875 520 857 q 551 909 540 893 q 579 937 562 925 q 611 948 594 942 q 644 960 627 955 q 677 962 661 964 q 711 950 694 961 q 724 959 722 950 q 726 980 726 968 l 711 1083 m 738 1083 q 739 1034 734 1059 q 747 982 744 1008 q 745 932 751 955 q 711 891 738 908 q 693 874 705 880 q 665 864 680 868 q 634 856 650 859 q 608 847 619 853 q 566 831 586 836 q 536 805 547 826 q 530 714 525 758 q 536 626 536 671 q 592 633 562 632 q 652 634 622 634 q 711 635 682 634 q 769 643 741 636 q 763 555 769 598 q 769 465 757 511 q 752 458 758 465 q 741 442 745 451 q 734 423 737 433 q 726 408 730 414 q 688 402 709 404 q 647 400 668 401 q 608 394 626 398 q 579 379 590 390 q 604 218 579 301 q 654 57 629 136 q 647 -90 663 -20 q 565 -205 632 -161 q 497 -248 530 -227 q 429 -286 463 -269 q 360 -313 395 -302 q 286 -323 325 -323 q 250 -340 269 -340 q 212 -338 231 -341 q 175 -336 193 -336 q 140 -354 156 -337 q 120 -358 129 -354 q 111 -354 111 -363 q 105 -286 111 -322 q 111 -205 100 -249 q 145 -179 126 -195 q 184 -149 163 -162 q 227 -133 205 -137 q 273 -147 250 -130 q 295 -120 288 -136 q 306 -92 301 -105 q 319 -69 312 -79 q 343 -59 326 -59 q 368 22 361 -20 q 377 109 375 65 q 381 195 380 152 q 390 276 383 239 q 379 318 390 298 q 358 348 369 337 q 291 343 326 343 q 220 344 256 344 q 149 340 184 344 q 80 320 113 336 l 37 334 q 43 381 37 355 q 37 439 48 407 l 37 451 l 22 451 l 22 465 q 57 497 45 479 q 80 526 69 515 l 80 541 l 111 555 q 152 537 133 544 q 183 541 172 530 q 263 561 227 552 q 343 571 300 571 q 352 664 343 619 q 375 751 362 708 q 400 836 388 794 q 416 922 412 878 q 443 991 422 959 q 493 1048 463 1023 q 555 1089 522 1073 q 620 1110 588 1105 q 686 1106 655 1110 q 738 1083 718 1103 "},"Î":{"x_min":-112.4375,"x_max":725.140625,"ha":586,"o":"m 233 -19 q 186 -43 208 -27 q 150 -78 165 -59 q 126 -118 134 -98 q 118 -155 118 -138 q 190 -167 154 -155 q 280 -179 227 -179 q 323 -150 305 -170 q 356 -107 341 -130 q 386 -60 372 -84 q 416 -19 400 -35 l 233 -19 m 233 896 q 160 765 181 836 q 130 618 138 693 q 117 468 122 543 q 97 325 113 393 q 87 219 88 274 q 87 108 85 164 q 93 -3 90 51 q 97 -110 97 -59 l 187 4 q 173 69 170 37 q 210 118 176 101 q 207 148 202 135 q 216 170 212 161 q 217 183 220 179 q 187 188 213 188 q 210 362 203 272 q 218 542 216 451 q 222 721 220 632 q 233 896 224 810 m 256 965 q 250 780 248 871 q 253 601 251 689 q 253 428 255 514 q 233 255 251 341 q 256 253 251 255 q 280 232 262 250 q 247 153 262 198 q 233 72 233 107 l 211 72 l 211 28 l 462 28 q 468 223 470 121 q 462 430 466 325 q 456 641 458 534 q 462 851 454 747 q 468 912 473 891 q 445 941 462 933 q 402 950 427 950 q 350 950 377 951 q 298 952 323 950 q 256 965 273 954 m 508 987 q 513 974 516 979 q 504 965 510 969 q 491 955 498 961 q 484 941 484 950 q 488 691 484 812 q 496 452 491 570 q 504 218 501 334 q 508 -19 508 101 q 490 -35 499 -36 q 473 -30 481 -34 q 456 -25 465 -26 q 440 -41 448 -24 l 301 -225 q 244 -203 267 -206 q 187 -201 222 -201 q 153 -194 170 -201 q 122 -186 137 -188 q 94 -191 106 -184 q 73 -225 81 -198 q 51 -186 56 -208 q 45 -141 45 -165 q 48 -93 45 -118 q 51 -41 51 -68 q 48 91 42 26 q 64 218 53 156 q 86 341 76 280 q 97 461 97 401 l 117 827 q 158 865 144 844 q 184 907 173 886 q 206 950 195 929 q 233 987 216 970 q 301 991 267 995 q 370 979 335 986 q 439 971 405 972 q 508 987 473 970 m -51 1048 l -42 1048 q -34 1052 -38 1052 q -29 1046 -29 1052 q -33 1038 -29 1042 l 52 1028 q 62 1048 55 1039 q 77 1066 69 1057 q 91 1081 84 1074 q 97 1096 97 1088 q 61 1108 80 1108 q 31 1101 45 1108 q 2 1085 16 1095 q -24 1066 -11 1075 q -51 1048 -37 1056 m 594 1142 q 582 1117 591 1126 q 561 1100 572 1108 q 538 1082 550 1092 q 518 1058 526 1072 l 614 1086 q 632 1111 620 1100 q 653 1133 643 1122 q 671 1154 664 1143 q 679 1179 679 1165 q 636 1168 658 1179 q 594 1142 615 1157 m 332 1254 q 329 1252 330 1254 q 326 1251 327 1251 q 303 1235 313 1243 q 286 1216 293 1227 q 369 1136 327 1180 q 452 1065 411 1093 q 477 1056 466 1056 q 497 1063 489 1056 q 513 1081 505 1071 q 529 1101 520 1091 q 548 1114 537 1111 q 444 1194 500 1155 q 332 1254 389 1233 m 257 1430 l 162 1375 q 48 1232 105 1304 q -51 1075 -9 1161 q -28 1094 -37 1083 q -5 1114 -19 1105 q 45 1199 12 1159 q 116 1276 77 1239 q 191 1351 154 1314 q 257 1430 229 1389 m 294 1442 q 229 1363 266 1399 q 154 1291 193 1327 q 82 1216 116 1255 q 22 1131 47 1177 q 73 1122 50 1131 q 125 1114 97 1114 q 147 1124 134 1124 q 162 1114 158 1124 q 234 1201 198 1156 q 313 1282 270 1246 l 341 1292 q 392 1259 366 1274 q 443 1229 418 1245 q 493 1195 469 1213 q 539 1151 518 1177 q 609 1179 575 1158 q 679 1207 643 1200 q 632 1235 658 1228 q 586 1263 607 1242 q 519 1300 550 1277 q 459 1347 489 1323 q 401 1394 430 1371 q 341 1431 372 1417 q 327 1421 333 1421 q 312 1432 319 1421 q 294 1442 305 1442 m 332 1458 q 417 1414 377 1441 q 495 1356 457 1386 q 574 1295 534 1325 q 659 1245 614 1266 q 688 1231 675 1245 q 712 1217 701 1217 q 725 1227 719 1217 q 702 1162 725 1195 q 652 1099 679 1129 l 641 1086 q 645 1079 643 1084 q 651 1066 651 1071 q 571 1047 608 1060 q 490 1021 534 1033 q 454 1036 469 1021 q 418 1066 439 1051 q 342 1137 382 1102 q 266 1207 302 1172 q 236 1172 250 1193 q 207 1133 222 1152 q 173 1100 191 1114 q 125 1086 154 1086 q 104 1063 113 1078 q 87 1035 95 1049 q 68 1010 79 1021 q 43 1000 58 1000 q 13 1010 29 1000 q -28 1020 -6 1010 q -73 1030 -49 1030 q -109 1021 -91 1030 q -112 1025 -112 1021 q -111 1035 -112 1029 q -109 1047 -109 1041 q -57 1130 -87 1090 q 4 1211 -27 1171 q 68 1292 37 1251 q 125 1375 100 1333 l 286 1468 q 290 1466 287 1466 q 312 1475 300 1466 q 332 1485 325 1485 q 336 1478 336 1485 q 332 1458 336 1472 "},"e":{"x_min":14.859375,"x_max":771.3125,"ha":793,"o":"m 375 333 q 346 331 353 340 q 342 305 340 322 q 350 268 344 289 q 356 234 356 248 q 421 243 385 241 q 494 244 457 244 q 567 246 531 244 q 632 254 603 247 q 662 304 647 284 q 692 353 676 323 q 533 343 617 353 q 375 333 450 333 m 118 452 q 55 365 73 415 q 36 261 37 315 q 43 154 34 208 q 58 56 51 101 q 253 -116 147 -62 q 493 -141 359 -170 q 550 -99 523 -126 q 593 -43 577 -72 q 457 -54 526 -58 q 323 -27 387 -50 q 200 35 258 -5 q 97 136 141 76 q 73 213 75 173 q 77 293 70 252 q 97 375 84 334 q 118 452 109 415 m 355 511 l 375 472 l 413 472 q 384 499 398 487 q 355 511 370 511 m 394 531 l 434 491 q 454 486 448 484 q 461 496 459 488 q 465 513 463 504 q 473 531 466 523 q 461 553 473 545 q 434 561 448 561 q 406 553 419 561 q 394 531 394 545 m 493 551 l 493 452 q 449 447 470 452 q 406 437 427 441 q 368 435 386 433 q 334 452 350 437 q 330 496 327 475 q 342 536 333 518 q 365 569 351 555 q 394 591 379 583 q 427 599 409 598 q 459 594 444 600 q 483 577 473 588 q 493 551 493 566 m 315 670 q 204 576 241 633 q 150 452 166 519 q 129 313 133 384 q 118 174 125 241 q 145 119 125 145 q 191 73 165 94 q 245 37 218 52 q 295 16 273 23 q 384 -8 340 1 q 470 -20 427 -18 q 554 -14 513 -22 q 632 16 594 -5 q 640 43 638 31 q 639 66 641 55 q 634 88 637 77 q 632 114 632 99 q 595 92 616 99 q 550 83 575 85 q 501 85 526 81 q 454 95 476 88 q 370 140 409 110 q 315 215 330 170 q 312 247 315 228 q 307 284 309 265 q 306 320 305 302 q 315 353 308 337 q 418 359 366 353 q 522 373 470 365 q 627 386 575 380 q 730 393 679 393 q 719 424 723 406 q 711 461 715 443 q 702 498 707 480 q 691 531 698 516 q 624 633 669 598 q 525 682 579 669 q 416 690 472 695 q 315 670 359 684 m 632 671 q 690 605 669 641 q 723 529 710 568 q 746 450 736 490 q 771 373 756 411 q 767 362 771 365 q 761 355 764 358 q 751 353 756 353 q 704 311 722 337 q 669 263 686 286 q 631 230 653 241 q 572 234 610 219 q 471 217 528 219 q 356 215 415 215 q 365 179 356 192 q 390 157 375 166 q 421 139 404 148 q 454 114 439 130 q 501 112 476 114 q 551 112 526 110 q 596 124 575 114 q 632 155 617 133 q 652 151 647 155 q 659 142 657 148 q 662 130 661 137 q 672 114 664 123 q 668 68 664 92 q 674 21 672 44 q 669 -17 676 0 q 632 -43 661 -35 q 573 -119 603 -87 q 514 -180 543 -151 q 384 -187 447 -196 q 263 -151 321 -178 q 154 -86 205 -125 q 58 -3 102 -47 q 27 74 36 34 q 15 157 18 114 q 15 244 13 199 q 18 333 18 288 q 102 491 48 408 q 216 650 157 575 q 242 646 230 643 q 263 655 254 648 q 280 673 272 662 q 296 690 289 683 q 376 712 333 704 q 464 717 419 719 q 551 704 508 715 q 632 671 594 693 "},"Ã":{"x_min":-8.0625,"x_max":1058.703125,"ha":1075,"o":"m 200 -6 q 145 -4 166 1 q 110 -26 123 -11 q 87 -65 96 -41 q 71 -116 79 -90 q 171 -87 119 -97 q 272 -63 223 -77 q 360 -22 321 -48 q 423 54 400 2 q 319 24 376 38 q 200 -6 262 9 m 868 54 q 823 59 844 54 q 783 61 801 63 q 755 45 765 59 q 745 -6 745 30 q 804 14 776 9 q 847 33 832 19 q 882 50 861 50 q 921 50 903 50 q 953 57 940 50 q 967 94 967 65 q 908 75 935 80 q 868 54 882 70 m 636 326 q 626 252 619 289 q 648 179 633 215 q 677 107 662 143 q 692 33 692 70 q 699 107 701 70 q 687 179 697 143 q 664 252 678 215 q 636 326 650 289 m 615 347 q 553 344 584 347 q 493 326 522 341 l 493 225 l 514 225 q 559 238 543 225 q 586 270 576 251 q 601 310 596 289 q 615 347 607 332 m 513 516 l 493 558 l 493 516 l 513 516 m 493 680 l 475 619 l 493 619 q 509 587 501 604 q 525 556 516 569 q 546 536 534 543 q 575 537 558 529 q 553 569 566 554 q 526 602 540 584 q 502 638 512 619 q 493 680 493 657 m 554 619 q 575 592 562 604 q 600 566 588 580 q 617 536 611 552 q 615 498 623 520 q 581 467 600 470 q 541 469 562 463 q 497 481 520 475 q 450 481 473 487 q 438 527 440 502 q 440 579 437 552 q 446 631 443 605 q 450 680 450 657 q 454 697 450 687 q 466 718 458 708 q 486 734 475 727 q 513 741 498 741 q 534 720 529 734 q 540 688 538 707 q 544 652 543 670 q 554 619 545 634 m 302 812 l 181 659 q 157 486 173 572 q 122 314 141 401 q 84 138 104 227 q 49 -44 65 50 q 68 -19 58 -30 q 85 1 77 -8 q 95 18 93 11 q 91 33 98 26 q 159 223 125 129 q 223 414 194 318 q 273 610 252 511 q 302 812 294 709 m 343 870 q 318 659 336 762 q 271 455 300 555 q 206 255 243 355 q 126 54 169 155 l 182 76 q 189 72 189 76 q 189 63 190 69 q 184 49 187 57 q 182 33 182 41 q 320 48 257 33 q 450 94 383 63 q 452 125 450 108 q 455 157 455 141 q 449 185 455 172 q 423 207 443 198 q 446 251 443 229 q 448 296 448 273 q 452 341 448 319 q 475 387 455 364 q 514 378 489 379 q 566 384 539 377 q 623 400 594 390 q 673 426 651 411 l 673 408 q 696 325 690 369 q 711 241 703 280 q 735 172 719 201 q 786 133 750 143 l 786 94 q 864 114 832 109 q 925 133 896 119 q 754 543 850 340 q 554 952 658 747 q 441 919 494 936 q 343 870 387 902 m 593 930 q 698 742 650 836 q 792 557 747 648 q 879 377 836 465 q 967 207 922 289 q 972 160 960 179 q 997 125 985 141 q 1012 93 1010 109 q 989 54 1015 76 q 1005 59 996 54 q 1023 69 1014 65 q 1042 71 1033 73 q 1058 54 1051 69 q 1050 33 1058 38 q 1030 23 1042 27 q 1008 13 1019 19 q 989 -6 996 8 q 918 -1 950 1 q 855 -11 886 -4 q 791 -28 823 -18 q 717 -44 758 -38 q 704 -52 710 -49 q 692 -44 692 -58 q 671 17 679 -15 q 651 82 662 50 q 623 147 640 115 q 575 207 605 179 l 493 184 q 501 108 507 144 q 475 38 494 72 q 425 -24 455 5 q 361 -83 394 -54 q 210 -124 286 -108 q 50 -156 133 -141 q 28 -165 33 -156 q 9 -175 23 -175 l -8 -156 q 25 29 5 -62 q 64 213 46 120 q 96 400 83 305 q 110 598 110 496 q 99 605 103 598 q 96 622 96 612 q 99 642 96 632 q 110 659 103 653 q 164 707 136 683 q 215 758 191 732 q 256 812 239 785 q 282 871 273 840 q 346 914 311 893 q 420 953 382 936 q 498 981 458 971 q 575 992 537 992 q 592 978 590 985 q 592 963 594 971 q 588 947 590 955 q 593 930 586 939 m 64 1227 q 46 1161 49 1195 q 43 1094 43 1127 q 56 1078 51 1086 q 67 1064 61 1070 q 83 1054 74 1058 q 108 1049 92 1049 q 102 1067 100 1058 q 110 1086 104 1076 q 124 1109 117 1097 q 130 1138 130 1122 l 130 1118 l 108 1118 q 114 1146 117 1133 q 103 1172 111 1159 q 83 1198 94 1184 q 64 1227 72 1211 m 990 1360 q 912 1271 956 1309 q 836 1184 868 1232 q 779 1152 811 1168 q 712 1130 747 1137 q 640 1129 676 1123 q 571 1159 604 1134 q 517 1206 537 1176 q 476 1264 497 1236 q 428 1314 455 1293 q 351 1335 400 1335 q 305 1324 326 1335 q 268 1298 285 1314 q 239 1263 251 1282 q 218 1227 226 1244 q 174 1129 203 1176 q 130 1049 146 1083 q 180 1103 155 1074 q 232 1158 205 1131 q 288 1209 258 1186 q 351 1248 318 1231 q 402 1243 383 1248 q 440 1205 421 1237 q 490 1152 465 1180 q 544 1102 515 1124 q 605 1064 572 1079 q 681 1049 639 1049 q 713 1063 697 1058 q 744 1075 729 1069 q 770 1091 758 1081 q 790 1118 782 1101 l 790 1094 q 840 1154 807 1127 q 907 1211 874 1182 q 965 1275 940 1240 q 990 1360 990 1309 m 393 1513 q 295 1478 343 1505 q 204 1413 247 1451 q 125 1332 161 1376 q 64 1248 89 1289 q 90 1219 80 1231 q 108 1197 100 1207 q 126 1178 117 1187 q 151 1159 135 1169 q 198 1248 167 1210 q 261 1334 229 1287 q 298 1351 278 1344 q 339 1361 318 1359 q 379 1357 360 1363 q 415 1334 399 1352 q 469 1304 449 1326 q 505 1259 489 1282 q 541 1214 522 1235 q 593 1184 560 1192 q 646 1161 618 1167 q 701 1157 674 1155 q 751 1167 728 1159 q 790 1184 774 1174 q 849 1224 824 1201 q 898 1276 875 1248 q 943 1337 921 1305 q 990 1402 965 1369 l 879 1469 q 829 1373 862 1419 q 747 1313 796 1328 q 645 1321 689 1298 q 562 1381 601 1344 q 483 1458 522 1419 q 393 1513 443 1496 m 526 1448 q 573 1412 551 1432 q 615 1374 594 1391 q 656 1346 635 1357 q 703 1335 678 1335 q 765 1350 736 1335 q 816 1388 793 1365 q 855 1439 839 1411 q 879 1490 871 1466 q 901 1480 896 1490 q 924 1469 907 1469 q 940 1450 932 1461 q 959 1428 949 1439 q 982 1410 969 1418 q 1011 1403 994 1403 q 1001 1337 1011 1371 q 990 1272 990 1304 l 811 1074 q 770 1063 787 1074 q 736 1042 753 1052 q 702 1026 719 1031 q 660 1029 685 1020 q 626 1035 643 1029 q 593 1053 610 1042 q 560 1074 576 1063 q 526 1094 543 1085 q 484 1136 501 1110 q 448 1185 467 1162 q 407 1222 429 1208 q 351 1227 385 1235 q 301 1187 326 1210 q 251 1138 276 1163 q 201 1090 226 1113 q 151 1049 176 1066 q 142 1033 143 1041 q 140 1022 140 1026 q 139 1019 140 1017 q 130 1029 139 1020 q 120 1022 122 1029 q 116 1008 118 1015 q 108 999 114 1002 q 85 1005 101 997 q 71 1026 76 1013 q 60 1051 67 1038 q 44 1074 54 1063 q 18 1094 35 1086 q 30 1175 18 1127 q 43 1272 43 1222 l 18 1272 q 33 1277 28 1280 q 43 1271 39 1275 q 51 1265 47 1266 q 64 1272 55 1264 q 121 1353 89 1314 q 193 1425 154 1393 q 277 1482 232 1458 q 372 1514 322 1505 q 419 1519 397 1522 q 458 1505 440 1515 q 493 1479 476 1494 q 526 1448 510 1464 m 64 1227 q 46 1161 49 1195 q 43 1094 43 1127 q 56 1078 51 1086 q 67 1064 61 1070 q 83 1054 74 1058 q 108 1049 92 1049 q 102 1067 100 1058 q 110 1086 104 1076 q 124 1109 117 1097 q 130 1138 130 1122 l 130 1118 l 108 1118 q 114 1146 117 1133 q 103 1172 111 1159 q 83 1198 94 1184 q 64 1227 72 1211 m 990 1360 q 912 1271 956 1309 q 836 1184 868 1232 q 779 1152 811 1168 q 712 1130 747 1137 q 640 1129 676 1123 q 571 1159 604 1134 q 517 1206 537 1176 q 476 1264 497 1236 q 428 1314 455 1293 q 351 1335 400 1335 q 305 1324 326 1335 q 268 1298 285 1314 q 239 1263 251 1282 q 218 1227 226 1244 q 174 1129 203 1176 q 130 1049 146 1083 q 180 1103 155 1074 q 232 1158 205 1131 q 288 1209 258 1186 q 351 1248 318 1231 q 402 1243 383 1248 q 440 1205 421 1237 q 490 1152 465 1180 q 544 1102 515 1124 q 605 1064 572 1079 q 681 1049 639 1049 q 713 1063 697 1058 q 744 1075 729 1069 q 770 1091 758 1081 q 790 1118 782 1101 l 790 1094 q 840 1154 807 1127 q 907 1211 874 1182 q 965 1275 940 1240 q 990 1360 990 1309 m 393 1513 q 295 1478 343 1505 q 204 1413 247 1451 q 125 1332 161 1376 q 64 1248 89 1289 q 90 1219 80 1231 q 108 1197 100 1207 q 126 1178 117 1187 q 151 1159 135 1169 q 198 1248 167 1210 q 261 1334 229 1287 q 298 1351 278 1344 q 339 1361 318 1359 q 379 1357 360 1363 q 415 1334 399 1352 q 469 1304 449 1326 q 505 1259 489 1282 q 541 1214 522 1235 q 593 1184 560 1192 q 646 1161 618 1167 q 701 1157 674 1155 q 751 1167 728 1159 q 790 1184 774 1174 q 849 1224 824 1201 q 898 1276 875 1248 q 943 1337 921 1305 q 990 1402 965 1369 l 879 1469 q 829 1373 862 1419 q 747 1313 796 1328 q 645 1321 689 1298 q 562 1381 601 1344 q 483 1458 522 1419 q 393 1513 443 1496 m 526 1448 q 573 1412 551 1432 q 615 1374 594 1391 q 656 1346 635 1357 q 703 1335 678 1335 q 765 1350 736 1335 q 816 1388 793 1365 q 855 1439 839 1411 q 879 1490 871 1466 q 901 1480 896 1490 q 924 1469 907 1469 q 940 1450 932 1461 q 959 1428 949 1439 q 982 1410 969 1418 q 1011 1403 994 1403 q 1001 1337 1011 1371 q 990 1272 990 1304 l 811 1074 q 770 1063 787 1074 q 736 1042 753 1052 q 702 1026 719 1031 q 660 1029 685 1020 q 626 1035 643 1029 q 593 1053 610 1042 q 560 1074 576 1063 q 526 1094 543 1085 q 484 1136 501 1110 q 448 1185 467 1162 q 407 1222 429 1208 q 351 1227 385 1235 q 301 1187 326 1210 q 251 1138 276 1163 q 201 1090 226 1113 q 151 1049 176 1066 q 142 1033 143 1041 q 140 1022 140 1026 q 139 1019 140 1017 q 130 1029 139 1020 q 120 1022 122 1029 q 116 1008 118 1015 q 108 999 114 1002 q 85 1005 101 997 q 71 1026 76 1013 q 60 1051 67 1038 q 44 1074 54 1063 q 18 1094 35 1086 q 30 1175 18 1127 q 43 1272 43 1222 l 18 1272 q 33 1277 28 1280 q 43 1271 39 1275 q 51 1265 47 1266 q 64 1272 55 1264 q 121 1353 89 1314 q 193 1425 154 1393 q 277 1482 232 1458 q 372 1514 322 1505 q 419 1519 397 1522 q 458 1505 440 1515 q 493 1479 476 1494 q 526 1448 510 1464 "},"J":{"x_min":18.65625,"x_max":836.4375,"ha":855,"o":"m 127 273 q 94 221 111 240 q 61 186 76 202 q 86 115 78 154 q 105 41 93 77 q 140 -26 117 4 q 213 -73 164 -56 q 284 -90 245 -88 q 364 -83 324 -91 q 443 -60 404 -74 q 514 -29 482 -45 l 299 -29 q 172 105 217 36 q 127 273 127 174 m 601 900 l 560 814 q 565 777 568 797 q 558 734 562 757 q 553 688 554 712 q 560 640 551 664 q 576 511 575 575 q 567 384 578 447 q 537 260 557 322 q 493 142 518 199 l 601 249 q 623 403 618 323 q 625 566 627 483 q 616 734 623 650 q 601 900 609 818 m 644 922 q 654 849 653 889 q 655 769 655 809 q 657 690 655 729 q 667 619 658 651 q 653 528 655 576 q 651 432 651 480 q 646 338 650 384 q 630 250 643 291 q 590 176 617 209 q 514 121 562 142 q 491 121 506 121 q 460 119 476 121 q 429 113 444 117 q 406 101 414 109 q 390 113 397 109 q 379 121 383 117 q 376 130 375 126 q 385 142 376 134 q 326 185 344 159 q 297 242 307 212 q 279 303 286 273 q 257 358 272 334 q 212 355 239 358 q 169 337 185 352 q 299 14 138 142 q 389 9 339 14 q 487 8 439 4 q 578 32 536 12 q 644 101 621 52 l 644 77 q 673 97 661 85 q 698 121 686 109 q 723 145 709 134 q 753 165 736 156 q 802 360 793 262 q 807 559 811 458 q 795 766 803 661 q 796 986 787 872 q 751 973 772 978 q 712 962 730 968 q 678 946 694 955 q 644 922 661 937 m 817 1007 q 817 837 811 926 q 830 658 823 748 q 836 478 836 568 q 819 304 836 387 q 760 146 801 221 q 644 14 719 72 q 567 -25 604 -2 q 491 -69 529 -47 q 411 -110 453 -91 q 321 -138 369 -129 q 253 -120 288 -129 q 186 -97 218 -111 q 126 -61 153 -82 q 82 -7 99 -40 q 51 89 67 41 q 18 185 35 137 q 42 227 26 209 q 73 264 57 245 q 104 304 89 283 q 127 358 118 326 q 194 389 158 374 q 278 404 229 404 q 298 367 293 386 q 321 316 304 348 q 342 223 321 266 q 429 165 364 180 q 488 212 469 181 q 514 281 507 242 q 525 362 522 319 q 536 445 527 405 q 525 604 536 526 q 514 748 514 682 q 510 757 514 757 q 500 758 507 758 q 487 759 494 758 q 472 769 480 761 q 495 815 480 794 q 526 854 509 836 q 557 889 543 872 q 580 922 572 905 q 632 960 604 946 q 688 984 659 974 q 744 1004 716 994 q 796 1031 772 1014 l 817 1007 "},"»":{"x_min":-1.390625,"x_max":850.0625,"ha":886,"o":"m 487 -65 q 462 -71 472 -65 q 444 -86 452 -77 q 428 -103 436 -94 q 411 -118 420 -112 q 458 -129 430 -127 q 515 -130 486 -130 q 540 -102 525 -111 q 566 -93 555 -93 q 545 -79 555 -83 q 527 -73 536 -75 q 507 -71 518 -72 q 487 -65 497 -70 m 102 -2 q 81 -9 91 -8 q 63 -11 72 -9 q 48 -15 55 -12 q 37 -27 41 -18 q 94 -79 65 -47 q 151 -130 123 -111 l 231 -104 q 170 -44 201 -75 q 102 -2 138 -13 m 361 384 l 295 384 q 227 289 266 336 q 150 195 188 243 q 77 100 111 148 q 23 -2 43 51 q 43 11 33 6 q 61 16 52 15 q 76 18 69 18 q 88 25 83 19 q 220 209 147 122 q 361 384 293 297 m 527 269 q 446 87 479 181 q 386 -104 413 -6 l 448 -54 q 496 63 473 4 q 543 183 519 123 q 595 300 568 243 q 657 409 623 356 q 604 401 623 415 q 572 364 584 387 q 551 315 561 341 q 527 269 541 288 m 61 619 q 58 563 47 584 q 93 527 69 541 q 144 500 116 512 q 191 475 172 488 q 228 456 211 469 q 263 432 245 444 q 302 413 281 420 q 347 409 322 405 q 319 445 336 430 q 281 461 302 461 q 236 518 262 495 q 181 559 211 541 q 121 590 152 576 q 61 619 90 604 m 411 811 l 361 747 q 448 661 408 708 q 527 565 488 613 q 563 508 547 537 q 591 450 580 479 q 606 431 597 434 q 625 429 615 427 q 647 434 636 430 q 669 437 659 437 q 663 474 669 456 q 647 508 657 491 q 626 542 637 525 q 605 579 615 559 q 498 690 547 627 q 411 811 450 752 m 165 811 q 135 772 151 791 q 104 732 119 752 q 78 690 90 712 q 61 643 66 668 q 102 620 80 629 q 146 604 125 612 q 190 584 168 595 q 231 552 212 572 q 272 513 250 533 q 318 473 295 494 q 358 431 340 452 q 386 384 376 409 q 252 211 318 297 q 127 36 186 125 q 136 12 127 20 q 154 -2 144 4 q 176 -18 165 -9 q 191 -40 187 -26 q 211 -46 201 -40 q 229 -59 220 -52 q 244 -72 237 -66 q 256 -79 251 -79 q 397 173 334 45 q 527 437 459 301 q 402 531 459 476 q 295 657 344 587 q 269 697 280 676 q 245 739 258 719 q 213 777 231 759 q 165 811 194 795 m 191 823 q 252 752 225 790 q 307 676 280 715 q 362 600 334 637 q 423 527 390 562 q 494 477 463 498 q 552 437 525 455 q 548 420 552 426 q 540 410 544 415 q 531 400 536 405 q 527 384 527 394 q 409 152 468 269 q 281 -79 350 36 q 285 -93 291 -90 q 270 -104 279 -95 q 240 -118 255 -113 q 211 -125 226 -122 q 181 -135 197 -129 q 151 -155 166 -141 q 125 -130 137 -145 q 99 -100 112 -115 q 71 -71 86 -84 q 37 -54 56 -58 q 12 -40 26 -43 q -1 -27 -1 -37 q 52 84 18 30 q 125 189 86 137 q 206 293 165 241 q 281 398 248 344 q 261 420 272 412 q 237 434 250 429 q 213 442 225 438 q 191 450 201 445 q 114 500 152 479 q 37 540 76 520 q 40 602 37 579 q 23 643 43 625 q 93 738 62 693 q 151 823 123 784 q 147 834 151 832 q 151 848 143 837 q 163 844 156 843 q 177 845 170 845 q 187 841 183 845 q 191 823 191 837 m 423 823 q 505 709 463 765 q 605 605 547 652 q 661 520 633 565 q 708 437 688 476 q 627 326 659 383 q 572 209 595 269 q 527 90 548 150 q 476 -27 505 30 l 487 -40 q 527 -47 508 -40 q 566 -54 545 -54 q 591 -65 575 -62 q 616 -79 608 -68 q 661 50 632 -11 q 722 171 690 111 q 782 293 754 231 q 825 423 811 355 l 759 513 q 694 596 720 552 q 643 684 668 640 q 593 774 619 729 q 527 862 566 819 q 475 847 497 851 q 423 823 452 843 m 538 876 q 617 764 583 821 q 685 649 651 707 q 758 533 719 591 q 850 423 797 475 l 787 269 q 693 87 727 181 q 630 -104 659 -7 q 580 -103 601 -96 q 538 -131 559 -111 q 530 -136 534 -131 q 521 -146 526 -142 q 511 -152 516 -151 q 501 -142 506 -153 q 463 -151 481 -153 q 427 -145 444 -149 q 396 -142 411 -142 q 372 -156 381 -142 l 361 -156 q 369 -92 361 -122 q 388 -35 377 -62 q 409 17 398 -8 q 423 73 419 44 q 497 241 463 163 q 577 398 530 319 l 577 423 q 569 460 577 442 q 550 494 561 477 q 529 528 540 510 q 515 564 519 545 q 435 652 475 613 q 347 720 395 691 q 353 748 347 734 q 366 777 359 763 q 379 805 373 791 q 386 834 386 820 q 397 840 391 839 q 411 841 404 841 q 425 841 419 841 q 437 848 431 842 q 484 872 456 869 q 538 876 511 876 "},"©":{"x_min":46,"x_max":1132,"ha":1182,"o":"m 641 602 q 595 590 618 602 q 552 560 572 578 q 518 520 532 541 q 501 480 505 498 q 571 522 533 501 q 650 543 609 543 q 720 520 686 543 l 750 572 q 699 598 727 594 q 641 602 670 602 m 349 622 l 279 511 q 274 461 276 486 q 272 410 272 436 q 281 324 272 365 q 320 251 291 283 q 374 193 342 213 q 440 161 405 172 q 514 144 476 149 q 590 130 552 138 q 645 149 616 141 q 702 165 675 156 q 752 190 729 174 q 790 231 775 205 q 755 210 775 216 q 715 201 736 204 q 675 195 694 198 q 641 180 655 191 q 563 176 601 176 q 458 191 508 176 q 370 251 409 206 q 338 364 351 304 q 324 486 324 425 q 330 556 324 522 q 349 622 335 590 m 670 741 q 640 745 655 743 q 609 748 625 748 q 495 723 550 748 q 399 650 441 699 q 356 562 370 613 q 343 458 343 512 q 370 301 343 373 q 388 261 374 279 q 420 231 401 244 q 460 211 438 219 q 501 200 481 204 q 663 211 583 200 q 809 261 743 222 q 816 271 813 265 q 820 284 818 277 q 828 296 823 291 q 841 301 833 301 q 832 315 834 308 q 819 330 829 323 q 800 355 808 342 q 785 378 793 367 q 769 398 777 390 q 750 410 761 406 q 701 356 734 374 q 631 330 668 337 q 538 367 586 347 q 459 431 491 387 q 468 472 459 453 q 488 509 476 491 q 515 544 501 527 q 540 581 529 561 q 602 609 566 596 q 673 623 637 623 q 730 610 702 623 q 755 592 745 603 q 780 581 765 581 l 832 670 q 754 709 793 693 q 670 741 715 725 m 851 693 q 833 656 844 674 q 811 621 822 639 q 792 586 801 604 q 780 549 784 569 q 776 550 777 549 q 773 551 776 551 q 751 542 760 551 q 735 522 742 533 q 721 503 727 512 q 706 494 715 494 q 680 520 692 494 q 669 522 674 522 q 658 522 663 522 q 567 498 610 522 q 491 441 523 474 q 514 401 498 415 q 549 381 530 388 q 590 369 569 374 q 631 352 612 363 q 688 370 660 359 q 730 410 715 381 q 735 422 734 415 q 738 435 735 428 q 744 446 740 441 q 760 451 749 451 q 786 411 774 431 q 810 372 798 391 q 837 338 823 353 q 870 310 851 322 l 863 298 q 826 237 844 265 q 790 180 809 209 q 669 135 731 159 q 542 111 606 111 q 486 117 515 111 q 430 140 458 124 q 370 161 397 144 q 323 204 344 179 q 287 261 302 230 q 259 321 272 291 q 250 364 253 340 q 247 411 247 387 q 257 490 247 451 q 291 563 267 529 q 331 625 313 592 q 380 681 349 659 q 385 680 381 680 q 399 685 392 680 q 413 698 406 691 q 426 712 419 705 q 440 723 433 720 q 535 750 485 735 q 638 765 585 765 q 654 765 647 765 q 670 763 662 765 q 760 728 715 748 q 851 693 805 709 m 209 821 l 140 742 q 82 609 99 680 q 66 463 66 538 q 87 259 66 360 q 131 71 109 158 q 192 3 157 29 q 266 -37 226 -22 q 347 -63 306 -53 q 430 -79 389 -72 q 482 -83 455 -79 q 538 -95 510 -88 q 595 -106 566 -101 q 650 -111 623 -111 q 714 -97 686 -111 q 761 -49 743 -84 q 584 -68 668 -68 q 458 -54 519 -68 q 340 -9 398 -41 q 267 39 298 9 q 214 103 237 68 q 173 179 191 139 q 141 261 155 219 q 115 424 115 339 q 144 625 115 524 q 209 821 173 725 m 491 862 q 448 842 472 846 q 401 836 424 838 q 357 831 379 835 q 320 811 335 827 q 249 654 270 741 q 212 479 227 567 l 209 461 q 222 361 220 412 q 232 263 224 309 q 260 177 240 216 q 330 111 281 137 q 428 69 374 77 q 537 61 481 61 l 609 61 q 679 72 644 69 q 746 82 713 76 q 808 101 779 88 q 861 140 837 113 q 920 224 905 176 q 936 323 936 272 q 931 394 936 359 q 920 461 927 428 q 911 524 913 490 q 906 589 909 557 q 892 650 902 621 q 861 703 883 679 q 687 816 777 770 q 491 862 597 862 m 730 912 l 716 915 q 646 929 684 922 q 571 936 608 936 q 495 926 532 936 q 430 890 459 916 q 418 896 425 896 q 401 890 409 896 q 386 878 393 885 q 370 862 377 871 l 430 862 q 526 880 475 880 q 659 852 594 880 q 780 791 725 824 q 860 748 830 775 q 907 684 890 720 q 932 605 925 648 q 943 518 939 562 q 953 432 948 474 q 971 352 958 390 q 976 398 975 376 q 978 444 978 420 q 941 658 978 555 q 841 841 904 761 l 730 912 m 901 782 q 971 617 944 707 q 999 432 999 526 q 980 295 999 361 q 921 171 962 229 q 861 105 898 126 q 780 73 823 83 q 689 57 736 62 q 600 42 641 53 q 586 42 593 42 q 572 43 579 43 q 473 51 522 45 q 381 71 425 56 q 301 113 337 86 q 240 190 265 141 q 206 320 216 254 q 196 452 196 387 q 200 530 196 493 q 238 666 215 600 q 269 791 262 732 q 340 859 307 829 q 409 922 373 890 q 435 927 421 922 q 463 937 449 932 q 492 948 477 943 q 522 953 506 953 q 531 953 526 953 q 540 952 535 953 q 597 956 569 956 q 770 912 691 956 q 901 782 848 868 m 590 1021 l 590 1011 q 564 1020 577 1020 q 540 1017 552 1020 q 516 1014 527 1014 q 503 1015 509 1014 q 491 1021 497 1016 q 399 987 443 1014 q 318 925 355 961 q 252 845 282 888 q 200 762 222 802 q 155 606 172 687 q 139 441 139 524 q 164 256 139 345 q 250 91 190 167 q 409 -17 318 14 q 599 -49 501 -49 q 664 -33 630 -37 q 731 -23 698 -29 q 793 -6 765 -18 q 841 31 822 5 l 861 12 q 940 64 906 32 q 1000 134 974 96 q 1045 213 1026 171 q 1083 295 1065 255 l 1090 310 q 1104 416 1104 362 q 1091 517 1104 467 q 1058 613 1079 566 q 1013 704 1038 659 q 959 791 987 750 q 907 885 941 844 q 829 955 873 926 q 734 1000 786 984 q 632 1021 683 1016 q 650 1015 638 1021 q 661 1011 655 1012 q 675 1004 668 1011 q 690 991 683 998 q 650 995 675 991 q 609 1021 626 998 l 600 1011 l 590 1021 m 920 902 q 988 790 951 847 q 1057 672 1025 733 q 1110 548 1088 612 q 1132 416 1132 484 q 1111 291 1132 355 q 1059 198 1084 245 q 1001 107 1033 150 q 928 29 969 64 q 832 -19 887 -4 q 793 -51 812 -34 q 754 -85 773 -69 q 714 -113 734 -101 q 671 -129 693 -124 q 535 -113 604 -120 q 400 -93 467 -106 q 270 -58 333 -80 q 151 0 207 -37 q 100 96 114 45 q 70 200 86 147 q 55 345 65 270 q 46 493 46 419 q 61 627 46 562 q 121 749 76 691 q 202 836 158 788 q 291 922 245 883 q 311 954 298 940 q 338 978 323 967 q 368 996 352 988 q 400 1011 384 1004 q 425 1015 411 1015 q 454 1018 440 1016 q 480 1025 468 1020 q 501 1041 493 1030 q 593 1049 548 1049 q 771 1012 690 1049 q 920 902 852 974 "},"ò":{"x_min":28.84375,"x_max":765.34375,"ha":781,"o":"m 108 443 q 78 370 87 408 q 65 293 69 333 q 60 213 62 254 q 52 131 58 173 q 63 73 58 105 q 78 12 68 41 q 107 -38 88 -16 q 161 -66 126 -61 q 234 -76 194 -73 q 313 -75 273 -79 q 388 -61 352 -72 q 452 -29 425 -50 q 375 -42 418 -37 q 292 -43 333 -47 q 216 -25 251 -40 q 161 25 181 -9 q 111 115 126 65 q 93 219 97 165 q 95 331 90 273 q 108 443 101 388 m 326 406 q 291 359 305 386 q 272 306 277 333 q 271 253 268 279 q 290 206 275 227 q 335 186 309 193 q 386 177 361 179 q 435 177 412 175 q 470 187 458 180 q 475 231 470 208 q 484 276 480 254 q 486 318 487 298 q 470 351 484 338 q 438 393 458 372 q 398 427 419 415 q 358 436 377 438 q 326 406 338 433 m 397 479 q 409 461 397 463 q 436 459 420 459 q 474 402 455 431 q 506 340 493 372 q 526 274 520 308 q 526 206 531 240 q 554 260 540 233 q 577 314 569 287 q 584 368 586 341 q 562 423 583 395 q 536 463 555 451 q 493 478 516 475 q 443 480 469 481 q 397 479 418 479 m 616 406 q 593 283 616 338 q 543 187 570 227 q 485 161 515 173 q 423 145 455 150 q 357 145 391 140 q 290 170 323 150 q 263 199 275 183 q 251 241 251 215 q 254 322 244 283 q 286 398 263 362 q 341 464 308 434 q 416 515 375 494 q 536 502 484 529 q 616 406 588 475 m 470 661 q 441 678 458 673 q 407 683 425 683 q 373 681 390 683 q 343 679 356 679 q 240 608 281 651 q 173 512 198 565 q 137 400 148 459 q 126 277 126 340 q 130 195 126 237 q 148 113 134 152 q 186 40 162 73 q 251 -11 211 8 q 404 -18 334 -25 q 543 41 475 -11 q 638 117 598 69 q 707 206 679 165 q 729 304 720 254 q 738 402 738 354 q 727 493 738 450 q 688 569 715 536 q 650 604 668 583 q 616 643 633 625 q 581 673 600 662 q 543 679 563 684 l 543 661 l 526 661 q 512 666 519 661 q 498 674 505 670 q 484 675 491 677 q 470 661 477 673 m 616 679 q 697 584 663 637 q 748 472 732 531 q 765 348 765 412 q 744 223 765 284 q 648 93 702 154 q 526 6 594 33 q 488 -51 512 -27 q 436 -88 465 -75 q 373 -106 406 -102 q 306 -102 340 -109 q 238 -101 272 -102 q 175 -93 205 -100 q 117 -71 144 -86 q 69 -29 90 -56 q 34 77 43 18 q 29 199 26 136 q 45 325 33 262 q 69 443 56 388 q 134 533 98 483 q 198 625 170 583 q 264 656 233 638 q 327 690 295 675 q 394 713 359 705 q 470 715 429 720 q 481 707 477 708 q 488 707 486 705 q 495 712 491 709 q 506 715 500 715 l 616 679 m 581 819 q 619 830 609 821 q 629 851 628 839 q 629 876 630 863 q 634 900 627 890 q 605 885 619 893 q 582 866 591 877 q 572 844 574 856 q 581 819 571 832 m 202 1006 q 202 963 200 984 q 224 930 204 943 l 540 792 q 554 807 554 798 q 549 826 554 816 q 539 848 544 837 q 541 869 535 859 q 452 899 496 885 q 364 930 407 914 q 281 965 322 946 q 202 1006 240 983 m 215 1022 q 388 942 298 978 q 575 892 477 906 q 588 904 579 898 q 606 918 597 911 q 623 932 616 925 q 634 948 630 939 q 501 1000 561 966 q 384 1067 440 1034 q 342 1086 364 1087 q 297 1072 319 1084 q 254 1045 275 1061 q 215 1022 233 1029 m 409 1068 q 470 1038 440 1053 q 533 1008 500 1023 q 600 980 565 993 q 678 958 636 967 q 679 948 682 953 q 671 940 676 944 q 661 931 666 936 q 657 920 656 926 q 655 879 654 900 q 654 840 657 859 q 636 806 650 821 q 585 783 621 791 q 584 765 582 774 q 568 756 586 757 q 385 838 478 796 q 195 917 293 880 l 164 1038 q 178 1043 172 1041 q 188 1038 184 1044 q 264 1073 224 1055 q 335 1113 304 1091 l 409 1068 "},"^":{"x_min":11.109375,"x_max":673.671875,"ha":689,"o":"m 69 722 l 22 643 l 80 597 q 82 600 80 601 q 88 596 84 598 q 95 593 91 594 q 104 597 100 593 q 124 614 111 604 q 137 643 137 625 q 103 682 119 659 q 69 722 87 704 m 626 722 q 606 704 618 713 q 584 685 594 695 q 566 661 573 674 q 559 630 559 648 q 587 640 576 630 q 605 663 598 649 q 617 693 612 677 q 626 722 622 709 m 341 881 l 306 824 q 322 819 315 824 q 334 807 329 813 q 345 795 340 801 q 354 790 350 790 q 393 739 370 759 q 440 703 415 719 q 490 673 465 687 q 536 642 515 659 l 559 698 q 510 751 537 728 q 454 794 483 774 q 395 835 425 815 q 341 881 366 855 m 341 1097 q 184 928 255 1019 q 80 733 113 837 l 148 654 q 248 779 208 713 q 330 904 288 844 q 359 891 348 904 q 388 870 370 879 q 484 799 440 844 q 580 709 529 754 l 650 768 q 606 837 633 807 q 548 895 579 868 q 484 950 518 923 q 422 1007 451 977 q 382 1057 397 1033 q 341 1097 368 1080 m 354 1121 q 405 1043 375 1077 q 471 977 436 1008 q 544 917 506 945 q 615 859 581 888 l 673 767 l 626 665 q 624 647 630 652 q 606 639 618 641 q 585 635 595 637 q 570 630 575 634 q 555 618 562 626 q 541 604 548 610 q 527 595 534 598 q 512 597 520 592 l 525 619 q 479 658 504 641 q 429 693 454 676 q 382 728 405 710 q 341 767 359 745 q 318 790 333 777 q 295 812 304 804 q 266 765 283 787 q 233 722 250 742 q 200 683 216 702 q 172 642 184 663 q 170 634 172 638 q 159 619 168 627 l 148 630 q 127 596 140 612 q 113 562 113 580 q 107 557 113 553 q 93 562 101 562 l 93 574 q 86 557 83 564 q 80 551 90 551 q 50 594 72 577 q 11 630 29 612 q 22 663 15 648 q 38 693 30 678 q 51 723 45 708 q 56 756 56 738 l 69 756 q 184 950 111 858 q 354 1121 258 1043 "},"D":{"x_min":21.203125,"x_max":1074.625,"ha":1095,"o":"m 870 127 q 727 50 804 77 q 569 13 650 23 q 407 5 488 2 q 252 16 326 8 q 197 14 219 25 q 158 -14 175 4 q 127 -54 141 -33 q 97 -93 113 -76 q 176 -112 138 -109 q 251 -113 213 -115 q 327 -109 288 -111 q 406 -115 365 -106 q 572 -77 490 -98 q 737 -5 654 -55 q 777 15 754 2 q 820 44 800 27 q 856 81 841 61 q 870 127 870 102 m 473 568 q 491 402 488 484 q 494 237 494 320 q 591 272 544 254 q 670 325 638 291 q 683 348 678 333 q 688 380 688 363 q 683 411 688 397 q 670 434 678 426 q 642 493 662 468 q 596 534 623 518 q 538 559 570 551 q 473 568 506 568 m 494 744 l 473 612 q 538 598 505 612 q 603 568 571 584 q 652 531 628 551 q 694 486 675 511 q 725 432 713 461 q 737 370 737 404 q 748 388 737 383 q 759 391 753 391 q 774 447 767 416 q 781 510 781 479 q 771 568 781 541 q 737 612 762 595 q 674 651 703 629 q 616 694 645 673 q 557 729 587 715 q 494 744 527 744 m 824 545 q 808 427 824 479 q 759 325 792 375 q 679 277 717 300 q 602 237 641 254 q 521 213 563 220 q 429 215 478 206 q 465 391 462 298 q 450 568 467 484 q 431 570 434 568 q 429 590 429 573 q 420 601 415 590 q 429 612 423 607 q 447 688 444 644 q 450 768 450 733 q 456 779 450 776 q 472 783 463 783 q 487 779 480 783 q 494 768 494 776 q 592 742 544 759 q 684 697 641 725 q 764 633 728 670 q 824 545 799 595 m 252 898 q 225 865 235 882 q 206 829 214 848 q 188 790 197 811 q 163 744 179 769 q 124 336 147 545 q 53 -72 101 127 q 83 -38 69 -55 q 110 -5 96 -22 q 142 27 125 11 q 185 61 160 44 q 211 275 202 168 q 226 488 220 383 q 238 696 232 593 q 252 898 243 800 m 340 943 q 304 919 315 934 q 290 885 294 904 q 284 847 286 866 q 273 811 281 827 q 277 625 281 719 q 263 436 272 530 q 250 247 255 341 q 252 61 244 152 q 436 44 343 44 q 621 63 530 44 q 797 119 712 81 q 958 215 883 156 q 1021 292 1008 248 q 1032 384 1034 336 q 1023 479 1030 431 q 1025 568 1016 526 q 883 732 958 651 q 723 871 808 813 q 543 952 638 929 q 340 943 448 976 m 937 744 l 1046 567 q 1058 478 1046 526 q 1073 383 1070 431 q 1064 292 1077 335 q 1000 215 1050 248 q 948 158 967 190 q 913 96 930 127 q 877 37 896 65 q 824 -5 857 10 q 624 -88 725 -55 q 406 -137 523 -121 q 323 -141 364 -137 q 238 -146 281 -144 q 149 -147 195 -148 q 53 -137 103 -146 l 31 -160 q 21 -126 23 -143 q 22 -93 20 -110 q 28 -59 24 -76 q 31 -26 31 -43 q 99 353 80 155 q 119 767 119 551 q 162 819 144 791 q 196 874 180 847 q 230 924 212 901 q 273 965 248 948 l 494 1009 q 619 965 560 992 q 731 901 677 937 q 836 826 785 866 q 937 744 887 785 "},"ÿ":{"x_min":-2.984375,"x_max":971,"ha":981,"o":"m 342 841 q 301 787 316 813 q 272 733 285 761 q 333 737 305 726 q 383 768 360 748 q 427 813 406 788 q 467 859 448 838 q 438 846 454 852 q 405 836 422 840 q 372 834 388 833 q 342 841 356 834 m 308 1019 q 271 962 280 991 q 260 903 262 933 q 258 843 258 873 q 252 787 259 813 q 308 836 294 808 q 321 896 321 865 q 314 959 321 927 q 308 1019 308 991 m 343 1036 l 343 876 q 372 853 356 855 q 407 858 388 851 q 446 875 426 865 q 485 893 465 886 q 492 934 491 913 q 491 976 493 954 q 487 1022 490 998 q 485 1072 485 1045 q 407 1061 444 1072 q 343 1036 370 1050 m 523 1036 q 520 985 523 1008 q 515 941 517 962 q 514 899 513 919 q 523 859 516 879 q 490 832 509 845 q 454 802 471 818 q 427 770 438 787 q 416 733 416 754 q 373 717 396 719 q 327 715 350 715 q 280 713 303 715 q 236 697 257 711 q 234 684 236 684 q 218 697 232 684 q 241 816 232 751 q 236 947 249 880 l 309 1072 q 415 1083 361 1072 q 523 1108 468 1094 q 527 1084 528 1094 q 522 1065 525 1073 q 517 1050 518 1057 q 523 1036 516 1043 m 701 870 q 657 817 673 843 q 629 763 641 791 q 689 768 662 757 q 740 799 716 779 q 784 843 764 819 q 825 888 804 868 q 763 866 798 875 q 701 870 728 858 m 664 1048 q 627 991 636 1020 q 616 932 618 962 q 616 872 615 902 q 611 816 618 843 q 664 866 651 837 q 677 925 677 894 q 670 988 677 957 q 664 1048 664 1020 m 702 1066 l 702 907 q 731 885 714 887 q 765 889 747 883 q 803 906 783 895 q 842 923 822 916 q 850 963 848 943 q 849 1005 851 983 q 844 1051 847 1027 q 842 1102 842 1075 q 765 1091 803 1102 q 702 1066 728 1079 m 878 1066 q 871 970 878 1012 q 878 888 865 929 q 846 862 864 876 q 811 833 828 848 q 782 800 794 818 q 771 763 771 783 q 728 747 751 750 q 682 745 705 745 q 635 743 658 745 q 591 727 612 741 q 589 713 591 713 q 575 727 587 713 q 597 845 587 782 q 591 976 607 909 l 664 1102 q 771 1113 718 1102 q 878 1139 825 1125 q 883 1114 884 1125 q 878 1095 882 1104 q 873 1079 875 1087 q 878 1066 871 1072 m 83 -611 q 121 -607 98 -611 q 169 -600 144 -604 q 221 -593 195 -597 q 271 -590 248 -590 q 324 -554 302 -572 q 377 -504 345 -536 q 292 -512 337 -512 q 206 -517 248 -511 q 131 -543 165 -523 q 83 -611 98 -564 m 334 -16 l 230 -80 q 188 -208 213 -144 q 138 -335 163 -272 q 90 -462 112 -398 q 59 -590 67 -526 q 95 -527 77 -557 q 145 -483 113 -498 l 230 -272 q 290 -145 262 -208 q 334 -16 319 -82 m 124 595 q 96 531 99 563 q 102 466 94 500 q 124 397 110 433 q 145 320 137 361 q 179 237 169 280 q 195 148 189 194 q 207 55 201 102 q 230 -38 213 8 l 356 24 l 292 87 q 260 224 284 159 q 208 350 235 288 q 157 472 181 412 q 124 595 133 533 m 696 680 q 622 625 649 656 q 574 561 595 594 q 535 493 554 527 q 484 427 515 458 q 487 408 484 419 q 497 386 490 397 q 511 369 503 376 q 527 362 518 362 q 553 443 535 402 q 595 522 571 483 q 646 602 620 562 q 696 680 672 641 m 780 701 q 705 609 740 654 q 641 519 671 565 q 587 425 611 473 q 547 320 564 376 q 535 305 539 312 q 526 294 531 298 q 518 290 522 290 q 506 300 514 291 q 479 372 497 340 q 441 435 461 405 q 404 493 421 465 q 378 554 386 522 q 338 620 361 601 q 288 648 315 640 q 230 660 261 656 q 167 680 199 663 q 149 647 152 663 q 146 616 146 631 q 171 550 161 584 q 190 479 181 515 q 214 409 200 444 q 253 341 228 373 q 293 255 275 301 q 327 163 310 209 q 367 76 345 118 q 421 4 389 34 q 363 -95 389 -44 q 314 -195 338 -145 q 265 -291 290 -244 q 210 -377 240 -338 q 206 -409 210 -393 q 201 -438 203 -425 q 200 -463 199 -452 q 210 -483 202 -475 l 421 -462 q 440 -417 429 -437 q 460 -377 450 -397 q 477 -336 470 -356 q 484 -293 484 -316 q 576 -55 531 -173 q 668 177 621 62 q 768 403 715 293 q 885 616 821 513 q 871 650 885 640 q 840 666 858 661 q 805 678 822 672 q 780 701 789 684 m 971 680 q 939 620 955 648 q 908 576 923 591 q 775 318 836 448 q 660 56 713 187 q 558 -205 606 -75 q 462 -462 509 -336 q 456 -483 462 -477 q 441 -491 449 -489 q 426 -494 433 -493 q 420 -504 420 -496 q 279 -616 355 -584 q 124 -632 203 -647 q 101 -632 116 -632 q 71 -634 87 -632 q 40 -640 55 -636 q 17 -653 26 -644 l -2 -653 q 37 -510 12 -582 q 92 -367 63 -439 q 146 -224 120 -295 q 187 -80 172 -152 q 182 -49 172 -65 q 209 -16 192 -33 q 178 54 185 13 q 164 139 170 95 q 146 225 158 183 q 103 299 134 268 l 59 533 q 78 568 67 550 q 98 609 90 587 q 109 654 106 630 q 103 701 112 677 q 151 706 127 709 q 198 698 174 704 q 245 686 222 693 q 292 680 269 680 l 334 680 q 372 629 358 656 q 398 572 385 601 q 424 511 410 543 q 462 448 438 480 q 494 493 479 472 q 523 535 509 513 q 549 581 537 556 q 569 637 561 605 l 737 722 q 747 725 741 722 q 758 744 758 730 q 856 696 807 712 q 971 680 905 680 "},"í":{"x_min":-104.171875,"x_max":440.40625,"ha":464,"o":"m 331 1302 q 251 1275 290 1293 q 174 1236 212 1257 q 97 1198 136 1216 q 16 1169 58 1179 q 9 1143 15 1154 q -2 1122 2 1132 q -11 1102 -8 1112 q -8 1077 -13 1091 q 177 1152 86 1116 q 351 1207 268 1187 q 379 1282 366 1245 q 394 1351 391 1318 q 381 1336 390 1341 q 363 1326 373 1330 q 344 1317 352 1322 q 331 1302 336 1312 m -41 1311 q -56 1255 -54 1283 q -54 1200 -58 1227 q -44 1145 -51 1173 q -31 1087 -37 1116 l 0 1162 l -26 1173 q -11 1205 -9 1187 q -19 1241 -12 1223 q -34 1277 -26 1259 q -41 1311 -43 1295 m 223 1465 q 153 1447 184 1464 q 90 1411 122 1430 q 27 1377 59 1391 q -47 1369 -5 1364 l 16 1212 q 36 1218 26 1216 q 51 1218 43 1219 q 62 1211 59 1218 q 136 1259 95 1240 q 218 1296 177 1279 q 297 1332 259 1314 q 362 1376 334 1350 q 380 1411 379 1391 q 375 1450 381 1430 q 358 1492 369 1470 q 338 1533 347 1514 q 286 1501 311 1522 q 223 1465 262 1480 m 372 1547 l 406 1418 q 436 1411 426 1409 q 433 1407 445 1412 q 410 1306 422 1357 q 376 1200 398 1255 q 177 1129 277 1172 q -9 1037 77 1087 q -17 1025 -13 1027 q -25 1022 -20 1022 q -34 1023 -29 1022 q -45 1022 -38 1025 l -104 1263 q -71 1301 -79 1275 q -56 1347 -63 1327 q -81 1364 -76 1354 q -72 1380 -86 1375 q -9 1395 -43 1384 q 56 1419 23 1405 q 119 1450 88 1433 q 173 1484 150 1466 q 231 1491 208 1476 q 276 1525 255 1507 q 319 1554 297 1544 q 372 1547 341 1565 m 160 -31 q 138 -68 143 -48 q 115 -120 132 -88 q 172 -110 140 -112 q 232 -102 203 -108 q 284 -80 261 -95 q 315 -31 307 -65 l 160 -31 m 115 548 l 69 481 q 89 347 86 415 q 90 213 92 280 q 85 79 88 147 q 92 -54 83 12 q 112 -34 100 -45 q 134 -9 124 -22 q 152 14 145 2 q 160 34 160 26 q 138 300 143 169 q 115 548 132 430 m 205 526 q 191 529 196 526 q 182 537 186 533 q 173 545 178 541 q 160 548 168 548 q 170 431 168 490 q 173 314 171 373 q 182 196 175 255 q 205 79 188 137 q 214 62 213 70 q 212 45 214 54 q 207 29 210 37 q 205 12 205 20 q 241 9 221 12 q 282 3 261 5 q 324 2 303 1 q 361 12 345 4 q 328 140 336 70 q 316 284 320 211 q 304 430 311 356 q 271 570 296 504 q 242 560 255 562 q 221 556 230 558 q 209 548 213 554 q 205 526 205 543 m 293 616 l 315 594 q 336 437 332 519 q 346 275 340 355 q 369 122 353 195 q 428 -9 386 48 q 424 -19 428 -18 q 413 -20 419 -20 q 399 -22 407 -20 q 382 -31 390 -23 q 359 -49 374 -40 q 330 -71 344 -58 q 304 -102 315 -84 q 293 -144 293 -119 q 290 -150 293 -152 q 282 -141 286 -148 q 271 -120 276 -134 l 92 -144 q 69 -99 75 -126 q 49 -54 64 -72 q 54 79 49 12 q 62 211 60 145 q 57 338 64 276 q 25 459 50 401 q 55 509 42 484 q 84 554 69 533 q 117 592 99 576 q 160 616 135 608 q 183 604 168 608 q 217 600 199 600 q 256 604 236 600 q 293 616 276 608 m 226 795 l 138 772 l 92 705 q 144 707 125 697 q 176 733 164 716 q 199 768 189 750 q 226 795 210 787 m 69 929 q 38 879 44 904 q 34 829 32 854 q 42 779 36 804 q 49 729 49 754 q 74 769 65 745 q 84 820 82 793 q 82 875 86 847 q 69 929 78 904 m 226 995 l 159 995 q 134 971 143 987 q 122 936 125 955 q 125 898 120 918 q 137 862 129 879 q 156 848 154 862 q 159 818 159 834 q 226 829 209 809 q 243 881 243 850 q 234 945 243 912 q 226 995 226 979 m 271 1019 q 281 969 280 994 q 282 921 282 944 q 284 877 282 898 q 293 840 285 857 q 270 806 285 823 q 240 770 255 788 q 215 729 225 751 q 205 683 205 708 q 164 676 188 675 q 117 677 140 677 q 76 670 94 677 q 48 637 57 662 q 25 661 32 645 q 17 694 19 677 q 13 726 15 711 q 3 750 11 741 l 3 884 q 22 904 11 893 q 42 931 33 916 q 53 962 50 945 q 48 995 57 979 q 102 1018 74 1012 q 160 1027 131 1025 q 218 1031 189 1029 q 271 1041 246 1033 l 271 1019 "},"ˆ":{"x_min":155.5625,"x_max":993.140625,"ha":1157,"o":"m 216 1035 l 225 1035 q 233 1039 229 1039 q 238 1033 238 1039 q 234 1025 238 1029 l 320 1015 q 330 1035 323 1026 q 345 1053 337 1044 q 359 1068 352 1061 q 365 1083 365 1075 q 329 1095 348 1095 q 299 1088 313 1095 q 270 1072 284 1082 q 243 1053 256 1062 q 216 1035 230 1043 m 862 1129 q 850 1104 859 1113 q 829 1087 840 1095 q 806 1069 818 1079 q 786 1045 794 1059 l 882 1073 q 900 1098 888 1087 q 921 1120 911 1109 q 939 1141 932 1130 q 947 1166 947 1152 q 904 1155 926 1166 q 862 1129 883 1144 m 600 1241 q 597 1239 598 1241 q 594 1238 595 1238 q 571 1222 581 1230 q 554 1203 561 1214 q 637 1123 595 1167 q 720 1052 679 1080 q 745 1043 734 1043 q 765 1050 757 1043 q 781 1068 773 1058 q 797 1088 788 1078 q 816 1101 805 1098 q 712 1181 768 1142 q 600 1241 657 1220 m 525 1417 l 430 1362 q 316 1219 373 1291 q 216 1062 258 1148 q 239 1081 230 1070 q 262 1101 248 1092 q 313 1186 280 1146 q 384 1263 345 1226 q 459 1338 422 1301 q 525 1417 497 1376 m 562 1429 q 497 1350 534 1386 q 422 1278 461 1314 q 350 1203 384 1242 q 290 1118 315 1164 q 341 1109 318 1118 q 393 1101 365 1101 q 415 1111 402 1111 q 430 1101 426 1111 q 502 1188 466 1143 q 581 1269 538 1233 l 609 1279 q 660 1246 634 1261 q 711 1216 686 1232 q 761 1182 737 1200 q 807 1138 786 1164 q 877 1166 843 1145 q 947 1194 911 1187 q 900 1222 926 1215 q 854 1250 875 1229 q 787 1287 818 1264 q 727 1334 757 1310 q 669 1381 698 1358 q 609 1418 640 1404 q 595 1408 601 1408 q 580 1419 587 1408 q 562 1429 573 1429 m 600 1445 q 685 1401 645 1428 q 763 1343 725 1373 q 842 1282 802 1312 q 927 1232 882 1253 q 956 1218 943 1232 q 980 1204 969 1204 q 993 1214 987 1204 q 970 1149 993 1182 q 920 1086 947 1116 l 909 1073 q 913 1066 911 1071 q 919 1053 919 1058 q 839 1034 876 1047 q 758 1008 802 1020 q 722 1023 737 1008 q 686 1053 707 1038 q 610 1124 650 1089 q 534 1194 570 1159 q 504 1159 518 1180 q 475 1120 490 1139 q 441 1087 459 1101 q 393 1073 422 1073 q 372 1050 381 1065 q 355 1022 363 1036 q 336 997 347 1008 q 311 987 326 987 q 281 997 297 987 q 239 1007 261 997 q 194 1017 218 1017 q 158 1008 176 1017 q 155 1012 155 1008 q 156 1022 155 1016 q 158 1034 158 1028 q 210 1117 180 1077 q 272 1198 240 1158 q 336 1279 305 1238 q 393 1362 368 1320 l 554 1455 q 558 1453 555 1453 q 580 1462 568 1453 q 600 1472 593 1472 q 604 1465 604 1472 q 600 1445 604 1459 "},"w":{"x_min":13.171875,"x_max":1271.5625,"ha":1281,"o":"m 461 -6 q 374 -18 417 -6 q 303 -46 332 -31 q 273 -78 286 -63 q 260 -108 260 -93 l 383 -88 l 461 -6 m 847 13 q 807 4 823 13 q 780 -20 791 -5 q 761 -54 769 -36 q 745 -87 752 -72 q 827 -62 783 -63 q 912 -59 870 -61 q 989 -44 954 -56 q 1047 13 1025 -31 q 1002 22 1025 22 q 955 21 980 23 q 904 16 930 19 q 847 13 877 13 m 624 236 q 619 221 617 229 q 627 206 621 213 q 639 192 633 200 q 646 176 646 184 q 643 158 646 161 q 624 155 640 155 q 630 94 624 125 q 647 34 637 63 q 667 -26 657 4 q 686 -87 678 -56 q 708 -69 700 -80 q 722 -46 717 -58 q 733 -23 728 -34 q 746 -5 737 -12 q 729 56 737 23 q 708 122 721 90 q 674 184 694 154 q 624 236 654 213 m 38 437 q 100 304 68 369 q 160 172 133 238 q 204 37 187 106 q 222 -108 222 -31 q 236 -86 229 -100 q 250 -56 243 -72 q 264 -26 256 -40 q 280 -5 272 -12 l 259 94 q 213 206 230 147 q 185 327 197 266 q 164 447 173 387 q 140 559 155 506 q 81 514 108 544 q 38 437 55 484 m 524 641 q 521 633 524 634 q 514 632 518 632 q 507 630 510 632 q 504 622 504 629 q 471 586 487 605 q 442 547 454 568 q 429 504 430 526 q 443 459 428 481 q 460 507 450 481 q 483 557 471 533 q 505 604 494 581 q 524 641 517 626 m 584 680 q 545 616 561 649 q 514 547 529 583 q 482 473 499 510 q 443 397 465 435 q 398 453 412 420 q 375 522 385 485 q 355 594 365 558 q 321 660 344 630 q 284 628 305 637 q 240 615 262 619 q 196 610 218 612 q 161 599 175 608 q 188 476 176 540 q 200 337 200 412 q 218 251 200 291 q 260 172 237 212 q 302 90 283 133 q 321 -5 321 47 q 355 15 336 9 q 394 24 373 20 q 437 33 415 27 q 483 54 459 38 q 505 115 491 84 q 536 175 519 145 q 571 235 553 205 q 604 297 589 266 l 624 297 q 678 244 654 273 q 718 182 701 215 q 746 117 735 149 q 765 54 758 84 l 808 73 l 808 35 q 880 54 846 49 q 948 59 914 59 q 1017 56 982 59 q 1089 54 1051 54 q 1129 193 1112 122 q 1161 337 1146 265 q 1192 481 1176 409 q 1231 622 1208 552 q 1122 641 1171 637 q 1029 660 1074 645 q 950 526 982 598 q 887 377 918 454 l 867 377 q 819 453 844 415 q 767 529 793 491 q 714 604 740 566 q 665 680 687 642 q 641 677 650 680 q 624 672 632 674 q 608 672 617 670 q 584 680 599 673 m 686 700 q 763 570 715 641 q 888 437 811 499 q 912 486 903 460 q 928 539 921 512 q 943 591 935 566 q 967 641 952 617 q 927 614 938 634 q 908 571 915 593 q 889 528 900 548 q 847 499 878 507 q 854 528 847 513 q 870 559 860 543 q 890 589 879 574 q 907 621 900 605 l 1010 700 q 1061 677 1032 685 q 1122 665 1090 669 q 1188 661 1154 662 q 1250 660 1221 660 l 1271 660 q 1190 329 1224 492 q 1109 13 1156 166 q 1063 -19 1085 -1 q 1018 -51 1040 -36 q 973 -77 996 -67 q 928 -88 950 -88 q 806 -109 867 -88 q 686 -147 746 -131 q 668 -126 671 -131 q 665 -108 665 -121 l 686 -108 l 665 -88 q 645 -23 659 -57 q 617 46 631 10 q 593 120 603 82 q 584 196 584 157 l 583 216 q 537 127 554 170 q 504 53 519 84 q 517 27 519 38 q 505 6 515 16 q 482 -10 496 -3 q 461 -25 469 -18 q 434 -65 446 -42 q 407 -106 422 -88 q 371 -133 391 -125 q 320 -125 351 -140 q 298 -135 314 -133 q 265 -141 282 -138 q 235 -154 248 -144 q 222 -188 222 -164 q 202 -185 205 -188 q 200 -167 200 -182 q 186 -31 200 -99 q 151 102 172 35 q 106 232 130 168 q 61 357 81 296 q 42 383 52 371 q 24 407 31 395 q 13 431 16 418 q 19 459 11 443 q 31 489 26 474 q 41 516 36 503 q 54 540 47 530 q 77 559 62 550 q 76 582 70 574 q 91 597 81 591 q 109 608 101 603 q 118 621 118 613 q 167 625 141 621 q 218 639 193 630 q 264 663 243 648 q 302 700 286 678 q 347 661 332 685 q 362 621 362 637 q 375 602 371 613 q 383 579 379 591 q 392 557 387 567 q 403 538 396 546 q 430 571 418 553 q 443 621 443 589 q 474 648 458 628 q 506 684 489 667 q 542 708 522 700 q 584 700 561 716 l 686 700 "},"$":{"x_min":48.609375,"x_max":718.25,"ha":925,"o":"m 386 -368 l 448 -368 q 464 -369 452 -368 q 486 -373 475 -370 q 514 -377 500 -376 l 555 -313 q 518 -319 534 -316 q 489 -322 502 -322 q 470 -323 475 -323 l 418 -323 l 386 -368 m 364 -230 q 358 -259 360 -238 q 356 -301 357 -279 q 354 -355 354 -326 l 408 -293 l 408 -251 l 408 -208 l 408 -136 q 396 -146 403 -136 q 381 -171 388 -156 q 368 -202 373 -186 q 364 -230 364 -218 m 439 -102 q 430 -178 432 -143 q 429 -261 429 -213 l 448 -270 l 429 -305 q 460 -311 444 -312 q 491 -304 476 -309 q 519 -293 505 -300 q 546 -283 533 -287 q 546 -234 546 -259 q 546 -184 547 -209 q 541 -136 546 -159 q 523 -93 536 -112 q 481 -97 500 -93 q 439 -102 462 -102 m 545 -70 q 543 -93 541 -83 q 551 -111 545 -102 q 561 -129 556 -120 q 566 -145 566 -137 q 571 -186 570 -165 q 572 -229 572 -208 q 576 -269 573 -250 q 586 -305 579 -288 q 573 -326 581 -316 q 556 -345 565 -336 q 540 -366 547 -355 q 533 -388 533 -376 q 496 -391 518 -395 q 448 -377 475 -386 q 387 -391 418 -386 q 333 -388 356 -395 q 338 -313 341 -352 q 336 -238 336 -275 q 348 -170 337 -202 q 395 -113 359 -137 q 406 -91 395 -97 q 431 -84 416 -86 q 463 -80 447 -81 q 493 -70 480 -79 q 518 -59 500 -63 q 545 -70 536 -55 m 133 108 q 104 95 116 108 q 91 66 91 81 l 186 -8 q 248 -37 214 -25 q 318 -54 283 -50 q 387 -50 354 -58 q 448 -18 420 -43 q 315 8 377 -18 q 195 66 252 34 q 156 79 172 66 q 133 108 140 91 m 133 151 l 176 223 l 123 138 l 133 151 m 164 752 q 136 703 149 729 q 124 645 124 677 q 178 538 139 579 q 269 468 218 497 q 373 416 319 440 q 471 361 426 393 q 502 298 487 330 q 524 236 517 266 q 548 257 540 243 q 556 288 556 272 q 537 345 549 320 q 501 393 525 369 q 447 449 478 429 q 382 481 417 469 q 310 500 347 493 q 239 520 274 508 q 198 573 215 544 q 170 633 180 602 q 158 694 160 663 q 164 752 155 725 m 363 773 q 352 747 356 766 q 354 711 347 727 q 393 745 370 734 q 438 763 415 755 q 466 764 451 768 q 494 760 480 761 q 518 766 508 759 q 533 795 529 772 q 495 805 518 800 q 450 811 473 811 q 403 804 426 812 q 363 773 380 797 m 418 965 q 355 952 386 965 q 301 933 325 940 q 243 884 265 913 q 208 820 220 855 q 190 746 195 786 q 186 668 186 707 q 212 588 186 616 q 276 543 238 559 q 355 519 313 527 q 429 498 397 511 q 506 429 469 458 q 576 361 544 401 q 580 330 576 345 q 588 300 584 315 q 590 270 591 284 q 576 245 588 256 q 550 212 565 225 q 518 192 534 200 q 483 179 501 184 q 448 170 465 175 q 391 165 420 166 q 331 172 361 165 q 274 197 301 180 q 226 245 247 213 q 208 214 219 230 q 187 182 197 198 q 170 150 177 166 q 163 119 163 134 q 243 68 204 94 q 323 36 283 43 q 477 11 402 2 q 608 76 551 19 q 662 148 643 108 q 688 233 682 188 q 693 324 695 277 q 683 413 690 370 q 661 479 675 445 q 629 543 648 513 q 581 595 609 573 q 513 626 552 618 q 415 638 465 618 q 333 698 365 658 q 320 729 320 715 q 324 757 319 744 q 337 781 329 769 q 354 805 345 793 q 403 835 377 829 q 455 840 429 841 q 506 833 481 838 q 555 827 531 827 q 571 888 563 858 q 586 943 579 919 q 555 945 570 950 q 523 933 540 940 l 461 965 q 450 961 456 965 q 438 956 444 958 q 427 955 433 954 q 418 965 422 957 m 363 986 q 425 996 397 986 q 470 1038 454 1007 q 435 1036 451 1043 q 406 1019 419 1029 q 382 1000 393 1009 q 363 986 372 990 m 395 1227 q 359 1181 368 1208 q 350 1123 351 1154 q 351 1060 350 1093 q 345 995 352 1027 q 382 1036 372 1012 q 393 1087 391 1061 q 390 1140 394 1113 q 386 1186 386 1166 q 391 1202 393 1193 q 395 1218 389 1211 l 395 1227 m 429 1250 q 420 1240 420 1245 q 420 1229 419 1234 q 421 1218 420 1223 q 418 1208 422 1212 q 409 1133 410 1168 q 408 1058 408 1098 l 483 1070 q 499 1141 497 1102 q 501 1227 501 1180 q 470 1247 487 1244 q 429 1250 452 1250 m 523 1218 q 519 1153 519 1186 q 515 1090 519 1120 q 499 1032 511 1059 q 461 986 487 1005 q 496 960 476 961 q 538 964 516 959 q 581 970 561 969 q 618 952 602 972 q 601 899 605 929 q 590 839 597 869 q 569 784 583 809 q 523 743 555 758 q 520 724 523 726 q 510 725 516 722 q 497 732 504 727 q 483 733 490 737 q 425 727 450 740 q 376 698 400 715 q 378 680 372 687 q 395 668 384 673 q 418 659 405 663 q 438 645 430 654 q 503 641 470 645 q 566 625 536 637 q 620 593 595 613 q 661 541 644 573 q 699 437 684 493 q 717 325 713 381 q 709 211 720 268 q 670 108 698 155 q 626 56 651 76 q 573 22 601 37 q 516 -5 545 8 q 461 -38 487 -19 q 377 -72 420 -66 q 291 -71 334 -79 q 208 -45 248 -63 q 133 -8 168 -27 q 86 31 109 8 q 48 86 63 54 q 62 104 55 95 q 69 129 69 113 q 104 163 90 144 q 133 203 119 183 q 161 242 147 223 q 195 276 176 261 q 236 275 220 284 q 264 250 251 266 q 290 217 277 234 q 323 191 304 200 q 366 187 343 188 q 411 188 388 186 q 455 196 434 190 q 493 213 476 202 q 493 250 495 233 q 484 281 490 266 q 471 310 477 295 q 461 341 465 325 q 391 384 429 368 q 313 416 352 401 q 238 448 275 430 q 176 498 202 466 q 143 544 159 522 q 114 589 126 566 q 97 636 102 612 q 101 688 93 661 q 136 769 116 729 q 182 846 156 809 q 240 913 208 883 q 311 965 272 944 q 322 1057 320 1012 q 323 1143 323 1102 q 333 1167 323 1155 q 353 1192 343 1179 q 372 1220 363 1205 q 376 1250 380 1234 q 435 1270 400 1265 q 501 1259 470 1275 l 523 1218 "},"\\":{"x_min":0,"x_max":1161.203125,"ha":1157,"o":"m 1022 -105 q 962 -116 993 -116 q 902 -112 932 -116 q 844 -104 872 -108 q 793 -104 816 -101 q 750 -124 769 -108 q 720 -175 732 -140 q 772 -168 747 -166 q 825 -177 798 -170 q 877 -191 851 -184 q 927 -198 902 -198 l 1022 -105 m 116 1102 q 88 1077 98 1094 q 72 1041 79 1061 q 61 1001 66 1022 q 47 962 55 980 q 172 718 118 840 q 279 475 226 597 q 464 150 366 318 q 650 -175 562 -18 q 678 -163 668 -175 q 697 -137 688 -152 q 716 -106 705 -122 q 743 -81 726 -90 q 729 -11 743 -45 q 697 56 715 22 q 507 338 591 197 q 370 637 423 480 q 299 748 327 688 q 244 869 270 808 q 188 990 218 930 q 116 1102 159 1050 m 140 1150 q 181 1066 156 1105 q 229 986 205 1026 q 273 907 254 947 q 301 823 293 866 q 360 728 336 779 q 406 625 384 677 q 452 522 427 573 q 511 429 476 472 q 563 310 527 368 q 641 193 600 252 q 723 72 683 134 q 790 -58 763 11 l 790 -34 q 822 -29 808 -18 q 837 -58 837 -40 q 888 -68 862 -66 q 943 -70 915 -70 q 1002 -72 970 -70 q 1068 -81 1033 -73 q 1041 -43 1051 -63 q 1022 -4 1030 -23 q 1003 31 1013 15 q 975 56 993 48 q 932 171 957 118 q 882 277 908 225 q 832 384 857 330 q 790 498 808 437 q 696 645 737 568 q 618 800 655 722 q 543 956 580 879 q 463 1102 506 1033 q 310 1126 393 1120 q 140 1150 227 1132 m 556 1126 l 556 1102 l 511 1102 l 511 1079 q 587 936 554 1009 q 653 791 620 862 q 723 650 686 719 q 813 522 761 582 q 931 257 865 382 q 1068 11 997 133 q 1079 -35 1068 -6 q 1091 -81 1091 -63 l 1115 -58 q 1129 -73 1122 -66 q 1143 -88 1136 -80 q 1161 -105 1151 -97 q 1144 -111 1152 -113 q 1129 -107 1136 -109 q 1119 -108 1123 -105 q 1115 -127 1115 -111 q 1070 -126 1088 -119 q 1036 -146 1051 -133 q 1007 -174 1020 -159 q 975 -198 993 -190 q 995 -208 983 -206 q 1016 -209 1007 -209 q 1027 -211 1025 -209 q 1022 -220 1030 -212 q 1001 -227 1013 -229 q 975 -220 988 -224 q 948 -214 961 -216 q 927 -220 936 -212 q 847 -217 893 -220 q 766 -198 802 -215 q 702 -215 732 -198 q 673 -268 673 -231 q 650 -260 657 -268 q 642 -241 644 -252 q 638 -218 640 -230 q 627 -198 636 -206 q 450 127 540 -40 q 255 452 359 294 q 136 716 202 591 q 0 962 70 840 q 24 1015 8 989 q 58 1068 40 1041 q 92 1120 76 1094 q 116 1172 108 1146 q 130 1175 125 1172 q 143 1180 136 1177 q 159 1181 150 1182 q 186 1172 169 1180 q 276 1159 229 1164 q 371 1150 323 1154 q 466 1140 419 1146 q 556 1126 512 1134 "},"Ì":{"x_min":-32.046875,"x_max":614.234375,"ha":586,"o":"m 233 -19 q 186 -43 208 -27 q 150 -78 165 -59 q 126 -118 134 -98 q 118 -155 118 -138 q 190 -167 154 -155 q 280 -179 227 -179 q 323 -150 305 -170 q 356 -107 341 -130 q 386 -60 372 -84 q 416 -19 400 -35 l 233 -19 m 233 896 q 160 765 181 836 q 130 618 138 693 q 117 468 122 543 q 97 325 113 393 q 87 219 88 274 q 87 108 85 164 q 93 -3 90 51 q 97 -110 97 -59 l 187 4 q 173 69 170 37 q 210 118 176 101 q 207 148 202 135 q 216 170 212 161 q 217 183 220 179 q 187 188 213 188 q 210 362 203 272 q 218 542 216 451 q 222 721 220 632 q 233 896 224 810 m 256 965 q 250 780 248 871 q 253 601 251 689 q 253 428 255 514 q 233 255 251 341 q 256 253 251 255 q 280 232 262 250 q 247 153 262 198 q 233 72 233 107 l 211 72 l 211 28 l 462 28 q 468 223 470 121 q 462 430 466 325 q 456 641 458 534 q 462 851 454 747 q 468 912 473 891 q 445 941 462 933 q 402 950 427 950 q 350 950 377 951 q 298 952 323 950 q 256 965 273 954 m 508 987 q 513 974 516 979 q 504 965 510 969 q 491 955 498 961 q 484 941 484 950 q 488 691 484 812 q 496 452 491 570 q 504 218 501 334 q 508 -19 508 101 q 490 -35 499 -36 q 473 -30 481 -34 q 456 -25 465 -26 q 440 -41 448 -24 l 301 -225 q 244 -203 267 -206 q 187 -201 222 -201 q 153 -194 170 -201 q 122 -186 137 -188 q 94 -191 106 -184 q 73 -225 81 -198 q 51 -186 56 -208 q 45 -141 45 -165 q 48 -93 45 -118 q 51 -41 51 -68 q 48 91 42 26 q 64 218 53 156 q 86 341 76 280 q 97 461 97 401 l 117 827 q 158 865 144 844 q 184 907 173 886 q 206 950 195 929 q 233 987 216 970 q 301 991 267 995 q 370 979 335 986 q 439 971 405 972 q 508 987 473 970 m 490 1120 q 536 1138 524 1123 q 549 1174 548 1153 q 549 1217 551 1194 q 555 1256 547 1240 q 520 1231 537 1245 q 491 1200 502 1217 q 479 1163 480 1183 q 490 1120 477 1142 m 15 1435 q 15 1363 12 1398 q 42 1306 17 1328 l 438 1074 q 455 1099 455 1084 q 449 1133 455 1115 q 437 1169 442 1151 q 440 1205 431 1188 q 327 1256 383 1231 q 218 1307 272 1280 q 113 1365 165 1334 q 15 1435 62 1397 m 31 1462 q 247 1328 136 1388 q 481 1244 359 1267 q 498 1264 487 1253 q 521 1286 509 1274 q 542 1310 533 1298 q 555 1337 551 1323 q 389 1424 465 1367 q 242 1538 313 1481 q 190 1569 217 1572 q 134 1547 162 1566 q 80 1501 106 1527 q 31 1462 54 1474 m 274 1540 q 351 1489 313 1515 q 429 1438 388 1463 q 513 1392 469 1413 q 611 1353 558 1370 q 612 1338 616 1345 q 602 1324 608 1331 q 589 1309 595 1317 q 584 1290 583 1301 q 582 1221 580 1256 q 580 1155 584 1187 q 558 1099 576 1124 q 494 1059 540 1073 q 493 1030 491 1044 q 473 1015 495 1016 q 245 1152 361 1081 q 6 1285 129 1223 l -32 1488 q -14 1496 -22 1494 q -1 1490 -7 1499 q 92 1548 42 1517 q 181 1615 142 1578 l 274 1540 "},"µ":{"x_min":28,"x_max":1177,"ha":1198,"o":"m 544 72 q 559 70 551 72 q 576 68 568 68 q 590 72 584 68 l 587 72 q 584 75 584 72 q 590 83 584 78 q 567 76 576 83 q 551 70 558 70 q 544 72 547 70 m 726 388 q 696 379 715 381 q 659 373 677 376 q 627 363 641 370 q 613 341 613 356 q 624 311 613 330 q 641 316 632 311 q 659 322 649 322 q 682 335 671 326 q 702 354 692 344 q 720 375 712 365 q 737 388 729 384 l 726 388 m 578 762 q 577 750 577 755 q 577 737 577 744 q 582 690 577 712 q 595 645 588 668 q 607 598 601 622 q 613 548 613 575 l 624 548 q 666 566 655 552 q 677 600 677 580 q 668 650 677 623 q 660 695 660 676 q 623 734 641 713 q 578 762 605 754 m 567 820 q 572 802 567 811 q 578 786 578 794 l 589 786 q 669 712 642 759 q 704 604 696 665 q 724 665 724 629 q 708 740 724 701 q 681 808 693 779 q 654 829 672 823 q 617 836 637 836 q 567 820 582 836 m 715 808 q 739 745 726 777 q 753 682 753 713 q 749 654 753 668 q 737 627 746 640 q 730 601 737 612 q 714 580 723 590 q 698 560 705 570 q 691 537 691 550 q 693 526 691 530 q 677 533 684 526 q 671 548 671 540 q 615 522 644 522 q 590 526 604 522 q 564 663 573 594 q 544 808 554 732 q 533 814 536 808 q 522 820 530 820 q 563 851 539 840 q 614 862 587 862 q 670 849 643 862 q 715 808 697 836 m 409 877 q 368 817 383 851 q 354 741 354 783 q 380 580 370 661 q 397 418 390 499 q 411 256 404 337 q 431 95 419 176 q 446 81 437 85 q 466 77 455 77 q 489 84 482 77 q 490 105 489 92 q 492 129 492 117 q 489 149 492 140 q 478 163 486 159 l 409 877 m 217 944 q 172 885 198 913 q 123 827 147 856 q 83 765 99 798 q 68 693 68 732 q 68 677 68 686 q 70 661 69 669 q 64 542 68 602 q 60 421 60 482 q 64 321 60 371 q 82 225 69 271 q 116 138 94 179 q 172 63 137 97 q 264 -17 215 10 q 364 -61 314 -45 q 384 -60 375 -60 q 405 -60 394 -60 q 522 -66 464 -60 q 637 -73 580 -73 q 763 -55 704 -73 q 875 16 823 -38 q 727 -23 804 -8 q 570 -38 651 -38 q 455 -30 513 -38 q 301 58 366 0 q 195 191 237 117 q 134 349 153 266 q 115 514 115 432 q 144 737 115 634 q 217 944 174 841 m 579 965 q 535 956 558 961 q 493 944 512 952 q 456 922 473 936 q 431 888 440 909 q 470 540 449 716 q 500 185 491 365 q 515 158 506 172 q 524 126 524 144 q 521 108 524 115 l 613 119 l 613 185 q 608 228 613 206 q 598 271 603 249 q 588 313 593 292 q 584 354 584 334 q 589 388 584 373 q 665 417 621 409 q 749 438 709 426 q 815 473 788 451 q 843 544 843 495 q 842 557 843 551 q 840 570 841 563 q 861 681 861 626 q 835 804 861 747 q 761 909 809 862 q 687 949 724 931 q 608 968 649 968 q 593 967 601 968 q 579 965 586 966 m 635 1024 q 589 1029 613 1026 q 541 1032 565 1032 q 463 1020 501 1032 q 398 977 426 1009 q 391 968 398 968 q 386 977 386 968 l 363 944 q 316 842 341 893 q 270 740 291 791 q 235 634 249 688 q 222 522 222 580 q 224 483 222 502 q 229 445 226 465 q 242 344 233 395 q 272 245 252 292 q 326 159 292 198 q 409 95 359 120 l 363 559 q 343 668 357 611 q 330 786 330 726 l 420 933 q 496 974 455 956 q 590 1000 538 991 q 674 987 633 1000 q 752 952 716 975 q 818 895 788 929 q 864 820 847 862 q 889 759 882 791 q 896 694 896 727 q 881 582 896 638 q 850 474 866 526 l 840 445 q 788 408 811 433 q 742 359 765 384 q 694 316 719 334 q 636 298 669 298 q 630 284 630 293 q 633 268 630 276 q 636 254 636 259 q 642 200 636 230 q 649 142 649 170 q 639 99 649 119 q 601 73 629 80 q 781 108 696 81 q 942 186 865 136 q 937 204 942 197 q 932 219 932 212 q 942 230 932 224 l 965 230 q 997 420 979 326 q 1016 609 1016 513 q 1014 658 1016 633 q 1008 706 1012 683 q 944 815 983 762 q 856 911 905 868 q 751 985 808 955 q 635 1024 695 1015 m 930 965 q 783 1040 865 1012 q 609 1068 700 1068 q 554 1065 581 1068 q 499 1057 527 1063 q 561 1061 529 1061 q 705 1035 637 1061 q 833 965 773 1009 q 944 864 894 922 q 1033 741 994 806 q 1045 683 1042 712 q 1049 627 1049 655 q 1042 539 1049 583 q 1029 451 1036 495 q 1015 364 1021 408 q 1009 276 1009 320 q 1032 350 1018 313 q 1058 424 1046 387 q 1080 501 1071 462 q 1089 581 1089 540 q 1073 646 1076 610 q 1067 717 1070 681 q 1055 789 1063 754 q 1022 854 1047 824 l 930 965 m 671 1092 q 808 1066 743 1092 q 928 996 874 1040 q 1023 896 982 953 q 1089 775 1064 839 q 1104 694 1100 735 q 1109 614 1109 654 q 1086 429 1109 521 q 1022 254 1063 337 q 936 155 988 194 q 824 92 885 116 q 698 55 764 68 q 568 39 632 43 q 475 48 520 39 q 390 75 430 57 q 317 124 349 94 q 263 196 284 154 q 214 348 231 272 q 197 504 197 425 q 199 560 197 532 q 206 616 202 587 l 215 643 q 249 748 231 694 q 290 853 266 801 q 345 953 313 904 q 420 1046 376 1001 l 430 1051 q 494 1087 461 1071 q 566 1104 527 1104 q 625 1092 593 1104 l 671 1092 m 715 1125 q 665 1151 693 1144 q 606 1159 637 1159 q 527 1149 566 1159 q 455 1125 488 1139 q 331 1039 383 1091 q 243 925 279 988 q 184 792 206 863 q 150 649 162 721 l 150 609 q 147 590 148 599 q 147 571 147 581 q 157 419 147 495 q 195 273 168 343 q 268 143 222 203 q 386 38 315 84 q 483 4 430 15 q 591 -7 536 -7 q 750 11 672 -7 q 895 62 829 30 q 913 68 905 62 q 929 83 922 75 q 943 98 936 91 q 958 105 950 105 q 976 95 966 105 q 1104 269 1061 170 q 1155 480 1147 368 q 1143 640 1151 560 q 1115 795 1134 720 q 1059 939 1095 870 q 965 1067 1023 1007 q 884 1111 920 1094 q 794 1135 847 1128 q 786 1125 793 1125 l 715 1125 m 1078 965 q 1154 751 1131 867 q 1177 513 1177 635 q 1169 366 1177 438 l 1163 351 q 1128 260 1146 305 q 1086 176 1110 216 q 1030 103 1061 135 q 953 51 998 71 q 810 -65 891 -25 q 636 -106 729 -106 q 591 -103 614 -106 q 545 -96 568 -101 q 507 -99 525 -98 q 469 -101 489 -101 q 303 -67 382 -101 q 161 28 225 -34 q 100 117 135 79 q 48 196 65 155 q 33 344 39 272 q 28 489 28 416 q 34 630 28 559 q 59 775 41 701 q 173 918 112 845 q 303 1049 233 990 q 452 1145 373 1108 q 619 1182 530 1182 q 715 1169 665 1182 q 819 1158 767 1169 q 922 1122 872 1147 q 1011 1059 971 1098 q 1078 965 1051 1020 "},"’":{"x_min":29.171875,"x_max":516.703125,"ha":542,"o":"m 343 760 q 298 724 315 748 q 255 673 281 700 q 231 576 243 634 q 220 466 220 518 q 270 527 252 492 q 300 600 288 561 q 320 680 312 639 q 343 760 329 721 m 306 761 l 184 761 q 137 724 158 748 q 116 673 116 700 l 220 673 l 306 761 m 150 1039 q 118 953 137 993 q 84 872 98 913 q 65 787 69 831 q 80 691 61 743 l 168 778 q 165 831 168 805 q 161 883 162 857 q 160 934 159 909 q 168 987 161 960 q 175 984 173 987 q 176 980 176 982 q 177 979 176 978 q 184 987 177 980 l 184 1005 q 174 1023 177 1012 q 168 1042 170 1034 q 161 1051 165 1050 q 150 1039 156 1052 m 429 1075 q 376 1067 402 1068 q 322 1068 350 1066 q 265 1072 294 1069 q 202 1075 236 1075 l 184 1057 l 184 813 q 207 802 198 813 q 202 779 216 791 l 359 795 l 376 795 q 344 668 363 730 q 325 552 325 605 q 366 605 344 579 q 409 659 387 632 q 450 716 430 687 q 483 779 469 745 l 463 1040 q 468 1060 470 1052 q 459 1070 466 1068 q 443 1074 452 1073 q 429 1075 434 1075 m 500 1094 q 495 936 487 1014 q 516 779 504 858 q 416 622 476 700 q 290 466 355 544 q 267 457 277 466 q 247 437 256 448 q 227 414 237 426 q 202 396 216 401 q 188 408 190 401 q 189 423 186 415 q 197 442 193 432 q 202 466 202 452 l 220 657 l 98 657 q 80 648 84 657 q 62 640 76 640 q 54 671 55 652 q 56 709 54 689 q 60 748 58 729 q 62 779 62 766 l 29 832 q 94 946 68 884 q 133 1075 120 1008 q 202 1091 166 1089 q 272 1091 237 1093 q 343 1088 308 1089 q 412 1094 379 1087 q 462 1107 437 1107 q 500 1094 487 1107 "},"-":{"x_min":0,"x_max":853.15625,"ha":896,"o":"m 652 395 q 530 403 591 405 q 408 395 469 401 q 286 387 347 390 q 163 395 225 384 q 138 363 152 375 q 111 341 125 351 q 89 320 98 331 q 80 287 80 308 q 363 284 225 287 q 625 259 502 280 q 702 341 665 300 q 761 423 740 381 q 736 411 750 412 q 707 409 722 409 q 677 407 691 409 q 652 395 662 405 m 163 612 q 115 547 131 581 q 88 474 98 512 q 71 395 77 436 q 55 313 65 355 l 136 395 l 108 423 q 147 456 138 433 q 156 508 156 480 q 154 564 156 536 q 163 612 152 593 m 598 668 q 496 684 547 688 q 394 670 445 679 q 292 663 343 662 q 190 694 241 663 l 190 450 q 216 447 204 450 q 236 438 227 444 q 244 423 244 433 q 370 446 305 443 q 499 450 436 450 q 622 453 562 450 q 733 476 683 456 q 777 510 763 486 q 792 565 790 534 q 791 629 794 595 q 788 694 788 663 q 702 681 747 694 q 598 668 658 668 m 841 694 l 816 504 q 835 487 826 493 q 849 479 844 481 q 852 477 854 477 q 841 476 851 476 q 757 354 801 415 q 652 233 713 294 q 354 252 509 252 q 55 233 198 252 q 38 221 44 222 q 27 222 33 220 q 15 229 22 225 q 0 233 9 233 l 55 584 q 90 593 75 584 q 119 616 106 602 q 142 643 131 629 q 163 668 152 657 q 143 704 143 687 q 163 722 143 722 q 253 706 204 711 q 353 701 302 701 q 453 706 404 701 q 543 722 502 711 q 597 699 570 701 q 651 702 625 697 q 703 718 677 708 q 752 731 729 727 q 798 727 776 734 q 841 694 820 720 "},"Q":{"x_min":7.90625,"x_max":948.6875,"ha":971,"o":"m 755 50 q 760 27 770 33 q 733 6 750 22 q 756 -8 741 -1 q 785 -17 770 -15 q 810 -14 800 -19 q 820 6 820 -9 q 821 31 827 23 q 803 44 815 40 q 777 49 791 48 q 755 50 763 50 m 518 245 l 518 179 l 561 201 q 557 213 561 209 q 547 222 554 218 q 534 231 541 226 q 518 245 526 237 m 150 676 q 64 501 85 595 q 43 309 43 406 q 46 193 43 252 q 59 81 48 134 q 97 -13 71 29 q 171 -80 123 -55 q 301 -97 237 -87 q 428 -106 366 -106 q 551 -91 491 -106 q 669 -36 612 -76 l 669 -13 l 713 27 q 720 41 717 34 q 713 70 725 56 q 666 20 695 38 q 605 -13 637 1 q 504 -19 556 -13 q 401 -22 452 -25 q 303 -5 350 -20 q 214 50 255 9 q 147 189 174 113 q 109 346 120 265 q 108 511 99 427 q 150 676 117 595 m 366 695 q 324 572 341 638 q 304 440 306 506 q 322 311 302 373 q 390 201 341 250 q 423 170 405 184 q 475 156 441 156 q 472 219 466 190 q 488 275 479 248 q 508 325 498 301 q 518 373 518 350 q 525 395 518 381 q 542 420 531 409 q 563 431 552 430 q 583 416 575 433 q 586 481 583 450 q 588 543 588 513 q 583 601 588 573 q 561 654 577 629 q 506 685 537 662 q 448 724 476 708 q 397 738 420 740 q 366 695 375 736 m 583 784 q 543 795 566 791 q 498 798 520 798 q 457 795 476 798 q 430 784 438 791 q 466 754 447 768 q 506 727 486 741 q 547 695 527 712 q 583 654 566 679 q 617 597 608 629 q 628 531 626 566 q 627 461 630 497 q 625 394 625 426 l 669 394 q 678 472 669 436 q 695 545 687 509 q 705 618 703 581 q 689 695 706 655 q 661 719 674 704 q 636 749 648 734 q 611 774 625 763 q 583 784 598 784 m 713 695 q 727 612 729 655 q 718 525 726 569 q 700 436 709 480 q 690 352 690 393 q 661 350 675 344 q 634 365 648 355 q 602 384 619 375 q 561 394 584 394 q 538 330 544 362 q 518 265 533 298 l 625 222 q 602 193 618 205 q 569 170 587 180 q 531 151 551 159 q 497 134 512 143 q 451 130 472 127 q 413 141 430 133 q 379 160 395 150 q 345 179 362 170 q 290 290 305 227 q 277 419 276 352 q 293 552 279 486 q 323 676 306 619 l 345 740 q 337 743 340 740 q 345 762 331 748 q 375 772 362 762 q 402 794 388 782 q 433 816 416 807 q 475 826 450 826 q 551 827 515 834 q 618 802 587 820 q 672 757 648 784 q 713 695 697 729 m 713 891 q 629 925 673 908 q 540 951 584 943 q 451 952 495 959 q 366 913 406 945 q 250 816 293 872 q 183 696 206 761 q 149 560 159 632 q 130 416 138 488 q 144 319 138 368 q 162 224 150 270 q 197 134 175 177 q 259 50 219 90 q 347 4 300 9 q 442 6 394 -1 q 537 25 490 15 q 625 27 584 36 q 654 47 641 36 q 677 72 666 59 q 696 95 687 84 q 713 115 705 106 q 745 108 729 115 q 777 93 761 101 q 809 77 793 84 q 840 70 825 70 l 907 179 q 842 230 875 211 q 776 265 809 250 q 760 262 768 265 q 746 257 752 259 q 736 256 740 255 q 733 265 733 258 q 786 370 766 313 q 817 487 807 426 q 827 612 827 548 q 820 740 827 676 q 775 824 804 788 q 713 891 745 859 m 820 826 q 854 761 844 794 q 866 697 863 729 q 866 633 868 665 q 863 569 863 601 q 827 422 845 487 q 776 309 809 358 l 948 201 q 913 145 925 176 q 893 81 902 113 q 868 18 883 48 q 820 -36 852 -12 l 820 -58 q 772 -43 795 -50 q 728 -36 748 -36 q 693 -45 708 -36 q 669 -80 677 -55 l 497 -144 q 358 -131 431 -136 q 218 -109 284 -127 q 98 -50 151 -91 q 20 70 45 -9 q 8 300 5 184 q 44 545 11 415 q 117 680 76 611 q 209 811 158 750 q 320 917 259 872 q 454 979 380 962 q 661 959 568 994 q 820 826 754 923 "},"M":{"x_min":-1.890625,"x_max":1121.15625,"ha":1157,"o":"m 154 -20 q 120 -88 125 -50 q 116 -158 116 -127 l 253 -137 q 297 -76 283 -108 q 310 0 310 -44 q 241 -25 283 -15 q 154 -20 199 -36 m 1075 95 q 1008 77 1046 81 q 934 64 971 73 q 866 33 897 55 q 822 -40 836 11 q 900 -22 866 -25 q 978 -20 933 -20 l 1075 95 m 665 351 q 605 331 634 336 q 547 312 576 327 l 527 213 q 573 223 557 213 q 605 233 590 233 q 642 292 634 262 q 665 351 650 322 m 349 566 l 349 527 q 349 443 342 483 q 374 368 356 402 q 422 304 392 333 q 487 252 451 275 q 514 315 512 287 q 504 369 516 344 q 470 417 492 394 q 424 463 448 440 q 380 512 401 487 q 349 566 359 537 m 822 626 l 762 469 q 786 352 778 411 q 800 234 794 293 q 810 116 805 175 q 822 0 815 58 q 866 89 851 44 q 881 194 881 134 q 857 297 865 245 q 844 403 850 350 q 834 512 839 456 q 822 626 829 568 m 96 782 q 67 709 81 745 q 44 636 53 672 q 32 563 35 600 q 36 488 29 526 q 60 335 52 415 q 72 175 68 255 q 76 15 75 94 q 77 -137 77 -63 q 104 -79 92 -108 q 116 -20 116 -50 q 113 380 116 184 q 96 782 110 576 m 958 958 q 885 938 929 943 q 782 919 842 934 q 743 872 759 897 q 713 820 728 847 q 682 769 698 794 q 644 722 666 744 q 632 691 637 708 q 622 655 627 673 q 608 619 616 637 q 586 587 600 601 q 536 656 563 623 q 478 723 508 690 q 420 790 448 757 q 370 859 392 823 q 243 857 312 859 q 116 840 174 855 q 133 431 131 633 q 136 38 136 229 q 146 35 142 38 q 152 29 149 31 q 155 19 155 23 q 243 6 199 4 q 330 38 287 9 l 311 58 q 311 409 340 233 q 317 463 318 431 q 316 527 316 494 q 322 592 316 561 q 350 645 329 623 q 362 643 358 645 q 370 636 366 640 q 379 629 375 632 q 390 626 383 626 q 391 573 383 597 q 414 529 400 550 q 445 491 429 509 q 468 450 461 472 q 499 434 482 441 q 532 415 516 426 q 557 388 547 404 q 566 351 566 373 q 596 357 580 351 q 625 370 611 363 q 655 384 640 377 q 685 390 669 390 l 762 547 q 792 633 778 591 q 822 704 807 675 q 832 701 826 704 q 838 695 835 698 q 842 684 842 691 q 869 538 857 611 q 881 390 881 465 q 889 307 881 345 q 904 233 897 269 q 912 159 911 197 q 900 77 914 120 q 944 88 922 84 q 987 98 965 93 q 1031 111 1010 104 q 1075 134 1053 119 l 1096 450 q 1067 570 1074 508 q 1061 694 1061 632 q 1062 818 1061 757 q 1056 938 1062 880 q 1037 966 1049 968 q 1014 956 1026 965 q 987 941 1001 947 q 958 958 972 936 m 1095 958 q 1101 822 1102 891 q 1098 684 1100 753 q 1098 545 1095 615 q 1115 409 1100 476 q 1120 336 1122 373 q 1115 262 1119 299 q 1109 189 1111 226 q 1115 114 1108 152 l 1016 0 l 1036 -21 q 977 -46 1007 -43 q 919 -50 948 -50 q 861 -53 890 -50 q 802 -79 832 -57 q 785 -65 787 -72 q 787 -53 783 -58 q 802 -40 793 -47 q 793 3 794 -18 q 791 47 791 26 q 791 91 791 69 q 782 134 790 113 q 770 282 782 209 q 743 428 758 355 q 722 376 736 399 q 693 331 708 353 q 666 285 679 309 q 644 233 652 262 l 665 213 l 625 194 q 595 207 609 208 q 566 201 580 206 q 536 191 551 195 q 506 194 522 187 q 471 235 491 216 q 429 271 451 253 q 386 309 406 289 q 349 351 365 328 q 351 210 342 277 q 363 81 360 144 q 348 -39 365 19 q 273 -158 331 -98 q 226 -164 251 -158 q 175 -180 201 -171 q 124 -199 149 -189 q 77 -217 99 -210 q 48 -107 55 -165 q 42 10 42 -50 q 43 132 42 70 q 37 252 43 194 q 25 400 37 327 q -1 546 13 473 q 30 621 20 584 q 46 694 39 658 q 63 767 53 730 q 96 840 74 803 q 93 848 96 846 q 86 849 90 849 q 79 851 82 849 q 77 859 77 852 q 97 859 83 859 q 125 861 110 859 q 153 867 139 863 q 174 880 167 871 q 229 874 203 871 q 277 879 255 876 q 317 885 299 883 q 349 880 334 887 q 411 824 378 851 q 475 769 444 796 q 535 712 506 742 q 586 645 563 681 q 674 801 630 719 q 762 958 718 883 q 877 962 822 958 q 977 996 933 967 q 1009 985 991 981 q 1043 992 1026 988 q 1073 992 1059 996 q 1095 958 1087 987 "},"C":{"x_min":12.6875,"x_max":896.09375,"ha":922,"o":"m 118 386 q 87 353 102 369 q 62 319 72 337 q 49 281 52 301 q 54 237 45 261 q 61 157 48 190 q 97 100 73 125 q 154 59 122 76 q 221 25 187 41 q 288 -10 255 8 q 348 -55 322 -29 q 427 -74 387 -63 q 508 -93 466 -84 q 594 -103 550 -101 q 686 -97 638 -105 q 738 -34 716 -65 q 790 27 759 -4 q 779 36 790 41 q 769 27 773 33 q 668 -7 722 4 q 559 -19 613 -19 q 450 -7 504 -19 q 348 27 395 4 q 250 89 293 51 q 177 175 206 127 q 133 276 148 222 q 118 386 118 330 m 497 701 q 490 668 497 684 q 477 634 483 652 q 468 596 470 616 q 475 552 466 576 q 509 577 490 561 q 551 606 529 594 q 596 618 573 618 q 643 595 619 619 q 661 630 651 611 q 680 669 672 649 q 691 708 688 688 q 686 743 694 727 q 635 745 662 743 q 582 745 608 747 q 534 733 556 743 q 497 701 512 724 m 580 952 q 440 881 501 929 q 333 772 380 833 q 249 642 286 711 q 181 512 212 574 q 174 480 173 495 q 176 453 174 465 q 176 434 179 441 q 158 427 174 427 q 153 332 142 379 q 181 237 163 285 q 223 163 197 198 q 285 101 249 129 q 363 54 320 73 q 452 27 405 35 q 556 19 508 10 q 651 43 605 27 q 740 75 697 59 q 831 91 784 91 q 850 122 848 106 q 850 156 852 138 q 847 194 848 174 q 854 237 845 213 l 706 197 q 659 181 683 180 q 611 188 636 183 q 563 199 587 194 q 516 197 540 205 q 458 251 476 220 q 432 317 440 281 q 422 390 424 352 q 411 469 419 429 q 426 625 411 549 q 474 763 442 701 q 525 784 498 779 q 582 790 552 790 q 643 788 612 790 q 706 786 674 786 q 715 804 713 792 q 714 826 716 815 q 709 849 712 838 q 706 867 706 861 q 700 884 706 876 q 690 900 694 892 q 688 915 686 908 q 706 931 690 923 q 643 949 674 947 q 580 952 612 952 m 750 952 q 758 892 757 921 q 759 836 759 864 q 761 781 759 809 q 769 722 762 752 q 732 708 746 722 q 712 674 719 694 q 699 632 704 654 q 686 595 694 611 q 689 581 686 589 q 693 567 691 573 q 695 557 696 561 q 686 552 694 552 q 623 581 654 570 q 559 576 591 591 q 498 540 528 558 q 453 490 469 522 q 454 420 453 458 q 463 348 455 383 q 488 282 471 312 q 537 237 505 252 q 604 220 569 222 q 674 225 639 219 q 744 241 709 230 q 811 259 779 251 q 823 266 819 259 q 832 280 828 272 q 841 295 836 289 q 854 301 846 301 q 875 248 869 277 q 882 188 880 218 q 886 132 884 158 q 896 91 887 107 q 889 66 896 75 q 872 51 882 57 q 851 41 862 45 q 832 27 840 36 q 801 -11 816 11 q 770 -56 786 -33 q 739 -101 754 -79 q 707 -140 723 -123 q 631 -133 666 -131 q 562 -134 596 -134 q 496 -127 528 -134 q 433 -97 464 -120 q 389 -99 409 -105 q 349 -82 369 -94 q 309 -56 329 -70 q 265 -34 289 -42 q 202 -5 233 -17 q 141 23 171 7 q 84 59 111 38 q 33 112 57 80 q 23 217 33 159 q 12 323 12 275 q 75 395 44 354 q 139 469 107 437 q 210 632 169 548 q 304 788 251 715 q 425 916 357 861 q 580 996 493 972 q 673 982 628 996 q 750 952 718 969 "},"!":{"x_min":9.09375,"x_max":402.8125,"ha":426,"o":"m 312 -12 q 254 -19 284 -12 q 199 -40 225 -26 q 154 -75 173 -54 q 127 -123 134 -95 q 184 -103 155 -109 q 240 -88 213 -97 q 286 -63 266 -80 q 312 -12 305 -47 m 181 170 q 132 109 148 143 q 109 40 116 76 q 100 -33 102 4 q 91 -105 97 -70 l 181 4 q 184 45 181 25 q 189 87 187 66 q 190 129 191 108 q 181 170 188 150 m 348 244 q 312 235 327 244 q 284 215 297 226 q 255 197 270 205 q 219 188 240 188 l 219 41 l 238 41 q 245 28 245 34 q 244 16 245 22 q 238 4 241 11 q 309 18 279 4 q 366 61 338 33 q 379 152 381 101 q 348 244 376 202 m 402 208 q 400 147 395 180 q 402 81 404 114 q 385 18 400 48 q 329 -31 370 -10 q 306 -84 329 -59 q 255 -123 283 -109 q 150 -137 200 -123 q 72 -179 100 -151 q 56 -123 58 -151 q 57 -68 54 -95 q 66 -13 61 -41 q 72 41 72 14 l 54 41 q 120 141 81 97 q 201 225 159 184 q 241 222 219 215 q 286 241 263 229 q 329 264 308 252 q 366 277 350 276 q 393 264 383 279 q 402 208 402 250 m 181 354 q 146 345 161 354 q 120 322 131 336 q 97 293 108 308 q 72 263 86 277 q 92 269 79 270 q 118 265 105 268 q 145 265 131 263 q 165 281 158 268 q 200 301 186 288 q 229 329 215 313 q 257 361 243 344 q 293 391 272 377 q 265 383 279 384 q 237 379 251 381 q 209 372 223 377 q 181 354 195 368 m 165 962 q 142 923 158 941 q 113 886 127 905 q 92 846 99 868 q 91 797 84 825 q 85 672 91 734 q 72 548 80 611 q 59 424 65 486 q 54 300 54 362 l 145 391 q 154 522 152 454 q 155 663 155 591 q 156 811 155 736 q 165 962 158 887 m 329 1055 q 259 1041 288 1055 q 201 998 229 1026 q 193 888 201 943 q 177 780 184 833 q 169 675 170 727 q 181 575 168 623 l 201 575 q 209 561 208 568 q 208 545 209 554 q 204 526 206 537 q 201 501 201 515 q 193 473 194 487 q 191 446 191 459 q 190 419 191 433 q 181 391 188 405 q 265 429 225 406 q 348 465 306 451 l 329 1055 m 366 1055 q 366 447 338 748 q 327 411 345 433 q 290 364 309 388 q 250 318 272 340 q 201 281 229 295 q 194 260 201 268 q 180 249 188 252 q 162 245 172 245 q 145 244 152 244 q 115 238 131 237 q 83 242 98 240 q 54 241 67 244 q 34 225 41 238 l 31 216 q 27 211 29 213 q 18 208 24 208 q 9 220 11 213 q 10 234 8 227 q 15 249 12 241 q 18 263 18 256 q 26 386 18 325 q 42 509 34 448 q 56 627 51 569 q 54 741 60 686 l 72 851 q 124 937 99 894 q 165 1036 149 980 q 206 1047 185 1036 q 249 1068 227 1058 q 296 1082 272 1079 q 348 1072 320 1086 l 366 1055 "},"È":{"x_min":10.765625,"x_max":799.359375,"ha":838,"o":"m 506 -9 q 385 -12 446 -9 q 264 -30 323 -15 q 151 -76 205 -44 q 56 -168 98 -108 q 255 -137 157 -151 q 438 -123 353 -123 q 485 -114 463 -123 q 526 -96 508 -104 q 562 -86 545 -87 q 595 -101 578 -84 q 621 -93 612 -101 q 637 -73 631 -86 q 649 -43 644 -59 q 663 -9 655 -26 l 506 -9 m 506 394 l 506 350 q 534 356 515 358 q 575 357 554 355 q 614 371 595 359 q 641 416 633 383 q 574 413 607 416 q 506 394 541 411 m 438 755 q 489 758 463 755 q 541 761 515 761 q 591 755 566 761 q 641 733 616 750 q 675 731 658 733 q 704 731 691 729 q 724 743 716 733 q 732 779 732 754 q 661 772 698 770 q 586 775 623 773 q 511 775 548 777 q 438 755 473 772 m 123 822 l 56 755 q 62 544 56 653 q 73 324 69 435 q 75 99 77 212 q 56 -123 73 -14 l 147 -33 l 147 101 q 127 277 130 185 q 126 462 124 369 q 130 646 128 555 q 123 822 131 737 m 169 868 q 159 715 160 791 q 159 561 157 638 q 165 402 162 483 q 169 237 169 322 q 180 132 169 186 q 191 11 191 79 q 225 38 209 27 q 257 33 241 49 q 263 13 274 16 q 235 11 252 11 l 348 11 q 526 13 434 11 q 687 33 617 16 q 706 74 703 49 q 706 124 708 98 q 702 173 703 149 q 709 213 701 197 l 663 237 q 623 220 647 229 q 574 202 599 211 q 525 186 549 194 q 484 169 501 177 q 455 206 459 186 q 453 247 451 226 q 455 290 455 269 q 438 327 455 311 q 445 351 447 336 q 442 383 444 366 q 442 415 440 399 q 462 438 445 430 q 543 441 495 438 q 641 462 591 444 q 663 486 658 470 q 667 518 669 501 q 657 551 665 536 q 641 575 649 566 q 578 567 608 575 q 518 549 548 559 q 458 527 488 538 q 394 506 427 515 q 374 589 377 541 q 372 687 372 637 q 359 690 365 687 q 348 711 348 695 q 371 731 365 719 q 379 755 377 743 q 383 779 381 768 q 394 800 385 791 q 481 809 435 808 q 574 811 527 811 q 666 812 620 811 q 753 822 712 813 q 750 856 753 838 q 744 890 747 873 q 744 924 742 906 q 753 958 745 941 q 453 921 602 941 q 169 868 303 901 m 799 981 q 779 940 782 964 q 779 887 777 915 q 783 832 781 860 q 777 779 785 804 q 763 758 768 771 q 753 733 757 746 q 744 708 749 721 q 731 687 739 696 q 650 691 689 679 q 574 716 611 704 q 497 732 536 729 q 416 711 459 736 l 416 552 q 479 573 449 561 q 540 595 510 584 q 600 613 570 605 q 663 621 629 621 q 686 582 679 604 q 694 538 692 561 q 698 489 696 515 q 709 438 700 463 q 679 427 692 438 q 655 400 666 416 q 636 363 645 383 q 618 327 627 344 l 506 305 l 506 237 q 572 233 539 220 q 638 262 606 247 q 699 278 670 277 q 753 237 728 279 q 743 183 745 212 q 744 124 742 154 q 750 65 746 94 q 753 10 753 35 q 722 -12 736 5 q 695 -53 709 -30 q 666 -98 681 -75 q 632 -134 652 -121 q 588 -146 613 -147 q 529 -123 563 -146 q 407 -144 470 -132 q 278 -166 343 -155 q 146 -184 213 -176 q 10 -192 78 -192 q 20 -171 19 -183 q 21 -143 21 -158 q 23 -111 21 -128 q 33 -78 24 -94 q 30 327 33 124 q 10 733 27 529 l 10 755 q 48 777 33 761 q 78 812 64 793 q 103 852 91 832 q 131 887 116 872 q 166 910 146 903 q 214 912 185 918 q 361 933 289 921 q 505 955 434 944 q 650 973 577 965 q 799 981 722 981 m 611 1098 q 657 1116 645 1101 q 670 1152 669 1131 q 670 1195 672 1172 q 676 1234 668 1218 q 641 1209 658 1223 q 612 1178 623 1195 q 600 1141 601 1161 q 611 1098 598 1120 m 136 1413 q 136 1341 133 1376 q 163 1284 138 1306 l 559 1052 q 576 1077 576 1062 q 570 1111 576 1093 q 558 1147 563 1129 q 561 1183 552 1166 q 448 1234 504 1209 q 339 1285 393 1258 q 234 1343 286 1312 q 136 1413 183 1375 m 152 1440 q 368 1306 257 1366 q 602 1222 480 1245 q 619 1242 608 1231 q 642 1264 630 1252 q 663 1288 654 1276 q 676 1315 672 1301 q 510 1402 586 1345 q 363 1516 434 1459 q 311 1547 338 1550 q 255 1525 283 1544 q 201 1479 227 1505 q 152 1440 175 1452 m 395 1518 q 472 1467 434 1493 q 550 1416 509 1441 q 634 1370 590 1391 q 732 1331 679 1348 q 733 1316 737 1323 q 723 1302 729 1309 q 710 1287 716 1295 q 705 1268 704 1279 q 703 1199 701 1234 q 701 1133 705 1165 q 679 1077 697 1102 q 615 1037 661 1051 q 614 1008 612 1022 q 594 993 616 994 q 366 1130 482 1059 q 127 1263 250 1201 l 88 1466 q 106 1474 98 1472 q 119 1468 113 1477 q 213 1526 163 1495 q 302 1593 263 1556 l 395 1518 "},"{":{"x_min":69.328125,"x_max":740.0625,"ha":771,"o":"m 269 201 l 224 156 q 174 19 191 88 q 158 -133 158 -50 q 171 -185 166 -158 q 182 -239 176 -212 q 198 -291 188 -266 q 224 -333 208 -315 q 355 -394 291 -367 q 470 -422 419 -422 q 506 -435 487 -430 q 545 -437 526 -439 q 579 -426 563 -435 q 604 -400 595 -417 q 525 -397 570 -400 q 447 -378 480 -394 q 397 -351 422 -361 q 350 -328 373 -340 q 306 -296 327 -315 q 269 -243 286 -276 q 219 -146 236 -201 q 202 -30 202 -90 q 219 90 202 30 q 269 201 236 151 m 136 358 q 122 304 136 323 q 92 268 108 284 q 144 234 124 251 q 180 201 163 218 q 209 177 197 176 q 232 190 222 177 q 252 220 242 202 q 269 245 261 237 q 202 293 236 262 q 136 358 169 323 m 247 869 l 180 780 q 159 693 163 738 q 160 604 154 648 q 183 520 166 561 q 225 447 200 480 q 258 479 241 462 q 292 512 274 497 q 241 559 258 529 q 225 623 225 590 q 222 690 225 657 q 219 754 219 723 q 225 815 219 786 q 247 869 230 844 m 403 780 q 439 819 419 805 q 481 843 459 833 q 523 864 503 854 q 560 891 543 875 q 582 902 568 900 q 612 908 597 904 q 637 922 626 912 q 649 958 649 933 q 576 936 615 950 q 500 902 536 923 q 438 852 465 882 q 403 780 411 822 m 626 1113 l 471 1094 q 391 1060 429 1084 q 324 1002 354 1036 q 275 929 295 969 q 247 847 255 888 q 248 757 255 805 q 241 663 241 709 q 260 576 241 616 q 337 512 279 537 q 291 479 319 497 q 247 447 263 462 q 227 421 238 430 q 202 404 215 412 q 178 385 190 395 q 158 358 166 374 q 195 327 175 341 q 236 301 215 313 q 277 275 256 288 q 313 245 297 262 l 313 223 q 252 108 280 173 q 225 -22 225 44 q 227 -98 216 -64 q 256 -163 237 -132 q 297 -223 275 -194 q 337 -286 320 -252 q 394 -330 362 -312 q 461 -357 426 -347 q 533 -373 497 -368 q 604 -378 570 -378 q 616 -368 612 -369 q 622 -366 620 -366 q 625 -365 624 -366 q 626 -355 626 -364 q 634 -344 640 -355 q 626 -333 631 -339 l 649 -333 q 652 -302 649 -315 q 660 -276 655 -289 q 667 -251 664 -264 q 671 -222 671 -239 l 626 -222 q 573 -205 601 -214 q 517 -185 544 -196 q 466 -162 490 -175 q 426 -133 443 -150 q 379 -55 393 -100 q 364 36 365 -11 q 375 133 364 84 q 403 223 386 181 q 409 240 403 231 q 425 256 416 248 q 440 273 433 265 q 447 290 447 281 q 423 316 439 306 q 391 334 408 326 q 360 352 375 342 q 337 379 345 362 q 356 405 345 395 q 380 421 368 415 q 405 433 393 427 q 426 447 418 438 l 426 512 q 403 599 418 554 q 380 688 389 644 q 375 772 372 731 q 403 847 377 813 q 671 980 504 980 l 671 1113 l 626 1113 m 736 1113 l 693 1113 q 683 1076 684 1097 q 683 1035 681 1056 q 689 994 686 1015 q 693 958 693 974 q 681 949 693 944 q 670 958 676 952 q 648 924 654 941 q 626 891 642 908 q 572 873 601 883 q 517 849 544 863 q 466 812 490 834 q 426 756 442 790 q 403 746 409 756 q 397 723 397 735 q 402 691 397 708 l 470 446 q 422 424 452 428 q 358 403 391 419 q 394 373 374 387 q 433 346 415 359 q 467 319 452 333 q 491 290 483 306 q 472 260 483 273 q 450 236 460 246 q 433 217 440 226 q 426 201 426 209 q 398 114 409 159 q 386 25 387 69 q 399 -59 385 -18 q 447 -133 413 -100 q 501 -156 472 -141 q 561 -183 530 -171 q 626 -201 592 -196 q 693 -198 659 -207 q 679 -300 693 -250 q 648 -400 665 -350 q 634 -398 640 -392 q 622 -414 629 -404 q 607 -435 616 -425 q 581 -445 598 -445 q 511 -460 548 -461 q 437 -448 474 -458 q 363 -423 399 -438 q 292 -400 326 -408 q 215 -352 242 -383 q 172 -283 187 -321 q 151 -206 158 -246 q 136 -133 144 -166 q 149 19 136 -50 q 180 156 163 88 q 159 179 172 165 q 132 208 147 194 q 101 234 117 223 q 69 245 86 245 l 136 378 q 152 385 144 378 q 169 401 161 392 q 186 416 177 409 q 202 423 194 423 q 191 457 202 441 q 180 491 180 473 q 161 558 172 524 q 143 626 149 591 q 139 700 137 662 q 158 780 141 738 q 209 869 183 821 q 267 963 236 917 q 337 1049 298 1009 q 426 1113 376 1088 q 556 1125 492 1113 q 670 1137 620 1137 q 683 1130 670 1128 q 711 1133 697 1131 q 735 1133 726 1135 q 736 1113 744 1130 m 269 201 l 224 156 q 174 19 191 88 q 158 -133 158 -50 q 171 -185 166 -158 q 182 -239 176 -212 q 198 -291 188 -266 q 224 -333 208 -315 q 355 -394 291 -367 q 470 -422 419 -422 q 506 -435 487 -430 q 545 -437 526 -439 q 579 -426 563 -435 q 604 -400 595 -417 q 525 -397 570 -400 q 447 -378 480 -394 q 397 -351 422 -361 q 350 -328 373 -340 q 306 -296 327 -315 q 269 -243 286 -276 q 219 -146 236 -201 q 202 -30 202 -90 q 219 90 202 30 q 269 201 236 151 m 136 358 q 122 304 136 323 q 92 268 108 284 q 144 234 124 251 q 180 201 163 218 q 209 177 197 176 q 232 190 222 177 q 252 220 242 202 q 269 245 261 237 q 202 293 236 262 q 136 358 169 323 m 247 869 l 180 780 q 158 693 163 738 q 160 604 154 648 q 183 520 166 561 q 224 447 199 480 q 258 479 241 462 q 292 512 274 497 q 241 559 258 529 q 225 623 225 590 q 222 690 225 657 q 219 754 219 723 q 225 815 219 786 q 247 869 230 844 m 403 780 q 439 819 419 805 q 481 843 459 833 q 523 864 503 854 q 560 891 543 875 q 582 902 568 900 q 612 908 597 904 q 637 922 626 912 q 649 958 649 933 q 576 936 615 950 q 500 902 536 923 q 438 852 465 882 q 403 780 411 822 m 626 1113 l 471 1094 q 391 1060 429 1084 q 324 1002 354 1036 q 275 929 295 969 q 247 847 255 888 q 248 757 255 805 q 241 663 241 709 q 260 576 241 616 q 337 512 279 537 q 291 479 319 497 q 247 447 263 462 q 227 421 238 430 q 202 404 215 412 q 178 385 190 395 q 158 358 166 374 q 195 327 175 341 q 236 301 215 313 q 277 275 256 288 q 313 245 297 262 l 313 223 q 252 108 280 173 q 225 -22 225 44 q 227 -98 216 -64 q 256 -163 237 -132 q 297 -223 275 -194 q 337 -286 320 -252 q 394 -330 362 -312 q 461 -357 426 -347 q 533 -373 497 -368 q 604 -378 570 -378 q 616 -368 612 -369 q 622 -366 620 -366 q 625 -365 624 -366 q 626 -355 626 -364 q 634 -344 640 -355 q 626 -333 631 -339 l 649 -333 q 652 -302 649 -315 q 660 -276 655 -289 q 667 -251 664 -264 q 671 -222 671 -239 l 626 -222 q 573 -205 601 -214 q 517 -185 544 -196 q 466 -162 490 -175 q 426 -133 443 -150 q 379 -55 393 -100 q 364 36 365 -11 q 375 133 364 84 q 403 223 386 181 q 409 240 403 231 q 425 256 416 248 q 440 273 433 265 q 447 290 447 281 q 423 316 439 306 q 391 334 408 326 q 360 352 375 342 q 337 379 345 362 q 356 405 345 395 q 380 421 368 415 q 405 433 393 427 q 426 447 418 438 l 426 512 q 403 599 418 554 q 380 688 389 644 q 375 772 372 731 q 403 847 377 813 q 671 980 504 980 l 671 1113 l 626 1113 m 736 1113 l 693 1113 q 683 1076 684 1097 q 683 1035 681 1056 q 689 994 686 1015 q 693 958 693 974 q 681 949 693 944 q 670 958 676 952 q 648 924 654 941 q 626 891 642 908 q 572 873 601 883 q 517 849 544 863 q 466 812 490 834 q 426 756 442 790 q 403 746 409 756 q 397 723 397 735 q 402 691 397 708 l 470 446 q 422 424 452 428 q 358 403 391 419 q 394 373 374 387 q 433 346 415 359 q 467 319 452 333 q 491 290 483 306 q 472 260 483 273 q 450 236 460 246 q 433 217 440 226 q 426 201 426 209 q 398 114 409 159 q 386 25 387 69 q 399 -59 385 -18 q 447 -133 413 -100 q 501 -156 472 -141 q 561 -183 530 -171 q 626 -201 592 -196 q 693 -198 659 -207 q 679 -300 693 -250 q 648 -400 665 -350 q 634 -398 640 -392 q 622 -414 629 -404 q 607 -435 616 -425 q 581 -445 598 -445 q 511 -460 548 -461 q 437 -448 474 -458 q 363 -423 399 -438 q 292 -400 326 -408 q 215 -352 242 -383 q 172 -283 187 -321 q 151 -206 158 -246 q 136 -133 144 -166 q 149 19 136 -50 q 180 156 163 88 q 159 179 172 165 q 132 208 147 194 q 101 234 117 223 q 69 245 86 245 l 136 378 q 152 385 144 378 q 169 401 161 392 q 186 416 177 409 q 202 423 194 423 q 191 457 202 441 q 180 491 180 473 q 161 558 172 524 q 143 626 149 591 q 139 700 137 662 q 158 780 141 738 q 209 869 183 821 q 267 963 236 917 q 337 1049 298 1009 q 426 1113 376 1088 q 556 1125 492 1113 q 670 1137 620 1137 q 683 1130 670 1128 q 711 1133 697 1131 q 735 1133 726 1135 q 736 1113 744 1130 "},"X":{"x_min":-1.390625,"x_max":1002.859375,"ha":1015,"o":"m 94 -51 q 147 -45 116 -44 q 209 -42 177 -46 q 266 -25 240 -39 q 308 24 293 -11 q 247 18 279 17 q 186 15 215 19 q 132 -1 156 12 q 94 -51 108 -15 m 944 63 q 890 53 915 63 q 845 27 865 44 q 811 -9 826 10 q 788 -51 797 -30 q 835 -34 811 -44 q 882 -9 859 -23 q 920 23 904 5 q 944 63 937 41 m 481 238 q 504 221 495 231 q 519 201 512 211 q 534 186 526 192 q 558 180 543 180 l 558 161 q 595 114 572 140 q 645 61 619 88 q 693 6 670 34 q 732 -51 716 -22 q 755 -45 747 -51 q 769 -29 763 -39 q 778 -11 775 -20 q 788 5 782 -1 q 663 149 730 80 q 538 276 597 217 q 509 264 523 276 q 481 238 495 252 m 365 469 l 345 450 q 326 424 331 443 q 315 389 320 405 q 300 365 309 373 q 269 373 291 358 q 258 356 269 362 q 248 354 252 354 l 94 24 l 152 44 q 273 257 225 147 q 365 469 322 368 m 94 894 l 37 779 q 60 738 44 757 q 94 701 76 719 q 129 664 112 683 q 152 623 145 645 q 197 577 181 601 q 227 527 213 552 q 253 477 240 501 q 288 430 266 452 q 334 469 318 445 q 365 508 350 493 q 334 582 350 551 q 288 644 318 613 q 238 707 259 673 q 198 776 218 741 q 154 842 179 811 q 94 894 130 873 m 654 953 l 597 875 q 587 777 597 832 q 577 664 577 722 q 590 730 577 700 q 618 789 602 759 q 650 848 634 818 q 673 914 666 878 l 654 894 q 641 909 640 901 q 647 923 641 916 q 656 938 652 930 q 654 953 661 946 m 712 953 l 616 740 q 611 666 616 697 q 577 604 607 634 q 561 614 565 604 q 558 623 558 618 l 538 623 q 530 639 531 632 q 531 654 529 647 q 536 668 533 661 q 538 683 538 676 q 479 746 502 712 q 433 815 455 780 q 387 880 411 850 q 327 933 363 911 l 327 953 q 230 933 283 937 q 133 914 177 929 q 185 839 162 878 q 231 759 208 800 q 282 679 255 719 q 345 604 309 640 q 357 584 352 597 q 368 558 362 570 q 381 536 373 545 q 404 527 388 527 q 406 516 404 520 q 411 510 409 512 q 412 508 413 508 q 404 508 411 508 l 423 469 q 391 434 401 454 q 375 392 381 413 q 358 349 368 370 q 327 315 348 329 q 311 246 327 279 q 275 182 295 213 q 236 122 255 151 q 209 63 216 92 q 297 51 262 44 q 354 81 331 58 q 393 140 377 105 q 426 212 409 176 q 464 281 443 248 q 519 334 486 315 l 538 334 q 595 265 561 298 q 667 197 629 231 q 743 124 705 162 q 809 44 780 87 q 841 76 823 66 q 877 90 859 85 q 913 101 895 95 q 944 120 930 106 l 809 295 q 775 341 788 318 q 750 387 762 365 q 720 426 737 409 q 673 450 702 443 q 668 464 666 456 q 676 479 670 472 q 687 493 682 486 q 693 508 693 501 q 764 616 736 559 q 814 733 793 673 q 857 853 836 793 q 907 972 877 914 q 860 955 884 957 q 810 955 836 953 q 759 958 784 957 q 712 953 734 959 m 963 990 q 972 980 970 983 q 970 975 973 978 q 963 972 968 972 q 907 878 927 928 q 868 780 886 829 q 829 686 850 732 q 772 604 808 640 q 712 488 772 518 q 858 289 786 387 q 1002 104 930 191 q 970 62 987 81 q 938 22 954 42 q 908 -19 922 2 q 887 -71 894 -41 q 854 -58 872 -57 q 819 -69 837 -59 q 784 -90 801 -78 q 752 -110 766 -103 q 734 -87 744 -96 q 715 -71 725 -78 q 699 -55 705 -64 q 693 -33 693 -47 q 654 22 677 -4 q 603 74 630 48 q 549 125 576 99 q 500 180 522 151 q 486 175 493 173 q 475 183 480 177 q 462 199 469 188 q 424 149 440 177 q 392 92 408 122 q 356 35 376 63 q 308 -14 337 8 q 268 -58 293 -50 q 215 -64 244 -66 q 154 -59 186 -62 q 94 -71 123 -57 q 65 -69 79 -71 q 37 -51 51 -66 q 140 171 94 65 q 229 393 186 277 l 248 411 q 240 437 248 424 q 222 462 231 450 q 208 490 213 475 q 209 527 202 505 q 96 653 151 586 q -1 779 41 720 l 75 914 q 72 928 75 921 q 67 940 69 934 q 66 949 65 946 q 75 953 68 953 q 89 950 81 953 q 106 945 97 947 q 126 944 115 943 q 152 953 137 946 q 268 962 211 953 q 384 972 326 972 l 365 953 q 417 891 394 923 q 459 827 440 859 q 498 762 479 794 q 538 701 518 730 q 558 771 554 730 q 577 855 562 812 l 558 855 q 593 895 580 869 q 621 944 607 921 q 656 982 636 968 q 712 990 676 997 l 712 972 q 770 978 741 979 q 826 976 798 976 q 879 982 854 976 q 926 1010 904 989 q 940 1001 933 1003 q 952 1000 947 1000 q 960 998 957 1000 q 963 990 963 997 "},"ô":{"x_min":9.515625,"x_max":787.640625,"ha":781,"o":"m 108 443 q 78 370 87 408 q 65 293 69 333 q 60 213 62 254 q 52 131 58 173 q 63 73 58 105 q 78 12 68 41 q 107 -38 88 -16 q 161 -66 126 -61 q 234 -76 194 -73 q 313 -75 273 -79 q 388 -61 352 -72 q 452 -29 425 -50 q 375 -42 418 -37 q 292 -43 333 -47 q 216 -25 251 -40 q 161 25 181 -9 q 111 115 126 65 q 93 219 97 165 q 95 331 90 273 q 108 443 101 388 m 326 406 q 291 359 305 386 q 272 306 277 333 q 271 253 268 279 q 290 206 275 227 q 335 186 309 193 q 386 177 361 179 q 435 177 412 175 q 470 187 458 180 q 475 231 470 208 q 484 276 480 254 q 486 318 487 298 q 470 351 484 338 q 438 393 458 372 q 398 427 419 415 q 358 436 377 438 q 326 406 338 433 m 397 479 q 409 461 397 463 q 436 459 420 459 q 474 402 455 431 q 506 340 493 372 q 526 274 520 308 q 526 206 531 240 q 554 260 540 233 q 577 314 569 287 q 584 368 586 341 q 562 423 583 395 q 536 463 555 451 q 493 478 516 475 q 443 480 469 481 q 397 479 418 479 m 616 406 q 593 283 616 338 q 543 187 570 227 q 485 161 515 173 q 423 145 455 150 q 357 145 391 140 q 290 170 323 150 q 263 199 275 183 q 251 241 251 215 q 254 322 244 283 q 286 398 263 362 q 341 464 308 434 q 416 515 375 494 q 536 502 484 529 q 616 406 588 475 m 470 661 q 441 678 458 673 q 407 683 425 683 q 373 681 390 683 q 343 679 356 679 q 240 608 281 651 q 173 512 198 565 q 137 400 148 459 q 126 277 126 340 q 130 195 126 237 q 148 113 134 152 q 186 40 162 73 q 251 -11 211 8 q 404 -18 334 -25 q 543 41 475 -11 q 638 117 598 69 q 707 206 679 165 q 729 304 720 254 q 738 402 738 354 q 727 493 738 450 q 688 569 715 536 q 650 604 668 583 q 616 643 633 625 q 581 673 600 662 q 543 679 563 684 l 543 661 l 526 661 q 512 666 519 661 q 498 674 505 670 q 484 675 491 677 q 470 661 477 673 m 616 679 q 697 584 663 637 q 748 472 732 531 q 765 348 765 412 q 744 223 765 284 q 648 93 702 154 q 526 6 594 33 q 488 -51 512 -27 q 436 -88 465 -75 q 373 -106 406 -102 q 306 -102 340 -109 q 238 -101 272 -102 q 175 -93 205 -100 q 117 -71 144 -86 q 69 -29 90 -56 q 34 77 43 18 q 29 199 26 136 q 45 325 33 262 q 69 443 56 388 q 134 533 98 483 q 198 625 170 583 q 264 656 233 638 q 327 690 295 675 q 394 713 359 705 q 470 715 429 720 q 481 707 477 708 q 488 707 486 705 q 495 712 491 709 q 506 715 500 715 l 616 679 m 66 807 l 74 807 q 81 810 77 810 q 86 805 86 810 q 83 797 86 801 l 163 788 q 172 807 165 799 q 185 823 178 816 q 198 838 192 831 q 204 852 204 844 q 170 862 188 862 q 143 856 156 862 q 116 842 129 851 q 91 823 103 833 q 66 807 79 814 m 666 894 q 654 871 663 880 q 635 855 645 863 q 614 839 625 848 q 595 817 603 830 l 684 842 q 701 866 690 855 q 721 886 711 876 q 737 906 730 895 q 745 929 745 916 q 705 919 725 929 q 666 894 685 908 m 422 998 q 419 997 421 998 q 417 996 418 996 q 396 981 405 988 q 379 963 386 974 q 457 889 418 930 q 534 823 496 849 q 557 814 547 814 q 576 821 568 814 q 590 838 583 828 q 605 856 597 847 q 623 868 613 865 q 526 943 578 907 q 422 998 475 979 m 352 1162 l 265 1111 q 158 978 212 1045 q 66 832 105 912 q 87 850 79 840 q 108 868 95 860 q 155 947 125 910 q 221 1019 186 984 q 292 1089 257 1054 q 352 1162 326 1123 m 387 1173 q 327 1099 361 1133 q 257 1032 293 1066 q 190 963 222 999 q 134 884 157 927 q 182 876 160 884 q 230 868 204 868 q 250 877 239 877 q 265 868 261 877 q 332 949 298 907 q 405 1025 365 991 l 431 1034 q 478 1003 454 1017 q 526 975 502 990 q 572 943 550 960 q 614 903 595 926 q 679 929 648 909 q 745 955 711 948 q 701 981 725 974 q 658 1007 677 987 q 596 1041 625 1019 q 541 1085 568 1062 q 486 1128 514 1107 q 431 1163 459 1150 q 418 1154 423 1154 q 404 1163 410 1154 q 387 1173 397 1173 m 422 1188 q 501 1147 465 1172 q 574 1093 538 1121 q 647 1037 610 1064 q 727 990 684 1009 q 753 977 741 990 q 776 964 765 964 q 787 973 782 964 q 766 913 787 943 q 720 854 745 883 l 710 843 q 714 836 711 840 q 719 823 719 828 q 645 806 679 818 q 569 782 610 793 q 536 796 550 782 q 502 823 521 810 q 432 890 468 857 q 361 955 395 923 q 333 923 346 942 q 306 886 320 903 q 274 856 292 868 q 230 843 257 843 q 211 821 219 835 q 195 795 203 808 q 177 772 187 782 q 154 762 168 762 q 126 771 141 762 q 87 781 107 771 q 45 791 67 791 q 12 782 28 791 q 9 786 9 782 q 10 795 9 789 q 12 806 12 801 q 60 884 32 846 q 118 958 88 921 q 177 1034 148 996 q 230 1111 206 1072 l 379 1197 q 383 1196 381 1196 q 404 1204 392 1196 q 422 1212 416 1212 q 426 1206 426 1212 q 422 1188 426 1201 "},"¼":{"x_min":0,"x_max":971.015625,"ha":1018,"o":"m 106 18 l 55 -73 q 90 -77 69 -73 q 130 -105 112 -81 l 200 -54 q 147 -11 170 -26 q 106 18 125 4 m 698 55 l 667 0 q 710 -1 688 0 q 754 0 732 -3 q 795 15 776 3 q 827 55 814 27 q 798 49 814 55 q 765 40 782 44 q 731 39 749 37 q 698 55 714 41 m 698 231 l 648 162 q 653 131 654 148 q 647 98 652 115 q 642 65 643 81 q 648 38 641 50 q 659 53 654 44 q 668 70 664 62 q 679 83 673 77 q 698 88 686 88 l 698 231 m 536 182 q 624 206 591 182 q 685 273 657 230 q 636 270 657 279 q 598 245 615 261 q 566 212 580 230 q 536 182 551 194 m 864 305 l 864 255 q 886 249 876 247 q 905 259 895 251 q 922 280 914 268 q 939 305 930 293 q 920 302 930 305 q 900 298 909 300 q 880 297 890 297 q 864 305 871 298 m 628 448 q 599 396 615 420 q 571 347 583 372 q 553 294 558 322 q 554 231 547 266 q 577 286 568 259 q 593 340 586 313 q 607 393 600 366 q 628 448 615 420 m 754 486 q 748 469 748 479 q 745 451 747 459 q 738 437 743 443 q 721 431 733 431 l 721 416 q 746 415 739 408 q 756 435 754 422 q 756 463 758 448 q 754 486 754 479 m 810 523 q 794 459 796 495 q 792 393 792 422 q 774 379 783 380 q 753 379 764 377 q 728 381 742 380 q 697 375 714 381 q 667 394 671 381 q 669 422 664 406 q 682 455 675 438 q 685 486 689 472 q 675 494 678 493 q 669 493 672 495 q 667 486 667 490 q 657 436 667 459 q 638 388 648 412 q 619 339 628 363 q 610 287 610 315 q 646 290 630 287 q 675 296 661 293 q 704 302 689 300 q 741 305 720 305 l 741 287 q 738 234 741 261 q 733 179 735 206 q 732 125 731 152 q 741 69 734 97 l 841 88 l 828 216 q 833 270 828 245 q 828 323 838 295 q 855 339 842 337 q 881 340 868 341 q 909 337 894 338 q 939 343 923 336 l 939 431 q 912 433 923 437 q 890 423 900 429 q 868 417 879 418 q 841 431 857 416 l 841 523 l 810 523 m 864 535 l 883 466 q 900 457 889 459 q 925 456 912 456 q 951 455 939 456 q 971 448 964 455 q 968 410 971 427 q 964 376 965 392 q 963 343 962 360 q 971 305 964 325 q 943 281 950 298 q 932 248 937 264 q 918 220 927 231 q 883 216 909 209 q 873 209 877 210 q 864 216 864 203 q 857 189 855 203 q 864 159 858 174 q 877 126 871 144 q 883 88 883 109 q 871 55 883 69 q 844 28 859 41 q 814 0 829 14 q 791 -31 798 -12 l 610 -31 q 605 18 603 -4 q 610 64 607 41 q 615 110 614 87 q 610 162 616 134 q 549 150 586 162 q 485 124 512 138 q 480 141 478 131 q 487 162 482 150 q 498 182 493 173 q 504 199 504 192 q 516 227 511 212 q 523 257 522 242 q 520 285 523 273 q 504 305 516 298 q 512 330 504 319 q 529 350 519 341 q 546 370 539 360 q 554 392 554 380 q 601 458 583 421 q 647 523 619 495 q 671 523 661 516 q 689 538 680 530 q 705 549 697 546 q 721 535 712 552 l 721 485 q 749 516 733 499 q 784 546 765 534 q 823 557 803 557 q 864 535 843 556 m 216 593 q 172 572 195 580 q 131 556 150 565 q 100 537 112 548 q 87 505 87 526 l 179 523 q 205 550 194 533 q 216 593 216 568 m 593 841 l 536 777 q 439 590 491 682 q 333 408 387 498 q 227 230 279 318 q 130 55 175 143 q 171 3 154 27 q 216 -30 189 -20 q 346 181 283 76 q 472 389 409 286 q 596 597 535 493 q 721 809 658 702 q 682 814 700 809 q 649 825 665 819 q 619 836 633 832 q 593 841 605 841 m 754 809 q 515 405 632 602 q 286 0 398 207 q 266 -40 286 -23 q 230 -73 245 -58 q 219 -67 225 -66 q 207 -75 213 -69 q 194 -90 201 -81 q 179 -105 187 -98 q 161 -135 165 -123 q 143 -161 156 -147 q 113 -149 122 -161 q 100 -126 104 -138 q 90 -106 95 -113 q 73 -105 86 -98 q 36 -95 59 -105 q 0 -73 13 -84 q 152 149 80 34 q 292 381 225 264 q 423 620 359 498 q 554 865 487 741 q 556 873 554 869 q 563 880 559 876 q 577 883 568 883 q 670 851 630 869 q 754 809 711 833 m 106 916 l 55 841 q 55 523 102 683 q 80 548 69 533 q 106 579 91 563 q 113 659 115 616 q 108 745 112 701 q 102 832 104 788 q 106 916 100 876 m 143 940 q 138 859 139 898 q 138 783 137 820 q 141 707 139 745 q 143 630 143 669 q 158 618 153 623 q 166 606 164 612 q 161 593 168 600 q 186 598 175 593 q 208 611 197 604 q 228 625 218 619 q 250 630 237 630 q 233 784 235 700 q 231 952 231 869 q 189 946 207 952 q 143 940 171 940 m 274 970 q 270 877 274 922 q 266 791 267 833 q 269 709 265 750 q 286 630 272 669 q 270 593 282 611 q 244 557 258 575 q 218 522 230 540 q 200 486 205 504 q 115 476 157 486 q 32 466 73 466 l 32 593 q 32 827 67 719 q 63 882 50 855 q 87 940 76 908 q 105 963 94 958 q 127 967 115 968 q 152 965 139 966 q 179 970 165 963 q 199 984 187 977 q 225 992 211 990 q 252 989 239 994 q 274 970 265 984 "},"#":{"x_min":0.03125,"x_max":889.84375,"ha":906,"o":"m 435 126 l 339 87 q 313 49 325 72 q 302 11 302 26 q 343 21 317 11 q 396 31 368 31 q 408 78 396 59 q 435 126 420 97 m 567 87 q 593 90 581 87 q 615 94 605 93 q 637 95 626 95 q 662 87 648 94 q 689 118 677 101 q 701 162 701 134 q 659 151 680 155 q 620 139 638 147 q 588 120 602 131 q 567 87 574 108 m 283 238 q 259 190 262 218 q 260 131 256 162 q 267 70 263 101 q 265 11 271 40 q 291 68 285 40 q 294 125 296 97 q 287 181 292 152 q 283 238 283 209 m 568 256 q 532 225 538 243 q 530 188 526 208 q 542 147 534 169 q 550 105 550 126 q 560 140 556 119 q 565 182 563 161 q 568 223 568 204 q 568 256 568 243 m 245 220 l 265 256 q 216 245 242 250 q 165 231 190 240 q 120 206 140 222 q 95 162 101 191 l 245 220 m 549 277 q 516 270 535 269 q 480 269 496 270 q 455 258 464 268 q 453 220 446 248 l 491 220 q 520 241 506 220 q 549 277 534 262 m 76 333 q 44 249 47 291 q 55 162 41 206 q 90 197 84 176 q 94 241 97 218 q 84 288 91 265 q 76 333 76 312 m 718 333 l 739 277 q 773 286 752 284 q 810 293 793 288 q 840 311 827 298 q 853 352 853 325 q 793 343 823 352 q 718 333 762 333 m 227 429 l 227 505 q 202 459 212 476 q 207 429 193 443 l 227 429 m 55 446 q 100 463 76 460 q 145 468 125 466 q 183 476 166 470 q 206 505 200 482 q 162 506 186 505 q 118 503 138 507 q 80 486 97 499 q 55 446 63 474 m 416 484 l 416 447 l 491 466 l 491 522 q 447 511 463 522 q 416 484 431 500 m 718 505 l 701 505 q 729 510 715 505 q 758 523 744 516 q 786 536 772 531 q 814 542 800 542 q 759 537 786 542 q 718 505 733 532 m 55 580 q 29 552 34 566 q 25 523 23 538 q 32 494 27 509 q 37 466 37 480 q 53 484 51 480 q 55 505 55 489 q 72 521 70 510 q 70 541 75 531 q 61 562 66 552 q 55 580 55 573 m 550 580 q 517 539 522 566 q 512 484 512 512 q 539 487 525 484 q 568 505 554 490 l 550 580 m 528 598 l 435 580 l 416 580 l 416 521 q 427 525 422 521 q 434 532 431 528 q 442 539 438 535 q 453 542 446 542 q 478 539 467 534 q 498 555 489 545 q 514 578 507 566 q 528 598 521 591 m 701 580 l 701 542 q 738 559 715 556 q 782 565 761 562 q 819 579 804 568 q 834 617 834 589 q 760 598 791 602 q 701 580 729 593 m 567 638 q 572 583 560 616 q 591 520 584 550 q 588 468 598 489 q 528 446 578 446 l 512 446 q 454 428 483 432 q 397 409 426 424 q 389 437 390 423 q 387 463 387 450 q 386 486 387 475 q 377 505 384 496 q 395 543 393 517 q 397 598 397 570 l 397 617 l 416 598 q 485 617 444 612 q 567 638 526 623 m 491 939 q 475 844 477 896 q 473 749 473 792 l 528 769 q 523 854 528 812 q 491 939 518 896 m 265 939 q 248 925 258 932 q 231 908 238 917 q 221 888 223 899 q 227 863 219 877 q 232 821 234 842 q 228 778 230 799 q 228 735 226 756 q 245 694 230 714 l 265 694 q 249 816 249 751 q 265 939 249 881 m 587 996 q 570 985 580 989 q 550 975 559 980 q 535 962 541 970 q 529 939 529 953 q 547 844 544 896 q 550 749 550 792 l 550 731 l 529 731 q 487 723 508 724 q 449 717 466 721 q 418 704 432 713 q 397 673 404 695 l 377 694 q 377 977 352 837 q 333 975 349 977 q 302 957 317 973 q 291 955 295 957 q 285 951 287 952 q 283 950 283 949 q 283 957 283 951 l 283 939 q 278 876 283 910 q 271 809 273 842 q 275 745 269 776 q 302 694 281 714 q 261 669 287 678 q 206 673 235 660 q 148 630 180 646 q 76 598 117 613 q 81 584 76 591 q 94 568 87 577 q 106 548 101 559 q 112 521 112 537 l 245 542 q 253 523 252 534 q 253 500 255 513 q 248 474 251 488 q 245 446 245 460 q 256 405 259 417 q 239 388 253 392 q 205 385 226 384 q 162 385 184 387 q 122 378 141 384 q 95 352 103 371 q 105 296 95 324 q 131 238 116 267 q 161 247 146 238 q 188 256 176 256 q 255 281 217 271 q 322 277 292 291 l 322 125 l 436 144 q 438 160 436 150 q 440 179 440 170 q 435 194 440 188 q 416 200 430 200 q 432 215 430 207 q 433 232 434 223 q 430 251 432 241 q 436 277 429 262 q 442 287 436 284 q 457 293 448 291 q 475 295 465 295 q 491 295 484 295 q 536 305 519 295 q 568 316 554 316 q 573 275 568 294 q 584 238 579 256 q 592 202 590 220 q 587 162 594 184 l 624 162 q 647 173 631 169 q 678 186 662 178 q 705 205 694 194 q 717 238 717 217 q 703 253 705 245 q 702 269 701 260 q 705 289 703 278 q 701 316 706 300 q 695 328 701 321 q 684 342 689 335 q 676 357 678 349 q 683 371 674 364 q 727 364 703 364 q 776 366 751 363 q 825 376 801 370 q 870 389 849 382 q 859 463 870 432 q 834 521 848 494 q 760 494 791 509 q 701 466 728 480 q 681 482 685 473 q 677 503 677 492 q 680 523 677 513 q 683 542 683 534 q 677 567 683 556 q 668 587 671 578 q 666 603 664 595 q 683 617 667 610 q 724 613 703 610 q 766 623 745 616 q 809 639 787 630 q 853 656 830 649 l 834 789 q 789 776 813 781 q 741 766 765 771 q 696 753 717 762 q 662 731 676 745 l 644 731 q 641 784 644 759 q 636 832 638 809 q 635 878 634 856 q 644 921 637 899 q 643 948 644 935 q 637 972 642 962 q 619 989 631 982 q 587 996 608 996 m 662 958 l 662 769 q 687 772 675 769 q 709 779 699 776 q 731 786 720 783 q 757 790 742 790 q 788 797 771 790 q 821 810 805 805 q 850 813 837 816 q 870 790 863 810 q 862 746 863 767 q 863 703 862 724 q 867 660 864 681 q 870 617 870 638 q 851 620 856 625 q 845 602 846 614 q 842 573 844 589 q 834 542 841 556 q 875 473 862 514 q 889 390 889 433 q 870 358 875 376 q 861 324 864 341 q 853 288 857 306 q 834 256 848 270 q 805 265 819 265 q 778 264 791 266 q 755 259 766 262 q 738 256 745 256 q 739 195 745 220 q 719 146 734 169 q 684 101 705 123 q 644 50 664 79 q 626 66 637 63 q 606 64 616 68 q 585 55 595 61 q 568 50 574 50 q 565 40 568 44 q 550 32 559 32 q 538 34 544 32 q 529 50 529 38 l 512 201 l 473 201 q 465 172 466 186 q 461 147 463 159 q 454 124 459 134 q 435 105 449 113 q 430 91 435 98 q 421 77 424 84 q 419 63 417 70 q 435 50 420 56 q 432 36 435 43 q 426 23 429 29 q 416 11 420 18 q 343 0 374 11 q 283 -26 312 -11 q 280 -36 283 -31 q 265 -44 274 -44 q 249 -12 251 -30 q 248 21 247 4 q 251 56 249 39 q 245 87 252 73 q 238 115 238 101 q 238 141 237 129 q 242 164 240 154 q 245 182 245 175 q 160 170 202 182 q 76 144 118 158 q 63 128 68 137 q 56 111 59 118 q 48 101 52 104 q 37 105 44 98 q 42 135 44 119 q 35 166 40 150 q 25 200 30 182 q 19 239 19 218 q 33 284 26 259 q 50 329 40 308 q 76 366 61 350 q 112 390 91 383 q 142 400 127 390 q 172 409 156 409 l 172 447 q 102 438 141 447 q 19 429 62 429 q 11 445 12 436 q 9 465 9 455 q 8 486 9 476 q 0 505 6 497 q 6 541 0 526 q 20 569 12 556 q 38 592 29 581 q 55 617 48 604 q 97 626 76 617 q 139 648 119 635 q 177 673 159 660 q 207 694 194 685 q 209 739 207 715 q 214 788 212 763 q 216 837 216 813 q 207 883 215 862 q 213 908 207 896 q 226 930 219 920 q 239 952 233 941 q 245 977 245 963 q 259 985 252 984 q 274 987 266 987 q 288 988 281 987 q 302 996 295 989 q 330 999 316 996 q 356 1004 344 1002 q 379 1005 369 1006 q 396 996 389 1003 q 385 934 389 969 q 381 864 381 899 q 385 794 381 828 q 396 731 389 759 q 434 733 412 731 q 473 749 457 735 q 457 770 459 756 q 456 800 454 784 q 459 833 457 816 q 453 863 460 849 q 451 892 446 877 q 465 920 456 906 q 482 949 474 934 q 491 977 491 963 q 532 985 513 977 q 568 1003 550 994 q 604 1017 585 1012 q 644 1016 623 1023 l 662 958 "},"Ê":{"x_min":4.5625,"x_max":842.140625,"ha":838,"o":"m 506 -9 q 385 -12 446 -9 q 264 -30 323 -15 q 151 -76 205 -44 q 56 -168 98 -108 q 255 -137 157 -151 q 438 -123 353 -123 q 485 -114 463 -123 q 526 -96 508 -104 q 562 -86 545 -87 q 595 -101 578 -84 q 621 -93 612 -101 q 637 -73 631 -86 q 649 -43 644 -59 q 663 -9 655 -26 l 506 -9 m 506 394 l 506 350 q 534 356 515 358 q 575 357 554 355 q 614 371 595 359 q 641 416 633 383 q 574 413 607 416 q 506 394 541 411 m 438 755 q 489 758 463 755 q 541 761 515 761 q 591 755 566 761 q 641 733 616 750 q 675 731 658 733 q 704 731 691 729 q 724 743 716 733 q 732 779 732 754 q 661 772 698 770 q 586 775 623 773 q 511 775 548 777 q 438 755 473 772 m 123 822 l 56 755 q 62 544 56 653 q 73 324 69 435 q 75 99 77 212 q 56 -123 73 -14 l 147 -33 l 147 101 q 127 277 130 185 q 126 462 124 369 q 130 646 128 555 q 123 822 131 737 m 169 868 q 159 715 160 791 q 159 561 157 638 q 165 402 162 483 q 169 237 169 322 q 180 132 169 186 q 191 11 191 79 q 225 38 209 27 q 257 33 241 49 q 263 13 274 16 q 235 11 252 11 l 348 11 q 526 13 434 11 q 687 33 617 16 q 706 74 703 49 q 706 124 708 98 q 702 173 703 149 q 709 213 701 197 l 663 237 q 623 220 647 229 q 574 202 599 211 q 525 186 549 194 q 484 169 501 177 q 455 206 459 186 q 453 247 451 226 q 455 290 455 269 q 438 327 455 311 q 445 351 447 336 q 442 383 444 366 q 442 415 440 399 q 462 438 445 430 q 543 441 495 438 q 641 462 591 444 q 663 486 658 470 q 667 518 669 501 q 657 551 665 536 q 641 575 649 566 q 578 567 608 575 q 518 549 548 559 q 458 527 488 538 q 394 506 427 515 q 374 589 377 541 q 372 687 372 637 q 359 690 365 687 q 348 711 348 695 q 371 731 365 719 q 379 755 377 743 q 383 779 381 768 q 394 800 385 791 q 481 809 435 808 q 574 811 527 811 q 666 812 620 811 q 753 822 712 813 q 750 856 753 838 q 744 890 747 873 q 744 924 742 906 q 753 958 745 941 q 453 921 602 941 q 169 868 303 901 m 799 981 q 779 940 782 964 q 779 887 777 915 q 783 832 781 860 q 777 779 785 804 q 763 758 768 771 q 753 733 757 746 q 744 708 749 721 q 731 687 739 696 q 650 691 689 679 q 574 716 611 704 q 497 732 536 729 q 416 711 459 736 l 416 552 q 479 573 449 561 q 540 595 510 584 q 600 613 570 605 q 663 621 629 621 q 686 582 679 604 q 694 538 692 561 q 698 489 696 515 q 709 438 700 463 q 679 427 692 438 q 655 400 666 416 q 636 363 645 383 q 618 327 627 344 l 506 305 l 506 237 q 572 233 539 220 q 638 262 606 247 q 699 278 670 277 q 753 237 728 279 q 743 183 745 212 q 744 124 742 154 q 750 65 746 94 q 753 10 753 35 q 722 -12 736 5 q 695 -53 709 -30 q 666 -98 681 -75 q 632 -134 652 -121 q 588 -146 613 -147 q 529 -123 563 -146 q 407 -144 470 -132 q 278 -166 343 -155 q 146 -184 213 -176 q 10 -192 78 -192 q 20 -171 19 -183 q 21 -143 21 -158 q 23 -111 21 -128 q 33 -78 24 -94 q 30 327 33 124 q 10 733 27 529 l 10 755 q 48 777 33 761 q 78 812 64 793 q 103 852 91 832 q 131 887 116 872 q 166 910 146 903 q 214 912 185 918 q 361 933 289 921 q 505 955 434 944 q 650 973 577 965 q 799 981 722 981 m 65 1045 l 74 1045 q 82 1049 78 1049 q 87 1043 87 1049 q 83 1035 87 1039 l 169 1025 q 179 1045 172 1036 q 194 1063 186 1054 q 208 1078 201 1071 q 214 1093 214 1085 q 178 1105 197 1105 q 148 1098 162 1105 q 119 1082 133 1092 q 92 1063 105 1072 q 65 1045 79 1053 m 711 1139 q 699 1114 708 1123 q 678 1097 689 1105 q 655 1079 667 1089 q 635 1055 643 1069 l 731 1083 q 749 1108 737 1097 q 770 1130 760 1119 q 788 1151 781 1140 q 796 1176 796 1162 q 753 1165 775 1176 q 711 1139 732 1154 m 449 1251 q 446 1249 447 1251 q 443 1248 444 1248 q 420 1232 430 1240 q 403 1213 410 1224 q 486 1133 444 1177 q 569 1062 528 1090 q 594 1053 583 1053 q 614 1060 606 1053 q 630 1078 622 1068 q 646 1098 637 1088 q 665 1111 654 1108 q 561 1191 617 1152 q 449 1251 506 1230 m 374 1427 l 279 1372 q 165 1229 222 1301 q 65 1072 107 1158 q 88 1091 79 1080 q 111 1111 97 1102 q 162 1196 129 1156 q 233 1273 194 1236 q 308 1348 271 1311 q 374 1427 346 1386 m 411 1439 q 346 1360 383 1396 q 271 1288 310 1324 q 199 1213 233 1252 q 139 1128 164 1174 q 190 1119 167 1128 q 242 1111 214 1111 q 264 1121 251 1121 q 279 1111 275 1121 q 351 1198 315 1153 q 430 1279 387 1243 l 458 1289 q 509 1256 483 1271 q 560 1226 535 1242 q 610 1192 586 1210 q 656 1148 635 1174 q 726 1176 692 1155 q 796 1204 760 1197 q 749 1232 775 1225 q 703 1260 724 1239 q 636 1297 667 1274 q 576 1344 606 1320 q 518 1391 547 1368 q 458 1428 489 1414 q 444 1418 450 1418 q 429 1429 436 1418 q 411 1439 422 1439 m 449 1455 q 534 1411 494 1438 q 612 1353 574 1383 q 691 1292 651 1322 q 776 1242 731 1263 q 805 1228 792 1242 q 829 1214 818 1214 q 842 1224 836 1214 q 819 1159 842 1192 q 769 1096 796 1126 l 758 1083 q 762 1076 760 1081 q 768 1063 768 1068 q 688 1044 725 1057 q 607 1018 651 1030 q 571 1033 586 1018 q 535 1063 556 1048 q 459 1134 499 1099 q 383 1204 419 1169 q 353 1169 367 1190 q 324 1130 339 1149 q 290 1097 308 1111 q 242 1083 271 1083 q 221 1060 230 1075 q 204 1032 212 1046 q 185 1007 196 1018 q 160 997 175 997 q 130 1007 146 997 q 88 1017 110 1007 q 43 1027 67 1027 q 7 1018 25 1027 q 4 1022 4 1018 q 5 1032 4 1026 q 7 1044 7 1038 q 59 1127 29 1087 q 121 1208 89 1168 q 185 1289 154 1248 q 242 1372 217 1330 l 403 1465 q 407 1463 404 1463 q 429 1472 417 1463 q 449 1482 442 1482 q 453 1475 453 1482 q 449 1455 453 1469 "},")":{"x_min":15.28125,"x_max":766.125,"ha":807,"o":"m 295 -200 l 272 -245 q 297 -301 290 -272 q 310 -359 304 -330 q 327 -413 316 -387 q 365 -455 338 -438 l 436 -409 q 404 -354 418 -383 q 374 -296 390 -325 q 340 -242 358 -268 q 295 -200 322 -216 m 224 966 l 202 922 q 171 923 184 930 q 147 901 158 916 q 126 865 135 886 q 109 827 117 845 q 271 681 205 766 q 376 497 337 595 q 430 292 416 399 q 436 80 444 185 q 486 176 470 124 q 503 285 501 229 q 498 401 505 341 q 483 523 491 462 q 445 648 465 584 q 397 772 426 712 q 327 881 369 831 q 224 966 286 931 m 131 1154 q 97 1093 113 1127 q 73 1022 81 1059 q 66 947 65 986 q 84 874 68 909 q 138 934 129 901 q 144 1005 148 968 q 131 1081 140 1043 q 131 1154 123 1119 m 179 1201 l 179 1013 l 203 1013 q 319 938 272 987 q 398 831 365 890 q 455 709 430 772 q 505 594 479 647 q 550 388 550 488 q 521 191 550 287 q 444 4 493 95 q 343 -175 396 -87 q 363 -207 351 -193 q 386 -236 375 -220 q 405 -270 397 -252 q 412 -315 412 -289 q 430 -336 421 -325 q 447 -354 439 -347 q 464 -359 455 -361 q 483 -340 473 -357 q 661 27 605 -164 q 717 430 717 219 q 707 569 708 501 q 696 699 707 637 q 653 811 685 761 q 553 897 622 862 q 464 986 508 940 q 375 1074 421 1033 q 280 1149 329 1116 q 179 1201 232 1183 m 458 1037 q 579 941 520 994 q 681 824 637 888 q 748 686 725 761 q 763 523 772 611 q 743 300 754 409 q 713 88 733 191 q 661 -109 693 -14 q 576 -293 629 -205 q 526 -358 550 -327 q 479 -415 502 -389 q 427 -463 455 -441 q 365 -503 400 -484 q 289 -417 312 -466 q 250 -315 266 -368 q 227 -312 230 -315 q 225 -293 225 -309 q 266 -191 243 -240 q 343 -107 290 -141 q 383 15 377 -54 q 388 173 388 85 q 379 378 397 279 q 318 565 362 477 q 205 725 275 652 q 40 851 136 798 q 43 885 40 868 q 45 918 45 902 q 39 945 45 933 q 15 966 33 958 l 131 1225 q 229 1209 184 1225 q 313 1166 273 1193 q 388 1106 352 1140 q 458 1037 423 1072 "},"â":{"x_min":20.046875,"x_max":867.453125,"ha":883,"o":"m 798 84 q 741 65 770 69 q 683 45 712 61 q 664 16 676 30 q 640 -11 652 2 q 618 -40 627 -26 q 609 -68 609 -54 l 627 -68 q 686 -44 655 -54 q 741 -20 716 -34 q 782 17 766 -6 q 798 84 798 41 m 627 101 q 605 68 613 87 q 592 27 597 48 q 582 -15 587 5 q 570 -50 577 -36 q 595 -10 577 -29 q 627 26 613 8 q 645 62 641 44 q 627 101 648 80 m 456 482 q 402 457 429 482 q 363 404 376 433 q 408 408 384 411 q 454 395 431 405 q 497 368 477 384 q 531 329 518 351 l 515 311 l 438 368 q 409 370 423 368 q 381 375 395 373 q 353 376 368 377 q 325 368 338 375 q 327 329 325 352 q 344 291 329 306 q 377 280 358 284 q 418 276 397 276 q 460 280 440 276 q 495 291 480 284 q 525 312 509 298 q 554 343 541 326 q 572 381 566 361 q 570 423 577 402 q 544 448 555 437 q 520 467 533 459 q 493 478 508 475 q 456 482 479 482 m 154 481 q 109 420 125 452 q 85 355 94 388 q 71 286 76 322 q 59 216 66 251 q 54 137 45 173 q 84 70 62 101 q 134 15 105 40 q 193 -30 163 -9 q 280 -70 234 -66 q 372 -59 326 -73 q 463 -19 418 -44 q 551 26 509 5 l 590 101 q 518 57 554 80 q 445 18 483 34 q 368 -2 408 2 q 286 6 329 -6 q 203 75 243 36 q 134 158 163 115 q 109 327 106 244 q 154 481 111 411 m 590 424 q 591 351 605 382 q 531 292 576 319 q 438 247 490 250 q 344 272 386 244 q 324 293 329 279 q 315 323 319 307 q 305 356 311 339 q 286 388 300 372 q 327 424 308 401 q 365 467 345 446 q 406 504 384 489 q 456 520 427 520 q 538 486 501 504 q 590 424 575 468 m 647 690 q 628 669 633 683 q 623 639 623 655 q 625 606 623 623 q 627 575 627 588 q 602 552 613 547 q 580 576 591 558 q 557 613 569 594 q 531 633 545 633 q 515 630 525 633 q 495 625 505 627 q 474 625 484 623 q 456 633 463 626 q 374 628 413 633 q 305 594 334 623 q 242 552 270 579 q 192 492 213 526 q 156 420 170 458 q 134 348 141 383 q 142 265 134 306 q 168 186 150 223 q 215 117 186 148 q 286 65 244 86 q 400 45 344 36 q 515 84 456 55 q 551 106 536 90 q 580 139 566 122 q 610 173 594 156 q 647 197 626 190 q 663 168 661 181 q 663 140 665 154 q 660 112 661 126 q 666 84 659 98 q 693 91 680 90 q 719 93 707 93 q 743 93 732 93 q 761 101 754 94 q 809 109 795 94 q 827 147 823 125 q 829 195 830 170 q 836 236 829 220 q 813 350 822 293 q 796 463 805 406 q 775 576 787 519 q 741 690 762 633 l 647 690 m 779 690 q 785 632 779 661 q 798 573 791 604 q 811 511 805 543 q 818 443 818 479 q 836 357 825 400 q 857 272 848 315 q 867 187 866 230 q 854 101 868 144 q 832 70 840 87 q 818 36 825 54 q 802 0 811 18 q 779 -30 793 -16 q 730 -52 758 -44 q 675 -70 702 -61 q 619 -91 647 -79 q 570 -125 591 -104 q 550 -96 555 -111 q 543 -68 545 -81 q 540 -40 541 -54 q 531 -11 538 -26 q 461 -52 497 -31 q 388 -84 426 -72 q 311 -99 351 -97 q 229 -86 272 -101 q 147 -36 187 -65 q 76 27 106 -8 q 30 104 45 62 q 22 197 15 147 q 104 436 37 326 q 286 633 172 547 q 303 627 293 626 q 326 634 313 629 q 352 645 338 640 q 380 651 366 651 q 429 661 402 658 q 485 661 456 665 q 541 646 513 658 q 590 613 568 634 q 596 647 597 627 q 597 682 595 666 q 608 706 598 697 q 647 708 618 715 q 713 706 675 708 q 779 690 751 704 m 107 748 l 115 748 q 123 752 119 752 q 128 746 128 752 q 124 738 128 742 l 203 729 q 212 748 206 740 q 226 765 219 757 q 239 780 233 773 q 244 795 244 787 q 211 806 229 806 q 184 800 197 806 q 157 784 170 794 q 132 765 145 775 q 107 748 120 756 m 703 838 q 692 815 701 824 q 672 798 683 806 q 651 781 662 790 q 633 758 640 772 l 721 785 q 738 809 727 798 q 758 830 748 820 q 774 851 767 840 q 781 875 781 861 q 742 864 762 875 q 703 838 722 853 m 461 946 q 458 945 460 946 q 456 944 457 944 q 435 928 444 936 q 419 910 425 921 q 496 833 457 875 q 572 765 534 791 q 596 756 585 756 q 613 763 606 756 q 628 780 621 770 q 643 799 635 790 q 661 811 651 809 q 565 889 616 851 q 461 946 514 926 m 392 1116 l 305 1063 q 199 926 252 995 q 107 774 146 857 q 129 793 120 782 q 150 811 137 803 q 196 894 166 855 q 262 968 227 932 q 332 1040 297 1004 q 392 1116 366 1076 m 426 1127 q 367 1051 401 1086 q 298 982 333 1016 q 230 910 262 947 q 175 828 198 872 q 223 820 201 828 q 270 811 244 811 q 291 821 279 821 q 305 811 301 821 q 371 895 338 852 q 444 974 405 939 l 470 983 q 517 952 493 966 q 564 922 540 938 q 610 889 588 907 q 652 848 633 872 q 717 875 685 854 q 781 902 748 895 q 738 928 762 922 q 695 955 715 935 q 634 990 662 968 q 579 1036 606 1012 q 525 1081 552 1059 q 470 1117 498 1103 q 457 1107 462 1107 q 443 1117 449 1107 q 426 1127 437 1127 m 461 1143 q 540 1100 503 1127 q 612 1044 576 1073 q 685 986 648 1015 q 763 938 721 958 q 790 924 777 938 q 812 911 802 911 q 824 920 818 911 q 802 858 824 889 q 757 797 781 827 l 747 785 q 751 779 748 783 q 756 765 756 771 q 682 747 716 760 q 607 722 648 734 q 574 737 588 722 q 540 765 560 752 q 471 834 507 800 q 401 901 434 868 q 373 868 385 888 q 346 830 360 848 q 314 799 332 812 q 270 785 297 785 q 252 763 260 777 q 236 735 243 749 q 218 712 228 722 q 195 702 209 702 q 168 711 182 702 q 129 721 148 711 q 87 731 109 731 q 54 722 70 731 q 51 726 51 722 q 52 736 51 730 q 54 747 54 742 q 102 828 74 789 q 159 905 129 866 q 218 983 189 944 q 270 1063 247 1023 l 419 1152 q 423 1151 420 1151 q 443 1159 432 1151 q 461 1168 455 1168 q 465 1161 465 1168 q 461 1143 465 1156 "},"}":{"x_min":23.796875,"x_max":677.046875,"ha":703,"o":"m 204 -350 l 204 -234 l 156 -350 q 163 -385 165 -368 q 156 -418 161 -402 q 150 -447 152 -434 q 156 -468 148 -459 l 204 -350 m 576 -116 q 419 -295 505 -222 q 226 -420 332 -368 l 204 -420 l 179 -513 q 211 -506 197 -513 q 238 -491 225 -500 q 265 -475 251 -481 q 297 -468 279 -468 q 403 -416 350 -450 q 498 -336 457 -381 q 562 -234 540 -290 q 576 -116 585 -177 m 390 279 l 341 231 q 393 172 377 205 q 416 101 409 138 q 425 25 422 63 q 437 -47 427 -12 l 483 -1 q 501 100 501 51 q 483 186 501 150 q 475 227 483 212 q 454 250 468 241 q 425 264 441 258 q 390 279 408 270 m 624 420 l 576 325 q 579 305 576 308 q 600 302 582 302 q 603 334 600 320 q 612 361 607 348 q 620 388 617 375 q 624 420 624 402 m 341 420 l 319 395 q 337 372 328 379 q 355 361 346 365 q 373 350 364 356 q 390 325 382 343 l 366 325 l 390 302 q 401 331 390 320 q 425 350 412 341 q 448 368 437 358 q 460 395 460 379 q 428 400 441 395 q 400 408 414 404 q 373 416 387 412 q 341 420 359 420 m 179 1027 l 179 1003 q 168 1024 179 1018 q 156 1027 162 1027 q 139 1019 148 1027 q 121 1000 130 1011 q 103 977 112 989 q 86 956 94 965 q 120 966 104 965 q 153 965 137 967 q 181 959 169 963 q 204 956 194 956 q 291 892 255 931 q 345 808 326 854 q 370 711 365 763 q 366 607 375 660 q 376 583 375 599 q 375 549 377 567 q 370 515 373 531 q 366 489 366 499 q 416 683 401 578 q 412 910 431 788 q 370 967 395 945 q 313 1004 344 990 q 248 1022 283 1017 q 179 1027 213 1027 m 133 1026 l 133 1143 l 63 1073 q 40 1041 45 1055 q 36 1014 34 1027 q 47 987 38 1001 q 63 955 55 973 l 133 1026 m 179 1143 q 157 1135 162 1143 q 151 1117 151 1128 q 154 1094 151 1105 q 157 1074 157 1082 q 209 1066 183 1074 q 262 1047 236 1058 q 314 1023 287 1036 q 366 1003 340 1011 l 460 887 q 446 714 460 798 q 412 558 432 630 q 409 528 412 542 q 401 501 405 514 q 394 473 397 487 q 390 443 390 460 q 414 432 398 435 q 448 428 430 430 q 482 420 465 426 q 507 396 498 414 q 460 340 489 361 q 412 303 432 319 l 483 255 q 516 162 501 203 q 530 69 530 122 q 519 21 530 43 q 489 -21 507 -1 q 450 -58 471 -41 q 412 -94 430 -76 q 390 -110 396 -110 q 366 -94 384 -110 q 331 -126 348 -112 q 296 -153 314 -139 q 262 -180 279 -166 q 226 -212 244 -194 q 229 -292 226 -245 q 250 -374 232 -338 q 340 -323 293 -356 q 433 -248 387 -290 q 522 -160 479 -206 q 600 -70 565 -114 q 629 -10 617 -44 q 646 61 642 23 q 646 137 651 98 q 623 210 642 175 q 613 220 615 210 q 609 241 611 230 q 601 258 607 253 q 576 255 594 264 q 569 283 576 273 q 553 299 562 293 q 537 311 544 305 q 530 325 530 316 q 585 396 565 361 q 624 465 605 432 l 624 489 l 553 489 q 536 486 544 489 q 519 483 528 483 q 501 489 510 483 q 483 514 492 496 q 522 567 501 540 q 562 621 543 593 q 599 681 582 650 q 624 747 615 712 q 611 833 624 790 q 576 916 598 876 q 524 989 554 955 q 460 1050 494 1023 q 319 1097 389 1068 q 179 1143 250 1126 m 157 1166 q 210 1168 183 1175 q 262 1152 236 1162 q 314 1131 287 1141 q 366 1121 340 1121 q 453 1073 410 1102 q 532 1005 496 1043 q 599 925 569 968 q 646 840 629 883 q 649 787 655 814 q 632 734 643 761 q 610 682 621 708 q 600 629 600 655 q 564 582 582 612 q 530 536 547 552 q 568 525 547 527 q 608 521 589 523 q 644 513 628 519 q 671 489 661 507 q 655 437 661 464 q 646 384 650 411 q 637 332 642 358 q 623 279 632 305 q 644 226 632 252 q 664 171 655 200 q 676 111 672 143 q 671 45 679 80 q 625 -49 635 1 q 611 -149 615 -99 q 597 -246 607 -199 q 553 -327 587 -293 q 478 -404 518 -372 q 395 -459 439 -436 q 303 -502 351 -483 q 204 -538 255 -520 q 180 -529 190 -531 q 164 -527 171 -526 q 157 -538 157 -529 q 136 -544 139 -555 q 133 -513 133 -533 l 133 -349 q 157 -304 150 -333 q 174 -248 165 -276 q 199 -196 183 -220 q 250 -163 215 -172 q 299 -131 268 -145 q 358 -97 330 -116 q 404 -49 386 -77 q 412 22 422 -22 q 401 77 404 48 q 392 133 398 107 q 370 180 386 159 q 319 209 354 201 q 330 230 319 218 q 348 256 340 243 q 358 282 357 269 q 341 302 360 294 q 328 323 333 311 q 319 345 323 334 q 310 364 315 357 q 297 372 305 372 q 313 421 305 398 q 327 466 321 444 q 337 509 333 487 q 341 558 341 532 q 350 666 351 611 q 333 771 348 720 q 287 864 318 822 q 204 933 255 907 q 169 936 186 933 q 135 941 151 939 q 107 942 119 943 q 86 933 94 941 q 73 929 78 933 q 66 920 69 925 q 64 909 64 915 l 40 933 q 43 965 48 951 q 31 991 37 979 q 23 1018 25 1004 q 40 1050 22 1032 q 51 1084 40 1066 q 78 1119 62 1101 q 108 1155 93 1137 q 133 1189 123 1172 q 154 1177 148 1189 q 157 1166 157 1172 "},"Ä":{"x_min":-8.0625,"x_max":1058.703125,"ha":1075,"o":"m 200 -6 q 145 -4 166 1 q 110 -26 123 -11 q 87 -65 96 -41 q 71 -116 79 -90 q 171 -87 119 -97 q 272 -63 223 -77 q 360 -22 321 -48 q 423 54 400 2 q 319 24 376 38 q 200 -6 262 9 m 868 54 q 823 59 844 54 q 783 61 801 63 q 755 45 765 59 q 745 -6 745 30 q 804 14 776 9 q 847 33 832 19 q 882 50 861 50 q 921 50 903 50 q 953 57 940 50 q 967 94 967 65 q 908 75 935 80 q 868 54 882 70 m 636 326 q 626 252 619 289 q 648 179 633 215 q 677 107 662 143 q 692 33 692 70 q 699 107 701 70 q 687 179 697 143 q 664 252 678 215 q 636 326 650 289 m 615 347 q 553 344 584 347 q 493 326 522 341 l 493 225 l 514 225 q 559 238 543 225 q 586 270 576 251 q 601 310 596 289 q 615 347 607 332 m 513 516 l 493 558 l 493 516 l 513 516 m 493 680 l 475 619 l 493 619 q 509 587 501 604 q 525 556 516 569 q 546 536 534 543 q 575 537 558 529 q 553 569 566 554 q 526 602 540 584 q 502 638 512 619 q 493 680 493 657 m 554 619 q 575 592 562 604 q 600 566 588 580 q 617 536 611 552 q 615 498 623 520 q 581 467 600 470 q 541 469 562 463 q 497 481 520 475 q 450 481 473 487 q 438 527 440 502 q 440 579 437 552 q 446 631 443 605 q 450 680 450 657 q 454 697 450 687 q 466 718 458 708 q 486 734 475 727 q 513 741 498 741 q 534 720 529 734 q 540 688 538 707 q 544 652 543 670 q 554 619 545 634 m 302 812 l 181 659 q 157 486 173 572 q 122 314 141 401 q 84 138 104 227 q 49 -44 65 50 q 68 -19 58 -30 q 85 1 77 -8 q 95 18 93 11 q 91 33 98 26 q 159 223 125 129 q 223 414 194 318 q 273 610 252 511 q 302 812 294 709 m 343 870 q 318 659 336 762 q 271 455 300 555 q 206 255 243 355 q 126 54 169 155 l 182 76 q 189 72 189 76 q 189 63 190 69 q 184 49 187 57 q 182 33 182 41 q 320 48 257 33 q 450 94 383 63 q 452 125 450 108 q 455 157 455 141 q 449 185 455 172 q 423 207 443 198 q 446 251 443 229 q 448 296 448 273 q 452 341 448 319 q 475 387 455 364 q 514 378 489 379 q 566 384 539 377 q 623 400 594 390 q 673 426 651 411 l 673 408 q 696 325 690 369 q 711 241 703 280 q 735 172 719 201 q 786 133 750 143 l 786 94 q 864 114 832 109 q 925 133 896 119 q 754 543 850 340 q 554 952 658 747 q 441 919 494 936 q 343 870 387 902 m 593 930 q 698 742 650 836 q 792 557 747 648 q 879 377 836 465 q 967 207 922 289 q 972 160 960 179 q 997 125 985 141 q 1012 93 1010 109 q 989 54 1015 76 q 1005 59 996 54 q 1023 69 1014 65 q 1042 71 1033 73 q 1058 54 1051 69 q 1050 33 1058 38 q 1030 23 1042 27 q 1008 13 1019 19 q 989 -6 996 8 q 918 -1 950 1 q 855 -11 886 -4 q 791 -28 823 -18 q 717 -44 758 -38 q 704 -52 710 -49 q 692 -44 692 -58 q 671 17 679 -15 q 651 82 662 50 q 623 147 640 115 q 575 207 605 179 l 493 184 q 501 108 507 144 q 475 38 494 72 q 425 -24 455 5 q 361 -83 394 -54 q 210 -124 286 -108 q 50 -156 133 -141 q 28 -165 33 -156 q 9 -175 23 -175 l -8 -156 q 25 29 5 -62 q 64 213 46 120 q 96 400 83 305 q 110 598 110 496 q 99 605 103 598 q 96 622 96 612 q 99 642 96 632 q 110 659 103 653 q 164 707 136 683 q 215 758 191 732 q 256 812 239 785 q 282 871 273 840 q 346 914 311 893 q 420 953 382 936 q 498 981 458 971 q 575 992 537 992 q 592 978 590 985 q 592 963 594 971 q 588 947 590 955 q 593 930 586 939 m 230 1136 q 186 1074 202 1104 q 154 1011 169 1043 q 220 1016 191 1004 q 274 1052 249 1029 q 321 1104 299 1075 q 365 1157 343 1133 q 333 1142 350 1149 q 298 1130 316 1135 q 263 1127 280 1126 q 230 1136 246 1127 m 193 1339 q 153 1274 163 1308 q 141 1206 143 1241 q 140 1138 140 1172 q 133 1073 141 1104 q 192 1129 177 1096 q 208 1199 208 1162 q 200 1271 208 1235 q 193 1339 193 1308 m 230 1358 l 230 1176 q 264 1150 246 1152 q 301 1155 282 1147 q 341 1175 320 1162 q 384 1194 362 1188 q 392 1241 391 1217 q 391 1290 393 1265 q 386 1341 389 1314 q 384 1399 384 1368 q 300 1387 340 1399 q 230 1358 261 1374 m 423 1358 q 421 1301 423 1328 q 416 1249 418 1274 q 415 1201 414 1224 q 423 1157 416 1179 q 388 1124 409 1140 q 350 1091 368 1108 q 320 1054 333 1074 q 308 1011 308 1035 q 262 993 287 996 q 212 990 238 990 q 162 988 187 990 q 114 971 137 986 q 112 956 114 956 q 96 971 110 956 q 119 1107 110 1033 q 114 1256 128 1181 l 193 1399 q 309 1412 252 1399 q 423 1440 365 1425 q 429 1413 431 1425 q 423 1392 428 1401 q 418 1374 419 1382 q 423 1358 416 1366 m 617 1170 q 571 1108 587 1138 q 540 1048 555 1079 q 605 1051 575 1039 q 660 1086 635 1063 q 708 1138 685 1109 q 753 1191 731 1167 q 720 1176 738 1183 q 685 1165 703 1169 q 649 1162 667 1161 q 617 1170 632 1162 m 578 1373 q 539 1308 549 1342 q 527 1241 529 1275 q 527 1172 526 1206 q 520 1107 528 1138 q 579 1163 564 1130 q 593 1233 593 1197 q 585 1306 593 1269 q 578 1373 578 1342 m 618 1393 l 618 1210 q 650 1185 632 1188 q 687 1190 668 1182 q 728 1210 707 1198 q 769 1230 749 1222 q 778 1276 777 1253 q 777 1324 779 1299 q 773 1376 776 1349 q 769 1435 769 1404 q 687 1421 728 1435 q 618 1393 647 1408 m 810 1393 q 807 1335 810 1362 q 803 1283 805 1308 q 802 1236 801 1258 q 810 1191 803 1213 q 775 1160 794 1176 q 737 1126 755 1144 q 706 1090 718 1109 q 693 1048 693 1070 q 647 1028 671 1031 q 597 1026 622 1026 q 547 1023 572 1026 q 500 1005 522 1021 q 498 990 500 990 q 481 1005 495 990 q 495 1070 488 1036 q 505 1141 501 1105 q 508 1215 509 1178 q 500 1290 508 1253 l 577 1434 q 694 1447 637 1434 q 810 1474 752 1459 q 815 1447 816 1459 q 810 1426 813 1436 q 804 1408 806 1416 q 810 1393 803 1400 "},"a":{"x_min":20.046875,"x_max":867.453125,"ha":883,"o":"m 798 84 q 741 65 770 69 q 683 45 712 61 q 664 16 676 30 q 640 -11 652 2 q 618 -40 627 -26 q 609 -68 609 -54 l 627 -68 q 686 -44 655 -54 q 741 -20 716 -34 q 782 17 766 -6 q 798 84 798 41 m 627 101 q 605 68 613 87 q 592 27 597 48 q 582 -15 587 5 q 570 -50 577 -36 q 595 -10 577 -29 q 627 26 613 8 q 645 62 641 44 q 627 101 648 80 m 456 482 q 402 457 429 482 q 363 404 376 433 q 408 408 384 411 q 454 395 431 405 q 497 368 477 384 q 531 329 518 351 l 515 311 l 438 368 q 409 370 423 368 q 381 375 395 373 q 353 376 368 377 q 325 368 338 375 q 327 329 325 352 q 344 291 329 306 q 377 280 358 284 q 418 276 397 276 q 460 280 440 276 q 495 291 480 284 q 525 312 509 298 q 554 343 541 326 q 572 381 566 361 q 570 423 577 402 q 544 448 555 437 q 520 467 533 459 q 493 478 508 475 q 456 482 479 482 m 154 481 q 109 420 125 452 q 85 355 94 388 q 71 286 76 322 q 59 216 66 251 q 54 137 45 173 q 84 70 62 101 q 134 15 105 40 q 193 -30 163 -9 q 280 -70 234 -66 q 372 -59 326 -73 q 463 -19 418 -44 q 551 26 509 5 l 590 101 q 518 57 554 80 q 445 18 483 34 q 368 -2 408 2 q 286 6 329 -6 q 203 75 243 36 q 134 158 163 115 q 109 327 106 244 q 154 481 111 411 m 590 424 q 591 351 605 382 q 531 292 576 319 q 438 247 490 250 q 344 272 386 244 q 324 293 329 279 q 315 323 319 307 q 305 356 311 339 q 286 388 300 372 q 327 424 308 401 q 365 467 345 446 q 406 504 384 489 q 456 520 427 520 q 538 486 501 504 q 590 424 575 468 m 647 690 q 628 669 633 683 q 623 639 623 655 q 625 606 623 623 q 627 575 627 588 q 602 552 613 547 q 580 576 591 558 q 557 613 569 594 q 531 633 545 633 q 515 630 525 633 q 495 625 505 627 q 474 625 484 623 q 456 633 463 626 q 374 628 413 633 q 305 594 334 623 q 242 552 270 579 q 192 492 213 526 q 156 420 170 458 q 134 348 141 383 q 142 265 134 306 q 168 186 150 223 q 215 117 186 148 q 286 65 244 86 q 400 45 344 36 q 515 84 456 55 q 551 106 536 90 q 580 139 566 122 q 610 173 594 156 q 647 197 626 190 q 663 168 661 181 q 663 140 665 154 q 660 112 661 126 q 666 84 659 98 q 693 91 680 90 q 719 93 707 93 q 743 93 732 93 q 761 101 754 94 q 809 109 795 94 q 827 147 823 125 q 829 195 830 170 q 836 236 829 220 q 813 350 822 293 q 796 463 805 406 q 775 576 787 519 q 741 690 762 633 l 647 690 m 779 690 q 785 632 779 661 q 798 573 791 604 q 811 511 805 543 q 818 443 818 479 q 836 357 825 400 q 857 272 848 315 q 867 187 866 230 q 854 101 868 144 q 832 70 840 87 q 818 36 825 54 q 802 0 811 18 q 779 -30 793 -16 q 730 -52 758 -44 q 675 -70 702 -61 q 619 -91 647 -79 q 570 -125 591 -104 q 550 -96 555 -111 q 543 -68 545 -81 q 540 -40 541 -54 q 531 -11 538 -26 q 461 -52 497 -31 q 388 -84 426 -72 q 311 -99 351 -97 q 229 -86 272 -101 q 147 -36 187 -65 q 76 27 106 -8 q 30 104 45 62 q 22 197 15 147 q 104 436 37 326 q 286 633 172 547 q 303 627 293 626 q 326 634 313 629 q 352 645 338 640 q 380 651 366 651 q 429 661 402 658 q 485 661 456 665 q 541 646 513 658 q 590 613 568 634 q 596 647 597 627 q 597 682 595 666 q 608 706 598 697 q 647 708 618 715 q 713 706 675 708 q 779 690 751 704 "},"—":{"x_min":16.671875,"x_max":1483.453125,"ha":1502,"o":"m 652 301 q 524 293 587 291 q 397 298 461 295 q 271 302 334 302 q 143 287 208 302 q 113 279 127 283 q 87 269 98 276 q 69 252 76 263 q 62 221 62 241 q 205 223 122 223 q 383 218 288 222 q 578 212 477 215 q 773 210 679 209 q 951 216 868 211 q 1094 234 1034 221 q 1178 230 1134 229 q 1265 241 1222 230 q 1347 272 1308 251 q 1416 328 1386 293 q 1323 316 1383 320 q 1191 309 1263 312 q 1040 304 1119 306 q 887 301 961 302 q 752 301 813 301 q 652 301 690 301 m 88 396 q 47 325 58 365 q 36 234 36 284 l 62 275 q 93 300 87 284 q 95 334 98 316 q 88 368 93 352 q 88 396 84 384 m 586 427 q 351 423 475 427 q 116 410 227 420 q 114 379 116 394 q 111 351 112 364 q 110 329 109 339 q 116 315 111 319 q 186 319 151 315 q 256 327 222 323 q 322 332 290 330 q 384 328 354 333 q 495 327 427 328 q 643 325 563 326 q 807 323 722 323 q 970 322 891 322 q 1117 323 1050 322 q 1229 328 1184 325 q 1341 346 1288 338 q 1443 355 1393 355 q 1449 395 1443 374 q 1455 435 1455 415 q 1338 434 1408 435 q 1186 433 1268 433 q 1016 431 1104 432 q 847 429 929 429 q 697 427 766 428 q 586 427 629 427 m 1483 450 q 1477 417 1479 435 q 1475 382 1476 400 q 1469 348 1473 365 q 1455 315 1465 330 q 1402 291 1426 315 q 1348 247 1379 268 l 1339 230 q 1323 229 1329 234 q 1310 218 1316 223 q 1298 212 1304 212 q 1282 227 1291 212 q 1201 215 1254 220 q 1082 204 1148 209 q 941 197 1015 199 q 797 192 866 194 q 668 190 727 190 q 572 193 608 190 q 439 193 506 188 q 302 204 372 198 q 163 208 233 209 q 22 193 93 208 q 16 218 16 208 q 18 238 16 229 q 21 261 19 248 q 23 294 23 273 l 36 368 q 69 397 55 379 q 102 434 83 415 l 129 428 q 257 431 181 428 q 420 439 333 435 q 599 448 506 443 q 779 456 691 453 q 945 457 868 458 q 1080 450 1023 456 q 1180 462 1130 460 q 1281 465 1230 465 q 1382 462 1332 464 q 1483 463 1433 461 l 1483 450 "},"=":{"x_min":19.671875,"x_max":488.03125,"ha":531,"o":"m 268 205 q 193 189 231 193 q 120 172 156 184 q 94 153 107 172 q 69 122 82 135 l 120 122 q 200 121 163 115 q 272 137 238 126 q 338 162 307 147 q 400 189 370 176 q 341 203 376 201 q 268 205 306 205 m 136 337 q 84 252 99 300 q 69 155 69 204 l 136 221 q 142 279 136 246 q 136 337 147 312 m 383 371 q 331 356 358 358 q 276 354 304 354 q 220 352 248 354 q 168 337 193 350 l 168 271 q 163 251 161 258 q 168 239 165 244 q 172 230 170 234 q 168 221 173 226 q 292 227 230 221 q 416 221 354 233 l 416 321 q 409 335 409 326 q 406 352 408 344 q 400 365 404 359 q 383 371 395 371 m 433 371 q 442 287 433 333 q 450 206 450 242 l 433 189 q 387 169 408 182 q 343 141 365 156 q 299 116 321 126 q 252 106 277 106 q 199 100 227 99 q 144 103 172 101 q 88 103 115 106 q 36 89 61 101 l 19 106 q 36 133 32 118 q 42 166 40 149 q 45 201 44 183 q 53 237 46 219 q 64 274 53 256 q 90 310 75 293 q 122 343 105 328 q 152 371 139 358 q 174 381 164 383 q 185 354 185 379 q 240 376 210 372 q 301 379 270 379 q 362 382 332 379 q 417 404 392 385 q 426 399 424 404 q 431 387 428 394 l 433 371 m 69 469 q 158 479 112 475 q 247 492 204 484 q 330 513 290 500 q 400 552 369 527 q 311 546 357 545 q 222 542 265 547 q 139 522 179 537 q 69 469 100 506 m 120 701 q 78 659 87 683 q 69 608 69 634 q 72 554 69 581 q 69 502 75 527 l 69 519 q 119 538 107 519 q 132 586 132 558 q 126 645 132 613 q 120 701 120 676 m 433 718 q 299 736 371 743 q 152 718 227 730 l 152 552 q 309 569 227 565 q 467 586 392 573 q 452 613 454 598 q 452 646 450 629 q 455 682 454 663 q 450 718 456 700 l 433 718 m 483 751 q 487 738 489 744 q 483 725 486 732 q 478 713 480 719 q 483 701 476 707 l 483 569 q 470 552 476 556 q 457 546 464 548 q 445 543 451 544 q 433 536 439 541 q 348 483 396 498 q 247 463 300 468 q 140 458 194 458 q 36 452 86 458 q 50 529 48 490 q 53 619 53 569 q 63 653 53 637 q 88 685 73 669 q 116 716 103 701 q 136 751 129 732 q 217 753 179 751 q 291 755 255 755 q 361 751 326 755 q 433 734 396 747 l 483 751 "},"N":{"x_min":-0.28125,"x_max":1007.796875,"ha":1025,"o":"m 327 -19 q 235 -14 281 -3 q 142 -40 188 -24 l 163 -60 l 142 -60 l 121 -60 l 102 -142 q 183 -140 148 -142 q 266 -122 219 -137 l 327 -19 m 736 -60 q 799 -32 766 -45 q 861 -1 833 -19 q 911 39 890 15 q 940 103 933 64 q 870 77 909 87 q 799 52 831 68 q 747 10 766 36 q 736 -60 727 -15 m 348 572 l 367 368 q 439 262 398 315 q 526 160 480 210 q 620 64 571 110 q 715 -19 669 18 q 736 23 730 -3 q 757 82 741 51 q 721 164 748 128 q 659 233 694 201 q 589 298 624 265 q 530 368 554 330 q 470 405 499 383 q 416 455 441 428 q 373 512 391 482 q 348 572 355 541 m 102 839 q 83 808 94 823 q 63 776 73 793 q 46 738 53 758 q 40 696 40 718 q 61 304 55 510 q 82 -101 66 98 q 101 -42 97 -70 q 121 0 106 -15 q 101 206 106 100 q 97 419 97 312 q 99 632 97 526 q 102 839 102 739 m 715 879 l 653 778 q 663 713 662 747 q 669 646 665 679 q 682 584 673 614 q 715 532 691 554 q 712 621 715 578 q 707 705 709 664 q 705 790 705 747 q 715 879 706 833 m 940 982 q 888 975 916 974 q 830 976 859 976 q 776 970 801 976 q 736 942 751 964 q 746 726 736 833 q 757 511 757 619 q 759 496 757 503 q 764 483 762 489 q 765 474 766 478 q 757 471 763 471 q 732 478 741 471 q 715 496 723 485 q 699 522 708 507 q 674 553 690 537 q 672 521 674 537 q 654 490 669 505 q 638 531 638 505 q 654 572 638 557 q 579 655 615 611 q 508 744 544 700 q 433 828 472 787 q 348 900 394 869 q 344 909 348 908 q 335 910 341 910 q 322 911 329 910 q 306 921 315 912 q 316 923 310 921 q 324 930 320 926 q 327 942 327 933 l 142 921 l 121 900 l 121 389 q 131 296 121 343 q 147 202 140 250 q 156 104 155 154 q 142 0 158 54 l 245 21 q 275 18 260 21 q 303 13 290 15 q 328 12 317 11 q 348 21 340 12 q 342 314 348 175 q 306 593 337 454 q 301 609 306 601 q 291 624 295 616 q 289 639 287 632 q 306 654 291 647 q 355 605 337 630 q 388 552 373 579 q 422 498 404 525 q 470 450 440 472 q 564 361 516 404 q 656 274 612 318 q 737 183 701 230 q 797 82 773 136 l 961 164 q 935 573 945 364 q 940 982 925 782 m 961 860 q 955 721 952 790 q 963 580 958 651 q 975 437 969 510 q 982 287 982 364 q 991 257 990 272 q 991 225 991 241 q 993 194 991 209 q 1002 164 994 179 q 1007 139 1009 148 q 996 123 1004 130 q 979 106 988 115 q 961 82 969 97 q 930 31 945 51 q 900 -19 915 11 q 807 -62 854 -34 q 715 -122 761 -91 q 704 -119 709 -122 q 694 -101 694 -115 q 714 -73 718 -85 q 697 -47 711 -60 q 669 -18 684 -34 q 654 21 654 -2 q 544 115 591 66 q 449 226 497 164 l 367 308 q 374 244 376 278 q 371 175 373 209 q 371 106 369 140 q 388 41 373 72 q 388 23 388 33 q 383 3 387 12 q 372 -12 380 -5 q 348 -19 363 -19 q 326 -65 340 -42 q 297 -111 312 -88 q 267 -158 281 -134 q 245 -204 253 -181 q 227 -201 230 -204 q 224 -183 224 -198 l 224 -163 q 150 -173 194 -163 q 60 -183 106 -183 l 40 -163 q 39 58 40 -55 q 35 287 38 172 q 23 515 31 401 q 0 736 15 629 q 74 823 45 768 q 102 942 102 879 q 109 962 102 957 q 125 967 116 967 q 144 964 134 967 q 163 961 155 961 q 212 964 185 961 q 265 969 238 967 q 318 970 292 971 q 367 961 344 969 l 367 921 q 441 861 406 897 q 508 782 476 825 q 571 696 540 740 q 633 614 602 653 q 622 698 617 660 q 641 774 627 737 q 671 846 655 811 q 694 921 687 882 l 694 961 q 759 988 724 985 q 827 992 793 992 q 896 996 862 992 q 961 1024 930 1000 q 978 989 976 1008 q 976 948 980 969 q 966 905 972 928 q 961 860 961 882 "},"ú":{"x_min":0,"x_max":727.84375,"ha":742,"o":"m 545 895 q 488 876 516 888 q 434 849 461 863 q 379 821 406 834 q 322 801 351 808 q 316 782 320 790 q 308 767 312 775 q 302 752 304 759 q 304 736 300 745 q 435 788 370 763 q 559 827 500 813 q 579 881 570 855 q 590 930 588 907 q 581 919 587 923 q 568 912 575 915 q 554 906 561 909 q 545 895 548 902 m 280 901 q 270 862 272 882 q 271 823 269 843 q 278 784 273 804 q 287 743 283 763 l 309 795 l 291 804 q 302 826 302 813 q 296 852 301 838 q 285 877 291 865 q 280 901 279 890 m 469 1011 q 418 998 441 1011 q 374 972 395 986 q 329 949 352 959 q 276 943 305 938 l 322 832 q 336 836 330 834 q 354 830 350 838 q 406 865 377 851 q 465 891 436 879 q 521 916 494 904 q 568 948 548 929 q 581 972 580 959 q 577 1000 581 986 q 564 1030 572 1015 q 551 1059 556 1045 q 514 1036 531 1051 q 469 1011 497 1022 m 575 1069 l 600 977 q 620 972 613 970 q 618 969 627 973 q 602 897 611 933 q 577 822 593 862 q 513 801 550 813 q 440 772 477 788 q 367 740 402 757 q 302 707 331 723 q 292 696 297 693 q 277 695 287 700 l 236 868 q 259 894 254 875 q 269 927 263 913 q 252 939 255 932 q 258 951 248 947 q 350 979 300 958 q 433 1025 400 1000 q 475 1029 458 1018 q 506 1053 491 1040 q 537 1074 522 1066 q 575 1069 552 1082 m 629 -84 l 650 -25 q 628 -28 641 -25 q 602 -39 615 -31 q 580 -58 590 -47 q 570 -84 570 -69 l 629 -84 m 530 93 q 502 48 508 70 q 500 4 497 26 q 513 -40 504 -18 q 530 -84 523 -62 q 555 -48 552 -69 q 552 -3 558 -27 q 538 45 547 20 q 530 93 530 70 m 590 643 q 541 613 552 636 q 526 563 530 590 q 518 509 522 536 q 491 466 513 481 q 471 397 476 437 q 452 327 466 358 q 521 385 497 350 q 558 463 545 420 q 577 552 570 506 q 590 643 583 598 m 19 604 q 44 495 41 552 q 43 378 47 437 q 36 261 40 319 q 40 151 31 202 q 102 74 69 115 q 175 2 136 33 q 258 -44 213 -29 q 354 -44 302 -59 q 382 -32 368 -37 q 410 -20 397 -27 q 434 0 423 -12 q 452 33 445 11 l 393 -5 q 233 9 304 -20 q 118 113 162 38 q 102 173 102 141 q 118 250 102 205 q 97 356 102 301 q 93 466 93 411 q 95 575 93 520 q 98 683 98 630 q 59 650 83 668 q 19 604 34 633 m 629 643 q 613 549 622 598 q 587 452 604 500 q 543 361 570 404 q 470 290 515 319 q 418 282 441 275 q 375 309 395 290 q 336 350 355 327 q 294 387 316 372 q 277 459 287 425 q 257 528 266 493 q 242 601 248 563 q 236 683 236 638 l 137 683 q 114 553 115 616 q 119 425 113 490 q 128 293 125 361 q 118 151 131 225 q 150 108 131 129 q 191 70 169 87 q 239 43 213 54 q 294 33 265 33 q 353 20 323 18 q 411 36 383 23 q 463 70 438 50 q 511 113 488 91 q 519 119 518 113 q 522 132 520 125 q 530 145 525 140 q 551 151 536 151 q 570 119 565 137 q 578 81 576 101 q 581 38 580 61 q 590 -5 583 16 l 609 13 q 624 5 616 6 q 639 6 632 4 q 654 11 647 8 q 669 13 662 13 q 661 175 654 94 q 681 338 668 256 q 704 500 694 419 q 708 662 715 581 q 668 660 693 662 q 629 643 644 658 m 727 486 q 711 364 720 426 q 695 240 701 302 q 691 115 690 177 q 708 -5 693 52 l 687 -24 q 665 -57 673 -40 q 652 -91 657 -74 q 642 -122 647 -108 q 629 -143 637 -136 q 604 -110 629 -112 q 551 -123 580 -108 q 541 -126 543 -123 q 538 -133 540 -129 q 531 -140 536 -137 q 511 -143 526 -143 q 491 -83 495 -112 q 470 -24 486 -55 q 415 -54 441 -40 q 363 -77 388 -68 q 312 -88 338 -86 q 256 -84 286 -91 q 98 31 166 -40 q 0 191 30 102 q 10 302 6 250 q 13 405 13 355 q 10 504 13 455 q 0 604 6 552 q 51 680 15 648 q 118 741 87 712 l 118 702 q 150 705 131 702 q 186 710 168 708 q 223 711 205 712 q 256 702 241 709 q 267 594 263 651 q 283 484 270 537 q 325 384 295 430 q 412 309 354 338 q 436 345 427 323 q 450 390 444 366 q 459 438 455 413 q 470 486 463 463 q 491 513 486 495 q 497 550 495 530 q 499 589 498 569 q 506 625 500 609 q 527 652 512 641 q 570 662 541 662 q 585 679 577 677 q 602 679 593 682 q 623 676 612 677 q 650 683 634 675 q 667 686 657 683 q 688 691 677 689 q 710 691 700 693 q 727 683 720 690 l 727 486 "},"⁄":{"x_min":-18.0625,"x_max":890.34375,"ha":899,"o":"m 159 1 q 103 -38 136 -22 q 47 -79 70 -55 l 62 -79 q 113 -60 86 -63 q 170 -57 141 -56 q 225 -59 198 -58 q 274 -53 251 -61 q 313 -26 297 -45 q 338 33 330 -6 q 292 34 313 38 q 249 23 270 30 q 206 9 227 16 q 159 1 184 1 m 597 1038 l 484 925 q 385 741 436 827 q 272 568 334 655 q 146 254 201 409 q 30 -47 91 100 l 94 -15 q 136 88 112 38 q 186 188 161 138 q 239 286 212 237 q 290 390 266 336 q 443 715 363 550 q 597 1038 523 880 m 662 1088 q 516 810 588 954 q 370 519 444 666 q 317 397 347 458 q 256 277 287 337 q 197 155 226 216 q 143 33 168 94 q 155 40 150 40 q 166 38 161 40 q 177 33 172 36 q 222 38 201 33 q 265 50 244 44 q 309 62 287 56 q 355 68 330 68 l 355 81 q 409 163 391 118 q 451 245 427 209 q 537 461 487 354 q 641 672 587 568 q 751 881 695 777 q 855 1088 807 984 q 754 1093 808 1088 q 662 1088 700 1098 m 890 1120 q 799 916 847 1017 q 702 715 751 815 q 606 513 654 614 q 516 310 558 413 q 460 196 493 249 q 404 82 427 143 l 404 33 q 377 19 391 28 q 350 -2 362 10 q 329 -29 337 -14 q 320 -62 320 -43 q 300 -78 309 -68 q 281 -94 290 -88 q 262 -98 272 -100 q 240 -78 252 -96 q 179 -74 209 -73 q 119 -80 150 -75 q 59 -90 88 -85 q -1 -95 29 -95 q -9 -106 -1 -106 q -18 -95 -18 -106 q 0 -46 -18 -70 q 30 1 18 -21 q 71 114 54 57 q 106 228 88 171 q 148 344 125 286 q 208 456 172 401 q 261 574 231 515 q 323 690 291 632 q 388 806 355 749 q 451 925 420 864 l 613 1089 l 597 1089 q 593 1102 591 1100 q 602 1102 595 1104 q 616 1099 608 1100 q 629 1103 623 1097 q 693 1110 659 1108 q 759 1111 726 1111 q 825 1112 793 1111 q 890 1120 858 1113 "},"2":{"x_min":-1.375,"x_max":826.4375,"ha":883,"o":"m 226 -11 q 174 -25 194 -11 q 140 -59 154 -39 q 119 -99 127 -78 q 102 -135 111 -120 q 133 -129 118 -127 q 163 -133 148 -131 q 195 -132 179 -135 q 226 -114 211 -129 q 334 -108 280 -114 q 443 -93 388 -102 q 552 -79 498 -85 q 661 -73 606 -73 q 720 -40 693 -57 q 763 9 748 -22 q 625 11 694 9 q 487 14 555 14 q 354 9 419 14 q 226 -11 288 3 m 163 194 q 114 125 131 162 q 86 44 97 87 q 65 -44 75 1 q 40 -135 55 -89 q 91 -92 70 -120 q 143 -33 112 -63 q 125 1 127 -17 q 125 39 123 19 q 129 77 127 58 q 123 111 130 96 q 159 146 154 128 q 163 194 163 164 m 600 361 q 557 329 583 345 q 516 298 531 313 q 546 305 531 298 q 572 322 561 312 q 592 342 584 331 q 600 361 600 352 m 454 733 q 420 729 438 733 q 386 715 401 725 q 360 690 370 706 q 350 650 350 674 l 370 671 l 370 650 q 358 633 370 635 q 330 631 345 631 q 309 617 315 631 q 287 588 304 603 l 350 588 q 368 569 358 581 q 388 544 379 558 q 405 515 398 531 q 412 485 412 500 q 464 532 436 508 q 516 581 493 556 q 552 633 538 606 q 557 692 565 660 q 546 724 557 715 q 520 735 536 733 q 487 735 505 737 q 454 733 469 733 m 163 794 q 156 763 163 779 q 140 730 150 748 q 121 693 131 712 q 102 650 111 673 q 161 606 133 634 q 205 547 190 577 l 268 587 q 298 627 293 608 q 295 664 304 647 q 270 699 287 682 q 232 732 252 716 q 193 763 212 748 q 163 794 173 779 m 807 795 q 824 682 827 733 q 801 587 820 631 q 749 505 782 544 q 679 430 716 467 q 605 357 643 394 q 537 278 568 320 q 534 267 537 270 q 526 260 530 263 q 516 258 520 258 q 591 252 555 249 q 661 260 626 255 q 732 272 695 266 q 807 278 768 278 q 790 146 790 216 q 807 29 790 76 l 826 8 q 751 -53 794 -23 q 661 -115 708 -83 q 552 -110 607 -108 q 443 -118 498 -112 q 334 -129 388 -123 q 226 -136 280 -136 q 191 -157 211 -151 q 151 -164 172 -162 q 107 -168 130 -166 q 61 -178 84 -169 q 54 -159 61 -162 q 37 -157 47 -157 q 17 -154 27 -157 q -1 -136 6 -151 q 36 -34 22 -90 q 70 78 51 22 q 120 186 90 134 q 205 277 151 239 q 296 362 252 308 q 370 464 340 416 q 364 486 362 472 q 366 516 366 500 q 360 546 366 532 q 330 568 354 560 q 270 553 298 568 q 226 505 241 537 q 234 494 231 500 q 226 485 238 485 q 202 495 211 485 q 187 519 193 505 q 177 546 181 532 q 163 568 172 560 q 136 586 148 575 q 115 607 125 597 q 97 624 105 617 q 80 631 88 631 l 61 631 q 120 735 93 676 q 163 857 148 794 q 229 764 195 810 q 309 671 262 718 q 417 744 355 718 q 557 754 479 769 q 586 721 572 739 q 600 671 600 703 q 566 600 591 632 q 508 539 541 568 q 438 482 474 510 q 370 424 401 454 q 315 351 347 383 q 254 285 283 318 q 204 216 224 253 q 184 133 184 179 q 156 71 169 102 q 143 9 143 40 l 163 9 q 474 34 319 24 q 784 29 629 45 q 779 88 784 60 q 769 143 773 116 q 767 198 765 170 q 784 258 769 226 q 706 251 745 258 q 627 237 668 245 q 543 223 586 229 q 454 217 500 217 l 454 258 q 560 369 501 320 q 681 464 619 417 q 691 483 681 477 q 702 485 697 485 q 753 539 733 509 q 785 605 773 570 q 802 678 797 639 q 807 755 807 716 q 773 828 798 794 q 715 889 748 862 q 645 935 681 916 q 577 962 608 953 q 386 951 469 977 q 226 878 304 926 q 216 863 218 870 q 215 851 215 856 q 214 842 215 845 q 205 838 213 838 q 195 844 197 838 q 197 858 194 851 q 205 878 200 866 q 323 937 259 909 q 451 978 387 966 q 575 978 515 990 q 681 920 634 967 q 725 892 705 905 q 759 865 744 878 q 786 835 775 852 q 807 795 798 819 m 226 -11 q 174 -25 194 -11 q 140 -59 154 -39 q 119 -99 127 -78 q 102 -135 111 -120 q 133 -129 118 -127 q 163 -133 148 -131 q 195 -132 179 -135 q 226 -114 211 -129 q 334 -108 280 -114 q 443 -93 388 -102 q 552 -79 498 -85 q 661 -73 606 -73 q 720 -40 693 -57 q 763 9 748 -22 q 625 11 694 9 q 487 14 555 14 q 354 9 419 14 q 226 -11 288 3 m 163 194 q 114 125 131 162 q 86 44 97 87 q 65 -44 75 1 q 40 -135 55 -89 q 91 -92 70 -120 q 143 -33 112 -63 q 125 1 127 -17 q 125 39 123 19 q 129 77 127 58 q 123 111 130 96 q 159 146 154 128 q 163 194 163 164 m 600 361 q 557 329 583 345 q 516 298 531 313 q 546 305 531 298 q 572 322 561 312 q 592 342 584 331 q 600 361 600 352 m 454 733 q 420 729 438 733 q 386 715 401 725 q 360 690 370 706 q 350 650 350 674 l 370 671 l 370 650 q 358 633 370 635 q 330 631 345 631 q 309 617 315 631 q 287 588 304 603 l 350 588 q 368 569 358 581 q 388 544 379 558 q 405 515 398 531 q 412 485 412 500 q 464 532 436 508 q 516 581 493 556 q 552 633 538 606 q 557 692 565 660 q 546 724 557 715 q 520 735 536 733 q 487 735 505 737 q 454 733 469 733 m 163 794 q 156 763 163 779 q 140 730 150 748 q 121 693 131 712 q 102 650 111 673 q 161 606 133 634 q 205 547 190 577 l 268 587 q 298 627 293 608 q 295 664 304 647 q 270 699 287 682 q 232 732 252 716 q 193 763 212 748 q 163 794 173 779 m 807 795 q 824 682 827 733 q 801 587 820 631 q 749 505 782 544 q 679 430 716 467 q 605 357 643 394 q 537 278 568 320 q 534 267 537 270 q 526 260 530 263 q 516 258 520 258 q 591 252 555 249 q 661 260 626 255 q 732 272 695 266 q 807 278 768 278 q 790 146 790 216 q 807 29 790 76 l 826 8 q 751 -53 794 -23 q 661 -115 708 -83 q 552 -110 607 -108 q 443 -118 498 -112 q 334 -129 388 -123 q 226 -136 280 -136 q 191 -157 211 -151 q 151 -164 172 -162 q 107 -168 130 -166 q 61 -178 84 -169 q 54 -159 61 -162 q 37 -157 47 -157 q 17 -154 27 -157 q -1 -136 6 -151 q 36 -34 22 -90 q 70 78 51 22 q 120 186 90 134 q 205 277 151 239 q 296 362 252 308 q 370 464 340 416 q 364 486 362 472 q 366 516 366 500 q 360 546 366 532 q 330 568 354 560 q 270 553 298 568 q 226 505 241 537 q 234 494 231 500 q 226 485 238 485 q 202 495 211 485 q 187 519 193 505 q 177 546 181 532 q 163 568 172 560 q 136 586 148 575 q 115 607 125 597 q 97 624 105 617 q 80 631 88 631 l 61 631 q 120 735 93 676 q 163 857 148 794 q 229 764 195 810 q 309 671 262 718 q 417 744 355 718 q 557 754 479 769 q 586 721 572 739 q 600 671 600 703 q 566 600 591 632 q 508 539 541 568 q 438 482 474 510 q 370 424 401 454 q 315 351 347 383 q 254 285 283 318 q 204 216 224 253 q 184 133 184 179 q 156 71 169 102 q 143 9 143 40 l 163 9 q 474 34 319 24 q 784 29 629 45 q 779 88 784 60 q 769 143 773 116 q 767 198 765 170 q 784 258 769 226 q 706 251 745 258 q 627 237 668 245 q 543 223 586 229 q 454 217 500 217 l 454 258 q 560 369 501 320 q 681 464 619 417 q 691 483 681 477 q 702 485 697 485 q 753 539 733 509 q 785 605 773 570 q 802 678 797 639 q 807 755 807 716 q 773 828 798 794 q 715 889 748 862 q 645 935 681 916 q 577 962 608 953 q 386 951 469 977 q 226 878 304 926 q 216 863 218 870 q 215 851 215 856 q 214 842 215 845 q 205 838 213 838 q 195 844 197 838 q 197 858 194 851 q 205 878 200 866 q 323 937 259 909 q 451 978 387 966 q 575 978 515 990 q 681 920 634 967 q 725 892 705 905 q 759 865 744 878 q 786 835 775 852 q 807 795 798 819 "},"ü":{"x_min":0.03125,"x_max":728.625,"ha":742,"o":"m 249 847 q 216 804 228 825 q 193 761 204 783 q 200 760 196 761 q 207 759 204 759 q 252 770 232 759 q 288 795 271 780 q 319 828 304 811 q 347 861 333 845 q 313 847 332 854 q 277 840 295 840 q 249 847 263 840 m 221 987 q 192 943 200 966 q 183 895 185 919 q 183 848 182 872 q 178 804 183 825 q 221 842 210 819 q 233 890 233 865 q 227 940 233 915 q 221 987 221 965 m 249 1001 l 249 875 q 280 857 261 857 q 320 868 300 857 q 361 887 340 880 q 367 930 367 905 q 364 977 367 952 q 361 1029 361 1001 q 300 1020 329 1029 q 249 1001 271 1012 m 391 1001 q 387 949 391 973 q 384 902 384 924 q 385 881 384 891 q 391 860 386 872 q 365 838 379 849 q 337 815 350 827 q 315 790 324 803 q 306 760 306 777 q 272 748 290 749 q 235 747 254 747 q 197 745 215 747 q 164 733 179 744 q 159 724 164 724 q 154 727 157 724 q 150 733 152 730 q 163 798 157 763 q 170 869 170 833 q 164 930 170 902 l 221 1028 q 297 1036 260 1028 q 374 1053 335 1044 l 390 1058 q 395 1041 395 1049 q 391 1023 395 1030 q 387 1009 387 1016 q 391 1001 387 1005 m 532 870 q 498 827 510 848 q 475 786 486 807 q 483 785 479 786 q 489 784 486 784 q 533 794 514 784 q 570 819 553 804 q 602 852 587 834 q 631 884 617 869 q 597 871 615 877 q 560 865 578 865 q 532 870 543 865 m 502 1011 q 471 955 476 984 q 466 898 466 926 l 466 873 q 465 850 466 861 q 461 827 464 838 q 503 866 493 843 q 514 913 514 888 q 508 963 514 938 q 502 1011 502 988 m 532 1025 l 532 898 q 562 880 543 880 q 602 893 582 880 q 643 912 622 905 q 648 934 647 923 q 650 955 650 944 q 646 1002 650 977 q 643 1054 643 1026 q 582 1045 612 1054 q 532 1025 552 1036 m 673 1025 q 670 972 673 997 q 667 926 667 948 q 672 884 667 902 q 646 863 661 873 q 619 841 632 852 q 596 815 605 829 q 587 786 587 801 q 554 772 572 775 q 516 770 536 770 q 479 769 497 770 q 446 757 461 768 q 441 748 446 748 q 437 751 439 748 q 432 757 435 754 q 446 822 439 787 q 453 893 453 857 q 450 923 453 908 q 446 954 448 938 l 503 1054 q 588 1062 546 1054 q 672 1082 631 1070 q 677 1065 677 1073 q 673 1047 677 1054 q 669 1033 669 1040 q 673 1025 669 1029 m 629 -84 l 650 -25 q 628 -28 641 -25 q 602 -39 615 -31 q 580 -58 590 -47 q 570 -84 570 -69 l 629 -84 m 531 93 q 503 48 508 70 q 501 4 497 26 q 514 -40 504 -18 q 530 -84 524 -62 q 556 -48 553 -69 q 553 -3 558 -27 q 539 45 547 20 q 531 93 530 70 m 590 643 q 542 613 553 636 q 526 563 531 590 q 518 509 522 536 q 492 466 514 482 q 472 397 477 437 q 453 327 467 358 q 522 385 497 350 q 558 463 546 420 q 577 552 571 507 q 590 643 583 598 m 20 603 q 45 494 42 552 q 44 378 47 437 q 36 260 40 319 q 40 151 32 202 q 103 74 70 115 q 175 2 136 33 q 258 -44 214 -29 q 354 -44 303 -59 q 383 -32 368 -37 q 411 -20 397 -27 q 435 0 424 -12 q 453 33 446 11 l 393 -5 q 233 9 304 -20 q 118 113 163 38 q 103 173 103 141 q 118 249 103 205 q 98 356 103 301 q 93 465 93 410 q 96 575 93 520 q 99 682 99 630 q 59 650 83 667 q 20 603 35 632 m 630 642 q 614 548 623 598 q 588 451 605 499 q 543 361 571 403 q 471 290 516 319 q 419 282 442 274 q 376 308 396 290 q 336 349 356 327 q 295 387 317 371 q 277 458 288 424 q 258 528 267 492 q 243 600 249 563 q 237 682 237 638 l 138 682 q 115 553 116 616 q 120 425 114 489 q 129 292 125 360 q 118 151 132 224 q 151 108 132 129 q 192 70 170 87 q 240 43 214 54 q 295 33 266 33 q 354 20 324 18 q 411 36 384 23 q 464 70 439 50 q 511 113 489 91 q 519 119 518 113 q 523 132 521 124 q 531 145 525 140 q 551 151 536 151 q 571 119 565 137 q 578 81 576 101 q 582 38 580 61 q 590 -5 583 16 l 610 13 q 624 5 617 6 q 640 6 632 4 q 655 11 647 8 q 670 13 663 13 q 661 175 654 94 q 681 337 668 256 q 705 500 695 419 q 708 662 715 581 q 669 659 693 662 q 630 642 645 657 m 728 485 q 711 364 721 426 q 696 240 702 302 q 692 115 691 177 q 709 -5 693 52 l 688 -25 q 666 -57 674 -40 q 652 -91 657 -74 q 643 -122 648 -108 q 630 -143 638 -136 q 605 -110 630 -112 q 552 -123 581 -108 q 542 -126 543 -123 q 538 -133 540 -129 q 531 -140 536 -137 q 511 -143 527 -143 q 491 -83 496 -112 q 471 -24 486 -55 q 415 -54 442 -40 q 364 -77 389 -68 q 312 -88 339 -86 q 257 -84 286 -91 q 98 31 166 -40 q 0 191 30 102 q 10 302 6 249 q 13 405 13 355 q 10 504 13 455 q 0 603 6 552 q 51 680 15 648 q 118 741 87 712 l 118 702 q 150 705 131 702 q 186 710 168 707 q 223 710 205 712 q 257 702 241 709 q 267 593 263 650 q 283 483 270 537 q 325 384 295 430 q 412 309 354 338 q 436 344 428 323 q 450 389 444 366 q 460 438 456 413 q 471 485 464 463 q 491 512 486 495 q 497 549 496 530 q 499 589 499 568 q 506 625 500 609 q 527 651 513 641 q 571 662 542 662 q 586 679 578 677 q 603 679 593 681 q 624 675 613 677 q 650 682 635 674 q 668 685 657 682 q 689 690 678 688 q 711 691 700 692 q 728 682 721 689 l 728 485 "},"Z":{"x_min":0,"x_max":947.296875,"ha":957,"o":"m 569 -4 q 479 -15 526 -15 q 386 -12 433 -15 q 292 -9 338 -9 q 204 -16 245 -8 q 126 -45 162 -25 q 63 -108 90 -66 q 190 -108 125 -140 q 295 -109 244 -116 q 396 -93 347 -101 q 493 -84 445 -84 q 590 -108 541 -84 q 657 -113 629 -125 q 710 -81 686 -102 q 755 -36 734 -59 q 800 -4 776 -12 q 736 -13 768 -12 q 676 -13 705 -15 q 619 -7 647 -11 q 569 -4 591 -4 m 590 627 q 433 475 502 556 q 304 306 363 393 q 193 129 245 219 q 86 -45 140 40 l 209 37 q 313 183 265 108 q 406 333 361 258 q 497 482 452 408 q 590 627 541 556 m 274 648 q 271 632 274 640 q 266 618 268 625 q 264 609 264 612 q 274 605 265 605 q 270 593 274 597 q 262 587 267 590 q 253 584 257 584 q 234 597 237 584 q 232 627 232 611 q 202 564 215 595 q 190 501 190 533 q 256 525 220 516 q 329 543 292 534 q 406 560 367 551 q 485 584 446 569 q 511 614 493 601 q 549 643 529 627 q 585 679 568 658 q 611 732 603 700 q 435 697 515 716 q 274 648 354 679 m 232 837 q 203 761 223 797 q 165 687 183 725 q 138 609 147 650 q 145 520 130 568 q 181 606 163 569 q 232 688 200 643 l 232 837 m 336 941 q 273 914 289 941 q 257 850 257 887 q 265 773 257 812 q 274 711 274 734 l 274 689 q 389 721 336 705 q 507 753 442 737 q 557 749 530 744 q 608 758 583 754 q 655 759 633 762 q 693 732 678 755 q 476 384 583 558 q 274 37 369 211 q 316 35 290 37 q 357 18 342 33 q 480 26 421 25 q 600 27 540 27 q 719 29 660 27 q 842 37 779 30 q 844 193 842 118 q 862 332 847 269 q 799 298 830 316 q 733 264 767 279 q 665 238 700 248 q 590 228 629 228 l 547 268 l 717 543 q 772 646 740 597 q 833 745 804 696 q 883 848 862 794 q 904 964 904 901 q 762 960 833 972 q 621 937 692 948 q 478 921 550 925 q 336 941 407 918 m 947 963 q 881 806 915 884 q 800 648 847 727 q 705 458 752 552 q 611 268 658 363 q 686 281 650 268 q 757 313 722 295 q 829 349 793 331 q 904 374 865 366 q 878 206 888 294 q 883 37 868 117 q 791 -46 836 -11 q 716 -130 747 -82 q 666 -148 693 -145 q 611 -143 638 -150 q 556 -127 583 -137 q 506 -108 530 -116 q 252 -145 377 -140 q 0 -151 127 -151 l 0 -130 q 202 204 95 44 q 420 520 309 363 q 404 529 412 529 q 387 528 397 530 q 365 523 377 526 q 336 520 352 520 q 286 508 312 513 q 234 493 259 502 q 185 465 208 483 q 145 418 162 448 q 128 452 130 433 q 128 490 126 470 q 131 529 130 509 q 126 565 133 548 q 100 577 111 565 q 105 605 90 590 q 139 684 120 644 q 175 765 158 724 q 208 850 193 806 q 231 941 223 894 q 246 951 238 950 q 261 950 254 952 q 273 941 268 947 q 347 958 305 958 q 420 941 390 958 q 547 951 484 941 q 676 970 611 961 q 809 986 741 980 q 947 984 876 993 l 947 963 "},"u":{"x_min":0,"x_max":727.84375,"ha":742,"o":"m 629 -84 l 650 -25 q 628 -28 641 -25 q 602 -39 615 -31 q 580 -58 590 -47 q 570 -84 570 -69 l 629 -84 m 530 93 q 502 48 508 70 q 500 4 497 26 q 513 -40 504 -17 q 530 -84 523 -62 q 555 -48 552 -69 q 552 -3 558 -27 q 538 45 547 20 q 530 93 530 70 m 590 643 q 541 613 552 636 q 526 563 530 590 q 518 509 522 536 q 491 466 513 482 q 471 398 476 437 q 452 327 466 358 q 521 385 497 350 q 558 464 545 421 q 577 553 570 507 q 590 643 583 598 m 19 604 q 44 495 41 553 q 43 378 47 437 q 36 261 40 319 q 40 151 31 202 q 102 74 69 115 q 175 2 136 33 q 258 -44 213 -29 q 354 -44 302 -59 q 382 -32 368 -37 q 410 -20 397 -27 q 434 0 423 -12 q 452 33 445 11 l 393 -5 q 233 9 304 -20 q 118 114 162 39 q 102 173 102 141 q 118 250 102 205 q 97 356 102 301 q 93 466 93 411 q 95 575 93 521 q 98 683 98 630 q 59 650 83 668 q 19 604 34 633 m 629 643 q 613 549 622 598 q 587 452 604 500 q 543 361 570 404 q 470 290 515 319 q 418 282 441 275 q 375 309 395 290 q 336 350 355 327 q 294 387 316 372 q 277 459 287 425 q 257 528 266 493 q 242 601 248 564 q 236 683 236 639 l 137 683 q 114 553 115 616 q 119 425 113 490 q 128 293 125 361 q 118 151 131 225 q 150 108 131 129 q 191 70 169 87 q 239 43 213 54 q 294 33 265 33 q 353 20 323 18 q 411 36 383 23 q 463 70 438 50 q 511 114 488 91 q 519 119 518 114 q 522 132 520 125 q 530 145 525 140 q 551 151 536 151 q 570 119 565 137 q 578 81 576 101 q 581 39 580 61 q 590 -5 583 16 l 609 14 q 624 5 616 7 q 639 6 632 4 q 654 11 647 8 q 669 14 662 14 q 661 175 654 94 q 681 338 668 257 q 704 500 694 419 q 708 662 715 582 q 668 660 693 662 q 629 643 644 658 m 727 486 q 711 364 720 426 q 695 240 701 302 q 691 115 690 177 q 708 -5 693 52 l 687 -24 q 665 -57 673 -40 q 652 -91 657 -74 q 642 -122 647 -108 q 629 -143 637 -136 q 604 -110 629 -112 q 551 -123 580 -108 q 541 -126 543 -123 q 538 -133 540 -129 q 531 -140 536 -137 q 511 -143 526 -143 q 491 -83 495 -112 q 470 -24 486 -55 q 415 -54 441 -40 q 363 -77 388 -67 q 312 -88 338 -86 q 256 -84 286 -91 q 98 31 166 -40 q 0 191 30 102 q 10 302 6 250 q 13 405 13 355 q 10 504 13 455 q 0 604 6 553 q 51 680 15 648 q 118 742 87 712 l 118 703 q 150 705 131 703 q 186 710 168 708 q 223 711 205 712 q 256 703 241 710 q 267 594 263 651 q 283 484 270 537 q 325 384 295 430 q 412 309 354 339 q 436 345 427 323 q 450 390 444 366 q 459 439 455 414 q 470 486 463 464 q 491 513 486 496 q 497 550 495 530 q 499 589 498 569 q 506 625 500 610 q 527 652 512 641 q 570 662 541 662 q 585 680 577 678 q 602 680 593 682 q 623 676 612 678 q 650 683 634 675 q 667 686 657 683 q 688 691 677 689 q 710 691 700 693 q 727 683 720 690 l 727 486 "},"˜":{"x_min":19.453125,"x_max":1012.578125,"ha":1026,"o":"m 65 401 q 47 335 50 369 q 44 268 44 301 q 57 252 52 260 q 68 238 62 244 q 84 228 75 232 q 109 223 93 223 q 103 241 101 232 q 111 260 105 250 q 125 283 118 271 q 131 312 131 296 l 131 292 l 109 292 q 115 320 118 307 q 104 346 112 333 q 84 372 95 358 q 65 401 73 385 m 991 534 q 913 445 957 483 q 837 358 869 406 q 780 326 812 342 q 713 304 748 311 q 641 303 677 297 q 572 333 605 308 q 518 380 538 350 q 477 438 498 410 q 429 488 456 467 q 352 509 401 509 q 306 498 327 509 q 269 472 286 488 q 240 437 252 456 q 219 401 227 418 q 175 303 204 350 q 131 223 147 257 q 181 277 156 248 q 233 332 206 305 q 289 383 259 360 q 352 422 319 405 q 403 417 384 422 q 441 379 422 411 q 491 326 466 354 q 545 276 516 298 q 606 238 573 253 q 682 223 640 223 q 714 237 698 232 q 745 249 730 243 q 771 265 759 255 q 791 292 783 275 l 791 268 q 841 328 808 301 q 908 385 875 356 q 966 449 941 414 q 991 534 991 483 m 394 687 q 296 652 344 679 q 205 587 248 625 q 126 506 162 550 q 65 422 90 463 q 91 393 81 405 q 109 371 101 381 q 127 352 118 361 q 152 333 136 343 q 199 422 168 384 q 262 508 230 461 q 299 525 279 518 q 340 535 319 533 q 380 531 361 537 q 416 508 400 526 q 470 478 450 500 q 506 433 490 456 q 542 388 523 409 q 594 358 561 366 q 647 335 619 341 q 702 331 675 329 q 752 341 729 333 q 791 358 775 348 q 850 398 825 375 q 899 450 876 422 q 944 511 922 479 q 991 576 966 543 l 880 643 q 830 547 863 593 q 748 487 797 502 q 646 495 690 472 q 563 555 602 518 q 484 632 523 593 q 394 687 444 670 m 527 622 q 574 586 552 606 q 616 548 595 565 q 657 520 636 531 q 704 509 679 509 q 766 524 737 509 q 817 562 794 539 q 856 613 840 585 q 880 664 872 640 q 902 654 897 664 q 925 643 908 643 q 941 624 933 635 q 960 602 950 613 q 983 584 970 592 q 1012 577 995 577 q 1002 511 1012 545 q 991 446 991 478 l 812 248 q 771 237 788 248 q 737 216 754 226 q 703 200 720 205 q 661 203 686 194 q 627 209 644 203 q 594 227 611 216 q 561 248 577 237 q 527 268 544 259 q 485 310 502 284 q 449 359 468 336 q 408 396 430 382 q 352 401 386 409 q 302 361 327 384 q 252 312 277 337 q 202 264 227 287 q 152 223 177 240 q 143 207 144 215 q 141 196 141 200 q 140 193 141 191 q 131 203 140 194 q 121 196 123 203 q 117 182 119 189 q 109 173 115 176 q 86 179 102 171 q 72 200 77 187 q 61 225 68 212 q 45 248 55 237 q 19 268 36 260 q 31 349 19 301 q 44 446 44 396 l 19 446 q 34 451 29 454 q 44 445 40 449 q 52 439 48 440 q 65 446 56 438 q 122 527 90 488 q 194 599 155 567 q 278 656 233 632 q 373 688 323 679 q 420 693 398 696 q 459 679 441 689 q 494 653 477 668 q 527 622 511 638 m 65 401 q 47 335 50 369 q 44 268 44 301 q 57 252 52 260 q 68 238 62 244 q 84 228 75 232 q 109 223 93 223 q 103 241 101 232 q 111 260 105 250 q 125 283 118 271 q 131 312 131 296 l 131 292 l 109 292 q 115 320 118 307 q 104 346 112 333 q 84 372 95 358 q 65 401 73 385 m 991 534 q 913 445 957 483 q 837 358 869 406 q 780 326 812 342 q 713 304 748 311 q 641 303 677 297 q 572 333 605 308 q 518 380 538 350 q 477 438 498 410 q 429 488 456 467 q 352 509 401 509 q 306 498 327 509 q 269 472 286 488 q 240 437 252 456 q 219 401 227 418 q 175 303 204 350 q 131 223 147 257 q 181 277 156 248 q 233 332 206 305 q 289 383 259 360 q 352 422 319 405 q 403 417 384 422 q 441 379 422 411 q 491 326 466 354 q 545 276 516 298 q 606 238 573 253 q 682 223 640 223 q 714 237 698 232 q 745 249 730 243 q 771 265 759 255 q 791 292 783 275 l 791 268 q 841 328 808 301 q 908 385 875 356 q 966 449 941 414 q 991 534 991 483 m 394 687 q 296 652 344 679 q 205 587 248 625 q 126 506 162 550 q 65 422 90 463 q 91 393 81 405 q 109 371 101 381 q 127 352 118 361 q 152 333 136 343 q 199 422 168 384 q 262 508 230 461 q 299 525 279 518 q 340 535 319 533 q 380 531 361 537 q 416 508 400 526 q 470 478 450 500 q 506 433 490 456 q 542 388 523 409 q 594 358 561 366 q 647 335 619 341 q 702 331 675 329 q 752 341 729 333 q 791 358 775 348 q 850 398 825 375 q 899 450 876 422 q 944 511 922 479 q 991 576 966 543 l 880 643 q 830 547 863 593 q 748 487 797 502 q 646 495 690 472 q 563 555 602 518 q 484 632 523 593 q 394 687 444 670 m 527 622 q 574 586 552 606 q 616 548 595 565 q 657 520 636 531 q 704 509 679 509 q 766 524 737 509 q 817 562 794 539 q 856 613 840 585 q 880 664 872 640 q 902 654 897 664 q 925 643 908 643 q 941 624 933 635 q 960 602 950 613 q 983 584 970 592 q 1012 577 995 577 q 1002 511 1012 545 q 991 446 991 478 l 812 248 q 771 237 788 248 q 737 216 754 226 q 703 200 720 205 q 661 203 686 194 q 627 209 644 203 q 594 227 611 216 q 561 248 577 237 q 527 268 544 259 q 485 310 502 284 q 449 359 468 336 q 408 396 430 382 q 352 401 386 409 q 302 361 327 384 q 252 312 277 337 q 202 264 227 287 q 152 223 177 240 q 143 207 144 215 q 141 196 141 200 q 140 193 141 191 q 131 203 140 194 q 121 196 123 203 q 117 182 119 189 q 109 173 115 176 q 86 179 102 171 q 72 200 77 187 q 61 225 68 212 q 45 248 55 237 q 19 268 36 260 q 31 349 19 301 q 44 446 44 396 l 19 446 q 34 451 29 454 q 44 445 40 449 q 52 439 48 440 q 65 446 56 438 q 122 527 90 488 q 194 599 155 567 q 278 656 233 632 q 373 688 323 679 q 420 693 398 696 q 459 679 441 689 q 494 653 477 668 q 527 622 511 638 "},"Ó":{"x_min":-0.875,"x_max":1102,"ha":1132,"o":"m 739 1301 q 658 1273 697 1291 q 581 1235 620 1255 q 504 1196 543 1215 q 424 1168 465 1177 q 416 1141 422 1152 q 404 1120 410 1130 q 396 1100 399 1111 q 399 1076 393 1090 q 584 1150 493 1115 q 758 1205 675 1186 q 786 1280 774 1244 q 802 1350 799 1316 q 789 1334 797 1340 q 770 1325 781 1329 q 751 1316 760 1320 q 739 1301 743 1311 m 365 1309 q 350 1254 352 1282 q 352 1199 348 1226 q 362 1143 355 1172 q 375 1086 369 1115 l 406 1161 l 380 1172 q 395 1204 397 1186 q 387 1240 394 1222 q 372 1276 380 1258 q 365 1309 363 1294 m 630 1464 q 560 1445 591 1462 q 497 1409 529 1429 q 434 1376 466 1390 q 359 1368 401 1362 l 423 1211 q 443 1216 433 1215 q 458 1217 450 1218 q 469 1209 466 1216 q 543 1258 502 1238 q 625 1295 584 1277 q 704 1330 666 1312 q 769 1375 741 1348 q 787 1409 786 1390 q 782 1449 788 1429 q 765 1491 776 1469 q 745 1532 754 1512 q 693 1500 718 1520 q 630 1464 669 1479 m 779 1545 l 813 1416 q 843 1409 833 1408 q 840 1405 852 1411 q 817 1304 829 1355 q 783 1198 805 1254 q 584 1128 684 1170 q 397 1036 484 1086 q 389 1023 393 1026 q 381 1020 386 1020 q 372 1022 377 1020 q 361 1020 368 1023 l 302 1262 q 335 1300 327 1273 q 350 1345 343 1326 q 325 1363 330 1352 q 334 1379 320 1373 q 397 1393 363 1383 q 463 1418 430 1404 q 526 1448 495 1432 q 580 1483 556 1465 q 638 1490 615 1475 q 683 1524 662 1505 q 726 1553 704 1543 q 779 1545 748 1564 m 497 570 q 452 587 479 587 q 409 570 425 587 q 410 506 409 538 q 417 446 411 475 q 436 394 423 418 q 473 354 450 370 q 522 322 498 337 q 571 300 547 308 q 620 294 595 293 q 669 311 644 295 q 672 343 669 327 q 677 375 675 359 q 678 408 679 391 q 669 441 677 425 q 598 522 636 490 q 497 570 561 554 m 150 657 q 87 538 118 591 q 42 420 57 484 q 58 320 53 372 q 69 216 64 268 q 85 114 75 165 q 116 18 96 63 q 170 -68 136 -27 q 258 -141 204 -109 q 390 -177 322 -175 q 525 -163 458 -180 q 656 -118 592 -147 q 776 -56 719 -88 q 628 -66 703 -65 q 482 -53 553 -68 q 349 -4 411 -38 q 237 94 286 29 q 160 222 189 151 q 121 368 130 293 q 119 517 111 443 q 150 657 126 591 m 670 786 q 640 801 653 802 q 615 794 627 800 q 590 783 603 788 q 561 786 578 777 q 461 727 496 770 q 410 636 425 684 q 604 570 506 636 q 652 530 629 554 q 693 478 675 506 q 722 418 711 450 q 734 354 734 387 q 762 377 750 362 q 782 411 774 393 q 794 449 790 430 q 799 484 799 468 q 766 652 799 581 q 670 786 734 722 m 841 570 q 838 465 850 513 q 803 376 827 416 q 744 303 779 336 q 669 245 709 270 q 649 255 661 254 q 623 256 637 256 q 593 259 609 256 q 561 269 577 261 q 513 292 537 277 q 466 325 488 306 q 424 361 444 343 q 388 397 404 380 q 358 497 363 445 q 363 597 352 548 q 397 688 373 645 q 452 765 420 732 q 489 791 469 782 q 531 808 509 800 q 577 826 554 816 q 625 852 601 836 q 701 795 665 827 q 766 727 737 763 q 813 650 794 690 q 841 570 833 611 m 389 895 q 294 827 332 870 q 229 732 256 784 q 185 620 203 679 q 150 505 167 562 q 167 349 150 425 q 215 209 183 273 q 296 93 247 144 q 410 9 345 41 q 533 -17 467 -6 q 665 -23 599 -27 q 795 2 732 -19 q 906 73 857 25 q 999 201 963 130 q 1052 349 1036 272 q 1065 504 1068 426 q 1036 657 1061 583 q 989 765 1020 713 q 918 857 959 816 q 829 924 877 897 q 734 959 782 951 q 731 937 734 943 q 713 916 728 932 q 637 959 679 950 q 550 963 595 969 q 463 938 506 957 q 389 895 421 919 m 842 959 q 955 863 906 919 q 1036 741 1004 808 q 1085 598 1068 675 q 1102 441 1102 522 q 1080 313 1093 376 q 1042 193 1067 250 q 980 88 1018 136 q 885 9 942 41 q 773 -97 836 -55 q 639 -164 710 -140 q 492 -198 568 -188 q 344 -208 417 -208 q 217 -154 268 -191 q 130 -68 165 -118 q 74 41 94 -18 q 40 165 53 101 q 18 295 26 230 q 0 420 10 361 q 85 590 39 501 q 191 757 132 679 q 325 896 250 836 q 497 982 400 957 q 581 990 538 982 q 670 1002 625 998 q 758 999 714 1007 q 842 959 801 991 "}}}
